BasicallyASansSerif-Bold.ufo
<glyph name="exclamation" format="2">
  <advance width="459.00000000000006"/>
  <unicode hex="0021"/>
  <outline>
    <contour>
      <point x="121.5" y="335.13333" type="line"/>
      <point x="337.5" y="335.13333" type="line"/>
      <point x="337.5" y="1086.75" type="line"/>
      <point x="121.5" y="1086.75" type="line"/>
    </contour>
    <contour>
      <point x="369.9" y="122.73333" type="curve" smooth="yes"/>
      <point x="369.9" y="200.2222"/>
      <point x="306.98887" y="263.13333"/>
      <point x="229.5" y="263.13333" type="curve" smooth="yes"/>
      <point x="152.01113" y="263.13333"/>
      <point x="89.1" y="200.2222"/>
      <point x="89.1" y="122.73333" type="curve" smooth="yes"/>
      <point x="89.1" y="45.24446"/>
      <point x="152.01113" y="-17.66667"/>
      <point x="229.5" y="-17.66667" type="curve" smooth="yes"/>
      <point x="306.98887" y="-17.66667"/>
      <point x="369.9" y="45.24446"/>
    </contour>
  </outline>
</glyph>
<glyph name="quote_dbl" format="2">
  <advance width="645.3000000000001"/>
  <unicode hex="0022"/>
  <outline>
    <contour>
      <point x="372.6" y="750.9375" type="line"/>
      <point x="556.2" y="750.9375" type="line"/>
      <point x="556.2" y="1086.75" type="line"/>
      <point x="372.6" y="1086.75" type="line"/>
    </contour>
    <contour>
      <point x="89.1" y="750.9375" type="line"/>
      <point x="272.7" y="750.9375" type="line"/>
      <point x="272.7" y="1086.75" type="line"/>
      <point x="89.1" y="1086.75" type="line"/>
    </contour>
  </outline>
</glyph>
<glyph name="quotedbl" format="2">
  <advance width="721.8"/>
  <unicode hex="0022"/>
  <outline>
    <contour>
      <point x="414.9" y="756.0" type="line"/>
      <point x="630.9" y="756.0" type="line"/>
      <point x="630.9" y="1080.0" type="line"/>
      <point x="414.9" y="1080.0" type="line"/>
    </contour>
    <contour>
      <point x="90.9" y="756.0" type="line"/>
      <point x="306.9" y="756.0" type="line"/>
      <point x="306.9" y="1080.0" type="line"/>
      <point x="90.9" y="1080.0" type="line"/>
    </contour>
  </outline>
</glyph>
<glyph name="numbersign" format="2">
  <advance width="949.9177013072882"/>
  <unicode hex="0023"/>
  <outline>
    <contour>
      <point x="92.47712707519531" y="0" type="line"/>
      <point x="300.0686721801758" y="0" type="line"/>
      <point x="346.7823715209961" y="240.3211669921875" type="line"/>
      <point x="485.25630950927734" y="240.3211669921875" type="line"/>
      <point x="438.54261016845703" y="0" type="line"/>
      <point x="646.134147644043" y="0" type="line"/>
      <point x="692.8478469848633" y="240.3211669921875" type="line"/>
      <point x="867.2673034667969" y="240.3211669921875" type="line"/>
      <point x="867.2673034667969" y="432.37879180908203" type="line"/>
      <point x="730.1800689697266" y="432.37879180908203" type="line"/>
      <point x="773.394645690918" y="654.6985015869141" type="line"/>
      <point x="947.8141021728516" y="654.6985015869141" type="line"/>
      <point x="947.8141021728516" y="846.7561187744141" type="line"/>
      <point x="810.7268600463867" y="846.7561187744141" type="line"/>
      <point x="857.4405670166016" y="1087.077293395996" type="line"/>
      <point x="649.8490295410156" y="1087.077293395996" type="line"/>
      <point x="603.1353225708008" y="846.7561187744141" type="line"/>
      <point x="464.66138458251953" y="846.7561187744141" type="line"/>
      <point x="511.3750915527344" y="1087.077293395996" type="line"/>
      <point x="303.7835464477539" y="1087.077293395996" type="line"/>
      <point x="257.06983947753906" y="846.7561187744141" type="line"/>
      <point x="82.65039825439453" y="846.7561187744141" type="line"/>
      <point x="82.65039825439453" y="654.6985015869141" type="line"/>
      <point x="219.7376251220703" y="654.6985015869141" type="line"/>
      <point x="176.5230484008789" y="432.37879180908203" type="line"/>
      <point x="2.103607177734375" y="432.37879180908203" type="line"/>
      <point x="2.103607177734375" y="240.3211669921875" type="line"/>
      <point x="139.19082641601562" y="240.3211669921875" type="line"/>
    </contour>
    <contour>
      <point x="384.1145935058594" y="432.37879180908203" type="line"/>
      <point x="427.3291702270508" y="654.6985015869141" type="line"/>
      <point x="565.803108215332" y="654.6985015869141" type="line"/>
      <point x="522.5885314941406" y="432.37879180908203" type="line"/>
    </contour>
  </outline>
</glyph>
<glyph name="dollar" format="2">
  <advance width="933.3"/>
  <unicode hex="0024"/>
  <outline>
    <contour>
      <point x="297.8999999999999" y="773.6249977111815" type="curve"/>
      <point x="297.9" y="812.0713644877131"/>
      <point x="330.9441910150025" y="845.7363676431065"/>
      <point x="380.25" y="864.1271133422852" type="curve"/>
      <point x="380.25" y="683.1252288818359" type="line"/>
      <point x="330.94326866785104" y="701.5061688420031"/>
      <point x="297.8999999999999" y="735.178401612391"/>
    </contour>
    <contour>
      <point x="54.900001525878906" y="319.875" type="line"/>
      <point x="54.9" y="159.15183861601545"/>
      <point x="194.42147120020587" y="24.722443663406978"/>
      <point x="380.25" y="-7.593681335449219" type="curve"/>
      <point x="380.25" y="-108" type="line"/>
      <point x="553.0500030517578" y="-108" type="line"/>
      <point x="553.0500030517578" y="-7.59320068359375" type="line"/>
      <point x="738.878528799794" y="24.722443663406906"/>
      <point x="878.4" y="159.1518386160153"/>
      <point x="878.4" y="319.8749999999999" type="curve"/>
      <point x="878.3999999999999" y="478.766754812111"/>
      <point x="742.0371174272257" y="611.9449200334118"/>
      <point x="559.3843666076659" y="646.2015815734864" type="curve"/>
      <point x="553.0500030517578" y="647.3896026611328" type="line"/>
      <point x="553.0500030517578" y="864.1352844238281" type="line"/>
      <point x="602.3558089849975" y="845.7363676431065"/>
      <point x="635.3999999999999" y="812.0713644877131"/>
      <point x="635.4" y="773.625" type="curve"/>
      <point x="851.4000015258789" y="773.625" type="line"/>
      <point x="851.4" y="926.1868244763441"/>
      <point x="723.8553763543093" y="1054.0622210437416"/>
      <point x="553.0500030517578" y="1086.84716796875" type="curve"/>
      <point x="553.0500030517578" y="1188" type="line"/>
      <point x="380.25" y="1188" type="line"/>
      <point x="380.25" y="1086.8417739868164" type="line"/>
      <point x="209.4446236456907" y="1054.0622210437416"/>
      <point x="81.89999999999996" y="926.186824476344"/>
      <point x="81.89999999999992" y="773.625" type="curve"/>
      <point x="81.9" y="621.0631510889318"/>
      <point x="209.44741402855874" y="493.2024621075661"/>
      <point x="380.25" y="460.4102325439453" type="curve"/>
      <point x="380.25" y="213.21116638183594" type="line"/>
      <point x="315.4925108134767" y="232.5894748257966"/>
      <point x="270.9" y="273.0947403729515"/>
      <point x="270.90000000000003" y="319.87500000000006" type="curve"/>
    </contour>
    <contour>
      <point x="662.3999999999999" y="319.875" type="curve"/>
      <point x="662.4" y="273.0947403729514"/>
      <point x="617.8074891865232" y="232.58947482579654"/>
      <point x="553.0500030517578" y="213.20842742919922" type="curve"/>
      <point x="553.0500030517578" y="426.53775787353516" type="line"/>
      <point x="617.8106589244702" y="407.1819285018381"/>
      <point x="662.3999999999999" y="366.65563256987247"/>
    </contour>
  </outline>
</glyph>
<glyph name="percent" format="2">
  <advance width="1258.5857142857146"/>
  <unicode hex="0025"/>
  <outline>
    <contour>
      <point x="605.18571" y="810.85714" type="curve" smooth="yes"/>
      <point x="605.18571" y="967.67985"/>
      <point x="477.86557" y="1095.0"/>
      <point x="321.04286" y="1095.0" type="curve" smooth="yes"/>
      <point x="164.22015" y="1095.0"/>
      <point x="36.9" y="967.67985"/>
      <point x="36.9" y="810.85714" type="curve" smooth="yes"/>
      <point x="36.9" y="654.03443"/>
      <point x="164.22015" y="526.71429"/>
      <point x="321.04286" y="526.71429" type="curve" smooth="yes"/>
      <point x="477.86557" y="526.71429"/>
      <point x="605.18571" y="654.03443"/>
    </contour>
    <contour>
      <point x="114.18915" y="0.0" type="line"/>
      <point x="330.55819" y="0.0" type="line"/>
      <point x="1144.39657" y="1080.0" type="line"/>
      <point x="928.02752" y="1080.0" type="line"/>
    </contour>
    <contour>
      <point x="389.18571" y="810.85714" type="curve" smooth="yes"/>
      <point x="389.18571" y="773.24808"/>
      <point x="358.65192" y="742.71429"/>
      <point x="321.04286" y="742.71429" type="curve" smooth="yes"/>
      <point x="283.43379" y="742.71429"/>
      <point x="252.9" y="773.24808"/>
      <point x="252.9" y="810.85714" type="curve" smooth="yes"/>
      <point x="252.9" y="848.46621"/>
      <point x="283.43379" y="879.0"/>
      <point x="321.04286" y="879.0" type="curve" smooth="yes"/>
      <point x="358.65192" y="879.0"/>
      <point x="389.18571" y="848.46621"/>
    </contour>
    <contour>
      <point x="1221.68571" y="269.14286" type="curve" smooth="yes"/>
      <point x="1221.68571" y="425.96557"/>
      <point x="1094.36557" y="553.28571"/>
      <point x="937.54286" y="553.28571" type="curve" smooth="yes"/>
      <point x="780.72015" y="553.28571"/>
      <point x="653.4" y="425.96557"/>
      <point x="653.4" y="269.14286" type="curve" smooth="yes"/>
      <point x="653.4" y="112.32015"/>
      <point x="780.72015" y="-15.0"/>
      <point x="937.54286" y="-15.0" type="curve" smooth="yes"/>
      <point x="1094.36557" y="-15.0"/>
      <point x="1221.68571" y="112.32015"/>
    </contour>
    <contour>
      <point x="1005.68571" y="269.14286" type="curve" smooth="yes"/>
      <point x="1005.68571" y="231.53379"/>
      <point x="975.15192" y="201.0"/>
      <point x="937.54286" y="201.0" type="curve" smooth="yes"/>
      <point x="899.93379" y="201.0"/>
      <point x="869.4" y="231.53379"/>
      <point x="869.4" y="269.14286" type="curve" smooth="yes"/>
      <point x="869.4" y="306.75192"/>
      <point x="899.93379" y="337.28571"/>
      <point x="937.54286" y="337.28571" type="curve" smooth="yes"/>
      <point x="975.15192" y="337.28571"/>
      <point x="1005.68571" y="306.75192"/>
    </contour>
  </outline>
</glyph>
<glyph name="ampersand" format="2">
  <advance width="1048.3632960522655"/>
  <unicode hex="0026"/>
  <outline>
    <contour>
      <point x="352.83048892158797" y="444.06545075078964" type="curve"/>
      <point x="372.33646392822266" y="453.6261978149414" type="line"/>
      <point x="557.5966262817383" y="252.39594268798828" type="line"/>
      <point x="524.93993" y="204.30423999999996"/>
      <point x="466.9458900000001" y="171.3171"/>
      <point x="401.22918" y="171.3171" type="curve"/>
      <point x="322.14563" y="171.3171"/>
      <point x="257.89333" y="231.73807999999997"/>
      <point x="257.89333" y="308.94894" type="curve"/>
      <point x="257.89333" y="396.6348127053756"/>
      <point x="332.0147406203168" y="433.8627254631889"/>
    </contour>
    <contour>
      <point x="460.30916" y="915.76019" type="curve" smooth="yes"/>
      <point x="517.40998" y="915.76019"/>
      <point x="563.7686" y="869.40157"/>
      <point x="563.7686" y="812.30075" type="curve"/>
      <point x="563.7686" y="747.9435854834616"/>
      <point x="509.30468769028244" y="721.0999667319314"/>
      <point x="493.49407930702813" y="713.4565534654612" type="curve"/>
      <point x="436.3087615966797" y="685.8111267089844" type="line"/>
      <point x="393.23386541681026" y="732.4648353560171" type="line" smooth="yes"/>
      <point x="379.3901305830643" y="747.4587559176225"/>
      <point x="356.84972" y="772.7927937702074"/>
      <point x="356.84972" y="812.30075" type="curve"/>
      <point x="356.84972" y="869.40157"/>
      <point x="403.20834" y="915.76019"/>
    </contour>
    <contour>
      <point x="592.3281133893915" y="561.5747096269924" type="line"/>
      <point x="627.0291440868099" y="578.6481678544011"/>
      <point x="771.03286" y="652.2431175891568"/>
      <point x="771.03286" y="812.30075" type="curve"/>
      <point x="771.03286" y="972.23307"/>
      <point x="633.8705000000001" y="1096.64474"/>
      <point x="464.61583" y="1096.64474" type="curve" smooth="yes"/>
      <point x="290.6423299999999" y="1096.64474"/>
      <point x="149.58546" y="973.4043700000001"/>
      <point x="149.58546" y="812.30075" type="curve"/>
      <point x="149.58546" y="698.0278794055749"/>
      <point x="211.5018466206281" y="628.3253180126014"/>
      <point x="234.02406798216163" y="603.8616083546241" type="curve" smooth="yes"/>
      <point x="244.12850952148438" y="592.8861312866211" type="line"/>
      <point x="233.9950893077209" y="587.9414243173942" type="line"/>
      <point x="89.37945440194022" y="517.374732845689"/>
      <point x="42.38541000000001" y="397.42131757067006"/>
      <point x="42.38541" y="308.94894" type="curve"/>
      <point x="42.385410000000014" y="110.8976799999999"/>
      <point x="203.1779099999999" y="-17.811109999999974"/>
      <point x="401.22918" y="-17.81111" type="curve"/>
      <point x="516.4064920074001" y="-17.81111"/>
      <point x="619.9164045220114" y="30.021606875159037"/>
      <point x="690.9288864135742" y="107.5699691772461" type="curve"/>
      <point x="789.9618606567383" y="0" type="line"/>
      <point x="1069.5112380981445" y="0" type="line"/>
      <point x="810.6123199462891" y="280.4091339111328" type="line"/>
      <point x="1024.9519500732422" y="605.1323776245117" type="line"/>
      <point x="797.513801574707" y="605.1323776245117" type="line"/>
      <point x="675.9071350097656" y="426.30609130859375" type="line"/>
      <point x="563.9200286865234" y="547.5974807739258" type="line"/>
    </contour>
  </outline>
</glyph>
<glyph name="quote" format="2">
  <advance width="361.8"/>
  <unicode hex="0027"/>
  <outline>
    <contour>
      <point x="89.1" y="750.9375" type="line"/>
      <point x="272.7" y="750.9375" type="line"/>
      <point x="272.7" y="1086.75" type="line"/>
      <point x="89.1" y="1086.75" type="line"/>
    </contour>
  </outline>
</glyph>
<glyph name="quotesingle" format="2">
  <advance width="397.79999999999995"/>
  <unicode hex="0027"/>
  <outline>
    <contour>
      <point x="90.9" y="783.0" type="line"/>
      <point x="306.9" y="783.0" type="line"/>
      <point x="306.9" y="1107.0" type="line"/>
      <point x="90.9" y="1107.0" type="line"/>
    </contour>
  </outline>
</glyph>
<glyph name="parenleft" format="2">
  <advance width="629.572061920166"/>
  <unicode hex="0028"/>
  <outline>
    <contour>
      <point x="601.672061920166" y="-216.0" type="line"/>
      <point x="250.64264698029507" y="246.98580069712582"/>
      <point x="250.64264698029507" y="887.0141993028748"/>
      <point x="601.6720590591153" y="1350.0000000000002" type="curve"/>
      <point x="340.87399749755855" y="1350.0" type="line"/>
      <point x="49.57540740968634" y="869.3031164026007"/>
      <point x="49.57533416749891" y="264.6970985329315"/>
      <point x="340.87377777099607" y="-216.0" type="curve"/>
    </contour>
  </outline>
</glyph>
<glyph name="parenright" format="2">
  <advance width="629.572061920166"/>
  <unicode hex="0029"/>
  <outline>
    <contour>
      <point x="27.9" y="-216.0" type="curve"/>
      <point x="288.69828" y="-216.0" type="line"/>
      <point x="579.99673" y="264.6971"/>
      <point x="579.99665" y="869.30312"/>
      <point x="288.69806" y="1350.0" type="curve"/>
      <point x="27.9" y="1350.0" type="line"/>
      <point x="378.92941" y="887.0142"/>
      <point x="378.92941" y="246.9858"/>
    </contour>
  </outline>
</glyph>
<glyph name="asterisk" format="2">
  <advance width="832.8414186791564"/>
  <unicode hex="002A"/>
  <outline>
    <contour>
      <point x="684.1745910644531" y="462.4858627319336" type="line"/>
      <point x="777.0287399291992" y="623.3139724731445" type="line"/>
      <point x="593.8768997192383" y="724.2923812866211" type="line"/>
      <point x="777.0287399291992" y="825.2707824707031" type="line"/>
      <point x="684.1745910644531" y="986.0988922119141" type="line"/>
      <point x="505.1488037109375" y="877.9739456176758" type="line"/>
      <point x="509.2748565673828" y="1087.077293395996" type="line"/>
      <point x="323.5665588378906" y="1087.077293395996" type="line"/>
      <point x="327.69261932373047" y="877.9739456176758" type="line"/>
      <point x="148.66683197021484" y="986.0988922119141" type="line"/>
      <point x="55.81268310546875" y="825.2707824707031" type="line"/>
      <point x="238.96451568603516" y="724.2923812866211" type="line"/>
      <point x="55.81268310546875" y="623.3139724731445" type="line"/>
      <point x="148.66683197021484" y="462.4858627319336" type="line"/>
      <point x="327.69261932373047" y="570.6108093261719" type="line"/>
      <point x="323.5665588378906" y="361.50746154785156" type="line"/>
      <point x="509.2748565673828" y="361.50746154785156" type="line"/>
      <point x="505.1488037109375" y="570.6108093261719" type="line"/>
    </contour>
  </outline>
</glyph>
<glyph name="plus" format="2">
  <advance width="991.8"/>
  <unicode hex="002B"/>
  <outline>
    <contour>
      <point x="90.9000015258789" y="387" type="line"/>
      <point x="387.9000015258789" y="387" type="line"/>
      <point x="387.9000015258789" y="90" type="line"/>
      <point x="603.9000015258789" y="90" type="line"/>
      <point x="603.9000015258789" y="387" type="line"/>
      <point x="900.9000015258789" y="387" type="line"/>
      <point x="900.9000015258789" y="603" type="line"/>
      <point x="603.9000015258789" y="603" type="line"/>
      <point x="603.9000015258789" y="900" type="line"/>
      <point x="387.9000015258789" y="900" type="line"/>
      <point x="387.9000015258789" y="603" type="line"/>
      <point x="90.9000015258789" y="603" type="line"/>
    </contour>
  </outline>
</glyph>
<glyph name="comma" format="2">
  <advance width="434.94239736948214"/>
  <unicode hex="002C"/>
  <outline>
    <contour>
      <point x="246.46148681640625" y="-243" type="line"/>
      <point x="298.5958762620475" y="-152.70058935317533"/>
      <point x="326.04239736948216" y="-50.2687780892175"/>
      <point x="326.04239736948216" y="54.0" type="curve"/>
      <point x="326.04239654541016" y="216" type="line"/>
      <point x="110.04239654541016" y="216" type="line"/>
      <point x="110.04239654541016" y="54" type="line"/>
      <point x="110.04239736948219" y="-12.352858784047497"/>
      <point x="92.57642939202375" y="-77.53673867929339"/>
      <point x="59.400000000000006" y="-134.99999999999997" type="curve"/>
    </contour>
  </outline>
</glyph>
<glyph name="hyphen" format="2">
  <advance width="829.8"/>
  <unicode hex="002D"/>
  <outline>
    <contour>
      <point x="90.9" y="387.0" type="line"/>
      <point x="738.9" y="387.0" type="line"/>
      <point x="738.9" y="603.0" type="line"/>
      <point x="90.9" y="603.0" type="line"/>
    </contour>
  </outline>
</glyph>
<glyph name="period" format="2">
  <advance width="454.0704517198508"/>
  <unicode hex="002E"/>
  <outline>
    <contour>
      <point x="384.8305" y="139.98416" type="curve" smooth="yes"/>
      <point x="384.8305" y="227.07375"/>
      <point x="314.12481" y="297.77944"/>
      <point x="227.03523" y="297.77944" type="curve" smooth="yes"/>
      <point x="139.94564" y="297.77944"/>
      <point x="69.23995" y="227.07375"/>
      <point x="69.23995" y="139.98416" type="curve" smooth="yes"/>
      <point x="69.23995" y="52.89458"/>
      <point x="139.94564" y="-17.81111"/>
      <point x="227.03523" y="-17.81111" type="curve" smooth="yes"/>
      <point x="314.12481" y="-17.81111"/>
      <point x="384.8305" y="52.89458"/>
    </contour>
  </outline>
</glyph>
<glyph name="slash" format="2">
  <advance width="883.4902059271391"/>
  <unicode hex="002F"/>
  <outline>
    <contour>
      <point x="89.1" y="-54.0" type="line"/>
      <point x="318.9624" y="-54.0" type="line"/>
      <point x="834.89021" y="1363.5" type="line"/>
      <point x="605.02781" y="1363.5" type="line"/>
    </contour>
  </outline>
</glyph>
<glyph name="zero" format="2">
  <advance width="924.3"/>
  <unicode hex="0030"/>
  <outline>
    <contour>
      <point x="630.9000015258789" y="369.75" type="line"/>
      <point x="630.9" y="276.61434"/>
      <point x="555.28566" y="201.0"/>
      <point x="462.15" y="201.0" type="curve" smooth="yes"/>
      <point x="369.01434" y="201.0"/>
      <point x="293.4" y="276.61434"/>
      <point x="293.4" y="369.75" type="curve"/>
      <point x="293.4000015258789" y="710.25" type="line"/>
      <point x="293.4" y="803.38566"/>
      <point x="369.01434" y="879.0"/>
      <point x="462.15" y="879.0" type="curve" smooth="yes"/>
      <point x="555.28566" y="879.0"/>
      <point x="630.9" y="803.38566"/>
      <point x="630.9" y="710.25" type="curve"/>
    </contour>
    <contour>
      <point x="77.4000015258789" y="369.75" type="line"/>
      <point x="77.4" y="157.4007"/>
      <point x="249.8007" y="-15.0"/>
      <point x="462.15" y="-15.0" type="curve" smooth="yes"/>
      <point x="674.4993" y="-15.0"/>
      <point x="846.9" y="157.4007"/>
      <point x="846.9" y="369.75" type="curve"/>
      <point x="846.9000015258789" y="710.25" type="line"/>
      <point x="846.9" y="922.5993"/>
      <point x="674.4993" y="1095.0"/>
      <point x="462.15" y="1095.0" type="curve" smooth="yes"/>
      <point x="249.8007" y="1095.0"/>
      <point x="77.4" y="922.5993"/>
      <point x="77.4" y="710.25" type="curve"/>
    </contour>
  </outline>
</glyph>
<glyph name="one" format="2">
  <advance width="732.5619560712806"/>
  <unicode hex="0031"/>
  <outline>
    <contour>
      <point x="312.8702926635742" y="0" type="line"/>
      <point x="533.5250701904297" y="0" type="line"/>
      <point x="533.5250701904297" y="1087.077293395996" type="line"/>
      <point x="312.8702926635742" y="1087.077293395996" type="line"/>
      <point x="113.99751281738281" y="986.5976409912109" type="line"/>
      <point x="113.99751281738281" y="749.2899169921875" type="line"/>
      <point x="312.8702926635742" y="849.7695693969727" type="line"/>
    </contour>
  </outline>
</glyph>
<glyph name="two" format="2">
  <advance width="910.8"/>
  <unicode hex="0032"/>
  <outline>
    <contour>
      <point x="104.4000015258789" y="0" type="line"/>
      <point x="828.9000015258789" y="0" type="line"/>
      <point x="828.9000015258789" y="216" type="line"/>
      <point x="436.064208984375" y="216" type="line"/>
      <point x="684.2536045691953" y="429.0003290795143" type="line"/>
      <point x="722.2007468658516" y="461.5672072000285"/>
      <point x="828.9" y="558.3528747932144"/>
      <point x="828.9" y="723.75" type="curve"/>
      <point x="828.9" y="928.6484500000001"/>
      <point x="662.5484500000001" y="1095.0"/>
      <point x="457.65" y="1095.0" type="curve" smooth="yes"/>
      <point x="252.75155" y="1095.0"/>
      <point x="86.4" y="928.64845"/>
      <point x="86.4" y="723.75" type="curve"/>
      <point x="302.4000015258789" y="723.75" type="line"/>
      <point x="302.4" y="809.43481"/>
      <point x="371.96519" y="879.0"/>
      <point x="457.65" y="879.0" type="curve" smooth="yes"/>
      <point x="543.33481" y="879.0"/>
      <point x="612.9" y="809.43481"/>
      <point x="612.9" y="723.75" type="curve"/>
      <point x="612.9" y="654.2579570288215"/>
      <point x="567.245074848462" y="613.2214621495523"/>
      <point x="544.0009905160055" y="593.272996243703" type="curve"/>
      <point x="104.4000015258789" y="216" type="line"/>
    </contour>
  </outline>
</glyph>
<glyph name="three" format="2">
  <advance width="916.2"/>
  <unicode hex="0033"/>
  <outline>
    <contour>
      <point x="75.5999984741211" y="324.4683074951172" type="line"/>
      <point x="75.6" y="134.45179"/>
      <point x="245.76726" y="-17.66667"/>
      <point x="460.35" y="-17.66667" type="curve" smooth="yes"/>
      <point x="674.93274" y="-17.66667"/>
      <point x="845.1" y="134.45179"/>
      <point x="845.1" y="324.46831" type="curve"/>
      <point x="845.1" y="417.33337855813"/>
      <point x="804.4558535544485" y="501.1465583244605"/>
      <point x="737.8467788696289" y="562.5642318725586" type="curve"/>
      <point x="793.6171451994772" y="619.8785434793498"/>
      <point x="827.1" y="694.9476007605999"/>
      <point x="827.1" y="777.50998" type="curve"/>
      <point x="827.1" y="959.08468"/>
      <point x="665.15455" y="1104.41667"/>
      <point x="460.35" y="1104.41667" type="curve" smooth="yes"/>
      <point x="255.54545" y="1104.41667"/>
      <point x="93.6" y="959.08468"/>
      <point x="93.6" y="777.50998" type="curve"/>
      <point x="309.5999984741211" y="777.5099792480469" type="line"/>
      <point x="309.6" y="838.62149"/>
      <point x="377.01339" y="888.41667"/>
      <point x="460.35" y="888.41667" type="curve" smooth="yes"/>
      <point x="543.68661" y="888.41667"/>
      <point x="611.1" y="838.62149"/>
      <point x="611.1" y="777.50998" type="curve"/>
      <point x="611.1" y="727.459807594895"/>
      <point x="567.085080678766" y="666.6032932186911"/>
      <point x="440.35" y="666.6032893968822" type="curve"/>
      <point x="352.3499984741211" y="666.6032867431641" type="line"/>
      <point x="352.3499984741211" y="450.60328674316406" type="line"/>
      <point x="440.3499984741211" y="450.60328674316406" type="line"/>
      <point x="577.7271346623602" y="450.60328674316406"/>
      <point x="629.1" y="382.1526839855128"/>
      <point x="629.1" y="324.46831" type="curve"/>
      <point x="629.1" y="254.95995999999997"/>
      <point x="553.66732" y="198.33333"/>
      <point x="460.35" y="198.33333" type="curve" smooth="yes"/>
      <point x="367.03268" y="198.33333"/>
      <point x="291.6" y="254.95996"/>
      <point x="291.6" y="324.46831" type="curve"/>
    </contour>
  </outline>
</glyph>
<glyph name="four" format="2">
  <advance width="1000.8"/>
  <unicode hex="0034"/>
  <outline>
    <contour>
      <point x="340.2831726074219" y="385.7142868041992" type="line"/>
      <point x="579.4714279174805" y="713.535758972168" type="line"/>
      <point x="579.4714279174805" y="385.7142868041992" type="line"/>
    </contour>
    <contour>
      <point x="72.9000015258789" y="169.71428680419922" type="line"/>
      <point x="579.4714279174805" y="169.71428680419922" type="line"/>
      <point x="579.4714279174805" y="0" type="line"/>
      <point x="795.4714279174805" y="0" type="line"/>
      <point x="795.4714279174805" y="169.71428680419922" type="line"/>
      <point x="954.9000015258789" y="169.71428680419922" type="line"/>
      <point x="954.9000015258789" y="385.7142868041992" type="line"/>
      <point x="795.4714279174805" y="385.7142868041992" type="line"/>
      <point x="795.4714279174805" y="1080" type="line"/>
      <point x="579.4714279174805" y="1080" type="line"/>
      <point x="72.9000015258789" y="385.7142868041992" type="line"/>
    </contour>
  </outline>
</glyph>
<glyph name="five" format="2">
  <advance width="924.4539527893066"/>
  <unicode hex="0035"/>
  <outline>
    <contour>
      <point x="847.0539527893068" y="369.74999999999994" type="curve" smooth="yes"/>
      <point x="847.0539527893068" y="582.099303945"/>
      <point x="674.6532567343068" y="754.5"/>
      <point x="462.3039527893068" y="754.5" type="curve" smooth="yes"/>
      <point x="418.68175235885235" y="754.5"/>
      <point x="376.74538707573964" y="747.2246738200242"/>
      <point x="337.70275115966797" y="733.8155899047852" type="curve"/>
      <point x="351.3856887817383" y="864" type="line"/>
      <point x="790.3364639282227" y="864" type="line"/>
      <point x="790.3364639282227" y="1080" type="line"/>
      <point x="156.89840698242188" y="1080" type="line"/>
      <point x="90.9000015258789" y="452.06707763671875" type="line"/>
      <point x="314.99849700927734" y="452.06707763671875" type="line"/>
      <point x="343.89353756227246" y="503.63221948977997"/>
      <point x="399.05897235737535" y="538.5"/>
      <point x="462.3039527893067" y="538.5" type="curve" smooth="yes"/>
      <point x="555.4396124143068" y="538.5"/>
      <point x="631.0539527893068" y="462.885659625"/>
      <point x="631.0539527893068" y="369.74999999999994" type="curve" smooth="yes"/>
      <point x="631.0539527893068" y="276.6143403749999"/>
      <point x="555.4396124143066" y="201.0"/>
      <point x="462.30395278930666" y="201.0" type="curve" smooth="yes"/>
      <point x="399.0620458341429" y="201.0"/>
      <point x="343.8988992616338" y="235.8643916971102"/>
      <point x="315.00278778076176" y="287.4329246520996" type="curve"/>
      <point x="86.4000015258789" y="287.43292236328125" type="line"/>
      <point x="124.14335813470817" y="114.5713795031945"/>
      <point x="278.21154602165984" y="-15.000000000000002"/>
      <point x="462.3039527893066" y="-15.000000000000078" type="curve" smooth="yes"/>
      <point x="674.6532567343065" y="-15.000000000000053"/>
      <point x="847.0539527893068" y="157.40069605499994"/>
    </contour>
  </outline>
</glyph>
<glyph name="six" format="2">
  <advance width="888.3"/>
  <unicode hex="0036"/>
  <outline>
    <contour>
      <point x="828.9" y="369.75" type="curve" smooth="yes"/>
      <point x="828.9" y="570.8316214434"/>
      <point x="674.3097446403913" y="736.0916698000384"/>
      <point x="477.5960235595703" y="753.059211730957" type="curve"/>
      <point x="674.0418701171875" y="1080" type="line"/>
      <point x="422.04905700683594" y="1080" type="line"/>
      <point x="114.3548812866211" y="567.9108963012695" type="line"/>
      <point x="114.35871124267578" y="567.9085998535156" type="line"/>
      <point x="79.47374237802518" y="510.0175768000064"/>
      <point x="59.39999999999998" y="442.2095269404"/>
      <point x="59.39999999999997" y="369.74999999999994" type="curve" smooth="yes"/>
      <point x="59.4" y="157.4007"/>
      <point x="231.8007" y="-15.0"/>
      <point x="444.15" y="-15.0" type="curve" smooth="yes"/>
      <point x="656.4993" y="-15.0"/>
      <point x="828.9" y="157.4007"/>
    </contour>
    <contour>
      <point x="612.9" y="369.75" type="curve" smooth="yes"/>
      <point x="612.9" y="276.61434"/>
      <point x="537.28566" y="201.0"/>
      <point x="444.15" y="201.0" type="curve" smooth="yes"/>
      <point x="351.01434" y="201.0"/>
      <point x="275.4" y="276.61434"/>
      <point x="275.4" y="369.75" type="curve" smooth="yes"/>
      <point x="275.4" y="462.88566"/>
      <point x="351.01434" y="538.5"/>
      <point x="444.15" y="538.5" type="curve" smooth="yes"/>
      <point x="537.28566" y="538.5"/>
      <point x="612.9" y="462.88566"/>
    </contour>
  </outline>
</glyph>
<glyph name="seven" format="2">
  <advance width="846.9921259842519"/>
  <unicode hex="0037"/>
  <outline>
    <contour>
      <point x="92.01409149169922" y="0" type="line"/>
      <point x="349.91223907470703" y="0" type="line"/>
      <point x="791.179443359375" y="874.192512512207" type="line"/>
      <point x="791.179443359375" y="1087.077293395996" type="line"/>
      <point x="60.28843688964844" y="1087.077293395996" type="line"/>
      <point x="60.28843688964844" y="871.930778503418" type="line"/>
      <point x="542.2104339599609" y="871.930778503418" type="line"/>
    </contour>
  </outline>
</glyph>
<glyph name="eight" format="2">
  <advance width="928.8"/>
  <unicode hex="0038"/>
  <outline>
    <contour>
      <point x="855.9" y="327.675" type="curve" smooth="yes"/>
      <point x="855.9" y="421.87401858224"/>
      <point x="813.7571280575587" y="506.6600909980082"/>
      <point x="744.6976852416992" y="568.3241271972656" type="curve"/>
      <point x="797.4750476123502" y="623.8774560466211"/>
      <point x="828.9000000000001" y="695.74159247382"/>
      <point x="828.9000000000001" y="774.675" type="curve" smooth="yes"/>
      <point x="828.9" y="952.84701"/>
      <point x="668.78505" y="1095.0"/>
      <point x="464.4" y="1095.0" type="curve" smooth="yes"/>
      <point x="260.01495" y="1095.0"/>
      <point x="99.9" y="952.84701"/>
      <point x="99.9" y="774.675" type="curve" smooth="yes"/>
      <point x="99.9" y="695.7446213979899"/>
      <point x="131.3225406845558" y="623.8829713648477"/>
      <point x="184.09629821777344" y="568.3193130493164" type="curve"/>
      <point x="115.04031375397744" y="506.6549441629806"/>
      <point x="72.89999999999998" y="421.87115946884006"/>
      <point x="72.89999999999995" y="327.67500000000007" type="curve" smooth="yes"/>
      <point x="72.9" y="137.06744"/>
      <point x="245.44867" y="-15.0"/>
      <point x="464.4" y="-15.0" type="curve" smooth="yes"/>
      <point x="683.35133" y="-15.0"/>
      <point x="855.9" y="137.06744"/>
    </contour>
    <contour>
      <point x="612.9" y="774.675" type="curve" smooth="yes"/>
      <point x="612.9" y="717.20369"/>
      <point x="546.5122" y="670.35"/>
      <point x="464.4" y="670.35" type="curve" smooth="yes"/>
      <point x="382.2878" y="670.35"/>
      <point x="315.9" y="717.20369"/>
      <point x="315.9" y="774.675" type="curve" smooth="yes"/>
      <point x="315.9" y="832.14631"/>
      <point x="382.2878" y="879.0"/>
      <point x="464.4" y="879.0" type="curve" smooth="yes"/>
      <point x="546.5122" y="879.0"/>
      <point x="612.9" y="832.14631"/>
    </contour>
    <contour>
      <point x="639.9" y="327.675" type="curve" smooth="yes"/>
      <point x="639.9" y="257.88144"/>
      <point x="561.3974" y="201.0"/>
      <point x="464.4" y="201.0" type="curve" smooth="yes"/>
      <point x="367.4026" y="201.0"/>
      <point x="288.9" y="257.88144"/>
      <point x="288.9" y="327.675" type="curve" smooth="yes"/>
      <point x="288.9" y="397.46856"/>
      <point x="367.4026" y="454.35"/>
      <point x="464.4" y="454.35" type="curve" smooth="yes"/>
      <point x="561.3974" y="454.35"/>
      <point x="639.9" y="397.46856"/>
    </contour>
  </outline>
</glyph>
<glyph name="nine" format="2">
  <advance width="915.343935512995"/>
  <unicode hex="0039"/>
  <outline>
    <contour>
      <point x="457.67197" y="528.2915" type="curve" smooth="yes"/>
      <point x="357.00578" y="528.2915"/>
      <point x="275.2776" y="610.01968"/>
      <point x="275.2776" y="710.68587" type="curve"/>
      <point x="275.2776" y="811.35206"/>
      <point x="357.00578" y="893.08024"/>
      <point x="457.67197" y="893.08024" type="curve" smooth="yes"/>
      <point x="558.33816" y="893.08024"/>
      <point x="640.06634" y="811.35206"/>
      <point x="640.06634" y="710.68587" type="curve"/>
      <point x="640.06634" y="610.01968"/>
      <point x="558.33816" y="528.2915"/>
    </contour>
    <contour>
      <point x="864.00701" y="710.68587" type="curve"/>
      <point x="864.00701" y="934.9482800000001"/>
      <point x="681.9343800000001" y="1104.8884"/>
      <point x="457.67197" y="1104.8884" type="curve" smooth="yes"/>
      <point x="233.40954999999988" y="1104.8884"/>
      <point x="51.33692000000001" y="934.9482800000001"/>
      <point x="51.33692" y="710.68587" type="curve"/>
      <point x="51.33692000000001" y="498.00947999999994"/>
      <point x="223.76220999999993" y="325.32996"/>
      <point x="436.13861" y="325.32996" type="curve" smooth="yes"/>
      <point x="438.88839768659005" y="325.32996"/>
      <point x="441.63085517676296" y="325.3588237176878"/>
      <point x="444.365478515625" y="325.42620849609375" type="curve"/>
      <point x="222.8213119506836" y="0" type="line"/>
      <point x="484.5393371582031" y="0" type="line"/>
      <point x="788.2431368299201" y="472.3330075135801" type="line" smooth="yes"/>
      <point x="823.0822319285079" y="526.5162432345525"/>
      <point x="864.00701" y="602.7274730500761"/>
    </contour>
  </outline>
</glyph>
<glyph name="colon" format="2">
  <advance width="435.6"/>
  <unicode hex="003A"/>
  <outline>
    <contour>
      <point x="358.20000000000005" y="684.6000000000001" type="curve" smooth="yes"/>
      <point x="358.20000000000005" y="762.088868808"/>
      <point x="295.288868808" y="825.0000000000001"/>
      <point x="217.8" y="825.0000000000001" type="curve" smooth="yes"/>
      <point x="140.311131192" y="825.0000000000001"/>
      <point x="77.4" y="762.088868808"/>
      <point x="77.4" y="684.6000000000001" type="curve" smooth="yes"/>
      <point x="77.4" y="607.1111311920001"/>
      <point x="140.31113119199998" y="544.2"/>
      <point x="217.79999999999998" y="544.2" type="curve" smooth="yes"/>
      <point x="295.288868808" y="544.2"/>
      <point x="358.20000000000005" y="607.111131192"/>
    </contour>
    <contour>
      <point x="358.20000000000005" y="125.4" type="curve" smooth="yes"/>
      <point x="358.20000000000005" y="202.88886880800004"/>
      <point x="295.288868808" y="265.80000000000007"/>
      <point x="217.8" y="265.80000000000007" type="curve" smooth="yes"/>
      <point x="140.311131192" y="265.80000000000007"/>
      <point x="77.4" y="202.88886880800004"/>
      <point x="77.4" y="125.4" type="curve" smooth="yes"/>
      <point x="77.4" y="47.91113119200001"/>
      <point x="140.31113119199998" y="-14.999999999999991"/>
      <point x="217.79999999999998" y="-14.999999999999991" type="curve" smooth="yes"/>
      <point x="295.288868808" y="-15.000000000000018"/>
      <point x="358.20000000000005" y="47.91113119199998"/>
    </contour>
  </outline>
</glyph>
<glyph name="semicolon" format="2">
  <advance width="443.09433966294273"/>
  <unicode hex="003B"/>
  <outline>
    <contour>
      <point x="367.49434" y="709.20417" type="curve" smooth="yes"/>
      <point x="367.49434" y="786.69304"/>
      <point x="304.58321" y="849.60417"/>
      <point x="227.09434" y="849.60417" type="curve" smooth="yes"/>
      <point x="149.60547" y="849.60417"/>
      <point x="86.69434" y="786.69304"/>
      <point x="86.69434" y="709.20417" type="curve" smooth="yes"/>
      <point x="86.69434" y="631.7153"/>
      <point x="149.60547" y="568.80417"/>
      <point x="227.09434" y="568.80417" type="curve" smooth="yes"/>
      <point x="304.58321" y="568.80417"/>
      <point x="367.49434" y="631.7153"/>
    </contour>
    <contour>
      <point x="244.66149139404297" y="-247.5" type="line"/>
      <point x="318.47782987516376" y="-119.64633568464254"/>
      <point x="335.09434134639565" y="4.01313310803063"/>
      <point x="335.0943396868369" y="110.0" type="curve"/>
      <point x="335.0943374633789" y="252" type="line"/>
      <point x="119.0943374633789" y="252" type="line"/>
      <point x="119.0943374633789" y="110.0" type="line"/>
      <point x="119.0943374633789" y="32.37036066800134"/>
      <point x="108.49000087750291" y="-51.355920170369245"/>
      <point x="57.6" y="-139.5" type="curve"/>
    </contour>
  </outline>
</glyph>
<glyph name="less" format="2">
  <advance width="1010.1375000000002"/>
  <unicode hex="003C"/>
  <outline>
    <contour>
      <point x="89.0999984741211" y="611.7804565429688" type="line"/>
      <point x="89.0999984741211" y="378.21954345703125" type="line"/>
      <point x="921.0374984741211" y="36" type="line"/>
      <point x="921.0374984741211" y="269.56092071533203" type="line"/>
      <point x="372.99390411376953" y="495" type="line"/>
      <point x="921.0374984741211" y="720.439079284668" type="line"/>
      <point x="921.0374984741211" y="954" type="line"/>
    </contour>
  </outline>
</glyph>
<glyph name="equal" format="2">
  <advance width="988.2"/>
  <unicode hex="003D"/>
  <outline>
    <contour>
      <point x="89.1" y="576.0" type="line"/>
      <point x="899.1" y="576.0" type="line"/>
      <point x="899.1" y="792.0" type="line"/>
      <point x="89.1" y="792.0" type="line"/>
    </contour>
    <contour>
      <point x="89.1" y="198.0" type="line"/>
      <point x="899.1" y="198.0" type="line"/>
      <point x="899.1" y="414.0" type="line"/>
      <point x="89.1" y="414.0" type="line"/>
    </contour>
  </outline>
</glyph>
<glyph name="greater" format="2">
  <advance width="894.2104809883963"/>
  <unicode hex="003E"/>
  <outline>
    <contour>
      <point x="82.66722106933594" y="32.896812438964844" type="line"/>
      <point x="811.5432586669922" y="387.56903076171875" type="line"/>
      <point x="811.5432586669922" y="602.9158477783203" type="line"/>
      <point x="82.66722106933594" y="957.5880584716797" type="line"/>
      <point x="82.66722106933594" y="719.5472412109375" type="line"/>
      <point x="550.4617080688477" y="495.24243927001953" type="line"/>
      <point x="82.66722106933594" y="270.93762969970703" type="line"/>
    </contour>
  </outline>
</glyph>
<glyph name="question" format="2">
  <advance width="829.8"/>
  <unicode hex="003F"/>
  <outline>
    <contour>
      <point x="306.9000015258789" y="337.8000030517578" type="line"/>
      <point x="522.9000015258789" y="337.8000030517578" type="line"/>
      <point x="522.9000015258789" y="409.9637908935547" type="line"/>
      <point x="663.8478132353778" y="455.55254163285093"/>
      <point x="765.8999999999999" y="587.9525285501056"/>
      <point x="765.9000000000001" y="744.0" type="curve"/>
      <point x="765.9" y="937.7221720199999"/>
      <point x="608.62217202" y="1095.0"/>
      <point x="414.9" y="1095.0" type="curve" smooth="yes"/>
      <point x="221.17782798000002" y="1095.0"/>
      <point x="63.9" y="937.7221720200001"/>
      <point x="63.9" y="744.0" type="curve"/>
      <point x="279.9000015258789" y="744" type="line"/>
      <point x="279.9" y="818.5085277000001"/>
      <point x="340.39147230000003" y="879.0"/>
      <point x="414.9" y="879.0" type="curve" smooth="yes"/>
      <point x="489.4085277" y="879.0"/>
      <point x="549.9" y="818.5085277"/>
      <point x="549.9" y="744.0" type="curve"/>
      <point x="549.9" y="669.4914723"/>
      <point x="489.4085277" y="609.0"/>
      <point x="414.9" y="609.0" type="curve"/>
      <point x="306.9000015258789" y="609" type="line"/>
    </contour>
    <contour>
      <point x="555.3000000000001" y="125.4" type="curve" smooth="yes"/>
      <point x="555.3000000000001" y="202.88886880800004"/>
      <point x="492.388868808" y="265.80000000000007"/>
      <point x="414.9" y="265.80000000000007" type="curve" smooth="yes"/>
      <point x="337.41113119199997" y="265.80000000000007"/>
      <point x="274.5" y="202.88886880800004"/>
      <point x="274.5" y="125.4" type="curve" smooth="yes"/>
      <point x="274.5" y="47.91113119200001"/>
      <point x="337.41113119199997" y="-14.999999999999991"/>
      <point x="414.9" y="-14.999999999999991" type="curve" smooth="yes"/>
      <point x="492.388868808" y="-15.000000000000018"/>
      <point x="555.3000000000001" y="47.91113119199998"/>
    </contour>
  </outline>
</glyph>
<glyph name="at" format="2">
  <advance width="1357.8000000000002"/>
  <unicode hex="0040"/>
  <outline>
    <contour>
      <point x="1160.1857142857143" y="480.00000000000006" type="curve" smooth="yes"/>
      <point x="1160.1857142857145" y="380.8681779077143"/>
      <point x="1124.3037092087145" y="300.38571428571436"/>
      <point x="1080.107142857143" y="300.38571428571436" type="curve"/>
      <point x="1046.7911868998572" y="300.38571428571436"/>
      <point x="1019.7428571428571" y="338.5049436557143"/>
      <point x="1019.7428571428571" y="385.4571428571429" type="curve"/>
      <point x="1019.7428588867188" y="806.7428588867188" type="line"/>
      <point x="834.5999984741211" y="806.7428588867188" type="line"/>
      <point x="834.5999984741211" y="781.6378784179688" type="line"/>
      <point x="786.2266023492591" y="807.2445752851879"/>
      <point x="731.0930686879403" y="821.742857142857"/>
      <point x="672.6" y="821.7428571428571" type="curve" smooth="yes"/>
      <point x="481.00664305714287" y="821.7428571428571"/>
      <point x="325.45714285714286" y="666.1933569428572"/>
      <point x="325.45714285714286" y="474.6" type="curve" smooth="yes"/>
      <point x="325.45714285714286" y="283.0066430571429"/>
      <point x="481.0066430571428" y="127.45714285714288"/>
      <point x="672.6" y="127.45714285714288" type="curve" smooth="yes"/>
      <point x="761.2763029540042" y="127.45714285714287"/>
      <point x="842.2313931767237" y="160.77851547987763"/>
      <point x="903.6166305541992" y="215.58524322509766" type="curve"/>
      <point x="948.2678916360719" y="169.5717725409577"/>
      <point x="1010.8585767087914" y="140.95714285714286"/>
      <point x="1080.107142857143" y="140.95714285714286" type="curve"/>
      <point x="1198.1026318830004" y="140.95714285714288"/>
      <point x="1293.9" y="292.8771547191429"/>
      <point x="1293.9" y="480.00000000000006" type="curve"/>
      <point x="1293.9" y="819.4277373000001"/>
      <point x="1018.3277373000001" y="1095.0"/>
      <point x="678.9" y="1095.0" type="curve" smooth="yes"/>
      <point x="339.47226270000004" y="1095.0"/>
      <point x="63.9" y="819.4277373000001"/>
      <point x="63.9" y="480.00000000000006" type="curve" smooth="yes"/>
      <point x="63.9" y="140.57226270000004"/>
      <point x="339.47226269999993" y="-135.0"/>
      <point x="678.9" y="-135.0" type="curve" smooth="yes"/>
      <point x="877.6067676869541" y="-135.00000000000006"/>
      <point x="1054.429430027656" y="-40.55778552725873"/>
      <point x="1166.891301727295" y="105.85714416503906" type="curve"/>
      <point x="981.5232009887695" y="105.85714721679688" type="line"/>
      <point x="898.8259617484731" y="38.865137459961986"/>
      <point x="793.5148490787763" y="-1.285714285714326"/>
      <point x="678.8999999999999" y="-1.2857142857143005" type="curve" smooth="yes"/>
      <point x="413.2711853742856" y="-1.2857142857143005"/>
      <point x="197.6142857142857" y="214.37118537428574"/>
      <point x="197.6142857142857" y="480.00000000000006" type="curve" smooth="yes"/>
      <point x="197.6142857142857" y="745.6288146257145"/>
      <point x="413.2711853742857" y="961.2857142857143"/>
      <point x="678.9" y="961.2857142857143" type="curve" smooth="yes"/>
      <point x="944.5288146257144" y="961.2857142857143"/>
      <point x="1160.1857142857143" y="745.6288146257144"/>
    </contour>
    <contour>
      <point x="834.6" y="474.6" type="curve" smooth="yes"/>
      <point x="834.6" y="385.18976676000005"/>
      <point x="762.01023324" y="312.59999999999997"/>
      <point x="672.6" y="312.6" type="curve" smooth="yes"/>
      <point x="583.18976676" y="312.6"/>
      <point x="510.6" y="385.18976676000005"/>
      <point x="510.6" y="474.6" type="curve" smooth="yes"/>
      <point x="510.6" y="564.01023324"/>
      <point x="583.18976676" y="636.6"/>
      <point x="672.6" y="636.6" type="curve" smooth="yes"/>
      <point x="762.01023324" y="636.6"/>
      <point x="834.6" y="564.01023324"/>
    </contour>
  </outline>
</glyph>
<glyph name="A" format="2">
  <advance width="1089.4499999999634"/>
  <unicode hex="0041"/>
  <anchor x="544.725" y="1194.75" name="above" identifier="above"/>
  <anchor x="544.725" y="-108.0" name="below" identifier="below"/>
  <anchor x="1081.35" y="0" name="ogonek" identifier="ogonek"/>
  <outline>
    <contour>
      <point x="8.099998474121094" y="0" type="line"/>
      <point x="239.72805786132812" y="0" type="line"/>
      <point x="316.3975524902344" y="198" type="line"/>
      <point x="773.0524444580078" y="198" type="line"/>
      <point x="849.7219390869141" y="0" type="line"/>
      <point x="1081.349998474121" y="0" type="line"/>
      <point x="660.5390319824219" y="1086.75" type="line"/>
      <point x="428.91097259521484" y="1086.75" type="line"/>
    </contour>
    <contour>
      <point x="400.03700256347656" y="414" type="line"/>
      <point x="544.7249984741211" y="787.6587066650391" type="line"/>
      <point x="689.4130020141602" y="414" type="line"/>
    </contour>
  </outline>
</glyph>
<glyph name="B" format="2">
  <advance width="978.3"/>
  <unicode hex="0042"/>
  <outline>
    <contour>
      <point x="90.9000015258789" y="0" type="line"/>
      <point x="603.9000015258789" y="0" type="line"/>
      <point x="782.72047" y="0.0"/>
      <point x="927.9" y="145.17953"/>
      <point x="927.9" y="324.0" type="curve" smooth="yes"/>
      <point x="927.9" y="418.2830928075"/>
      <point x="887.5411704327544" y="503.21425449949123"/>
      <point x="823.1718444824219" y="562.4314727783203" type="curve"/>
      <point x="863.5085446472444" y="616.4533484805933"/>
      <point x="887.3999999999999" y="683.4586152169801"/>
      <point x="887.3999999999999" y="756.0000000000001" type="curve" smooth="yes"/>
      <point x="887.4" y="934.82047"/>
      <point x="742.22047" y="1080.0"/>
      <point x="563.4" y="1080.0" type="curve"/>
      <point x="90.9000015258789" y="1080" type="line"/>
    </contour>
    <contour>
      <point x="563.4000015258789" y="864" type="line"/>
      <point x="623.00682" y="864.0"/>
      <point x="671.4" y="815.60682"/>
      <point x="671.4" y="756.0" type="curve" smooth="yes"/>
      <point x="671.4" y="696.39318"/>
      <point x="623.00682" y="648.0"/>
      <point x="563.4" y="648.0" type="curve"/>
      <point x="306.9000015258789" y="648" type="line"/>
      <point x="306.9000015258789" y="864" type="line"/>
    </contour>
    <contour>
      <point x="603.9000015258789" y="432" type="line"/>
      <point x="663.50682" y="432.0"/>
      <point x="711.9" y="383.60682"/>
      <point x="711.9" y="324.0" type="curve" smooth="yes"/>
      <point x="711.9" y="264.39318"/>
      <point x="663.50682" y="216.0"/>
      <point x="603.9" y="216.0" type="curve"/>
      <point x="306.9000015258789" y="216" type="line"/>
      <point x="306.9000015258789" y="432" type="line"/>
    </contour>
  </outline>
</glyph>
<glyph name="C" format="2">
  <advance width="1211.7390174865725"/>
  <unicode hex="0043"/>
  <outline>
    <contour>
      <point x="614.4000000000001" y="201.00000000000003" type="curve" smooth="yes"/>
      <point x="427.3008082199999" y="201.0"/>
      <point x="275.4" y="352.90080822000004"/>
      <point x="275.4" y="540.0" type="curve" smooth="yes"/>
      <point x="275.4" y="727.09919178"/>
      <point x="427.30080821999996" y="879.0"/>
      <point x="614.4" y="879.0" type="curve" smooth="yes"/>
      <point x="746.227471139503" y="879.0"/>
      <point x="860.5810063616542" y="803.5901453370539"/>
      <point x="916.6396865844727" y="693.5738273620606" type="curve"/>
      <point x="1147.838001251221" y="693.5738273620606" type="line"/>
      <point x="1081.1530685685073" y="925.2942593465208"/>
      <point x="867.4386013326518" y="1095.0"/>
      <point x="614.4" y="1095.0" type="curve" smooth="yes"/>
      <point x="308.0871639" y="1095.0"/>
      <point x="59.4" y="846.3128361"/>
      <point x="59.4" y="540.0" type="curve" smooth="yes"/>
      <point x="59.4" y="233.6871639"/>
      <point x="308.0871638999999" y="-15.000000000000002"/>
      <point x="614.3999999999999" y="-15.000000000000002" type="curve" smooth="yes"/>
      <point x="867.4401328968323" y="-15.000000000000085"/>
      <point x="1081.155655661851" y="154.707795012133"/>
      <point x="1147.8390174865724" y="386.4261749267578" type="curve"/>
      <point x="916.6466423034668" y="386.4261749267578" type="line"/>
      <point x="860.5904196684555" y="276.4160623673005"/>
      <point x="746.2328970160646" y="201.0"/>
    </contour>
  </outline>
</glyph>
<glyph name="D" format="2">
  <advance width="1095.3000000000002"/>
  <unicode hex="0044"/>
  <outline>
    <contour>
      <point x="90.9000015258789" y="0" type="line"/>
      <point x="455.9000015258789" y="0.0" type="line"/>
      <point x="871.1850569131809" y="0.0"/>
      <point x="1035.9" y="305.1846528073795"/>
      <point x="1035.9" y="540.0" type="curve" smooth="yes"/>
      <point x="1035.9" y="774.8153471926206"/>
      <point x="871.1850553873021" y="1080.0"/>
      <point x="455.9" y="1080.0" type="curve"/>
      <point x="90.9000015258789" y="1080" type="line"/>
    </contour>
    <contour>
      <point x="455.9000015258789" y="864.0" type="line"/>
      <point x="738.7497188195181" y="864.0"/>
      <point x="819.9" y="670.2201118901007"/>
      <point x="819.9" y="540.0" type="curve" smooth="yes"/>
      <point x="819.9" y="409.7798881098992"/>
      <point x="738.7497172936392" y="216.0"/>
      <point x="455.9" y="216.0" type="curve"/>
      <point x="306.9000015258789" y="216" type="line"/>
      <point x="306.9000015258789" y="864" type="line"/>
    </contour>
  </outline>
</glyph>
<glyph name="E" format="2">
  <advance width="934.2"/>
  <unicode hex="0045"/>
  <anchor x="473.85" y="1194.75" name="above" identifier="above"/>
  <anchor x="473.85" y="-108.0" name="below" identifier="below"/>
  <anchor x="473.85" y="0" name="cedilla" identifier="cedilla"/>
  <anchor x="858.6" y="0" name="ogonek" identifier="ogonek"/>
  <outline>
    <contour>
      <point x="89.0999984741211" y="0" type="line"/>
      <point x="858.5999984741211" y="0" type="line"/>
      <point x="858.5999984741211" y="216" type="line"/>
      <point x="305.0999984741211" y="216" type="line"/>
      <point x="305.0999984741211" y="435.375" type="line"/>
      <point x="827.0999984741211" y="435.375" type="line"/>
      <point x="827.0999984741211" y="651.375" type="line"/>
      <point x="305.0999984741211" y="651.375" type="line"/>
      <point x="305.0999984741211" y="870.75" type="line"/>
      <point x="854.0999984741211" y="870.75" type="line"/>
      <point x="854.0999984741211" y="1086.75" type="line"/>
      <point x="89.0999984741211" y="1086.75" type="line"/>
    </contour>
  </outline>
</glyph>
<glyph name="F" format="2">
  <advance width="920.7"/>
  <unicode hex="0046"/>
  <anchor x="473.85" y="1194.75" name="above" identifier="above"/>
  <anchor x="89.10000000000001" y="0" name="hookleft" identifier="hookleft"/>
  <outline>
    <contour>
      <point x="89.0999984741211" y="0" type="line"/>
      <point x="305.0999984741211" y="0" type="line"/>
      <point x="305.0999984741211" y="399.375" type="line"/>
      <point x="777.5999984741211" y="399.375" type="line"/>
      <point x="777.5999984741211" y="615.375" type="line"/>
      <point x="305.0999984741211" y="615.375" type="line"/>
      <point x="305.0999984741211" y="870.75" type="line"/>
      <point x="858.5999984741211" y="870.75" type="line"/>
      <point x="858.5999984741211" y="1086.75" type="line"/>
      <point x="89.0999984741211" y="1086.75" type="line"/>
    </contour>
  </outline>
</glyph>
<glyph name="G" format="2">
  <advance width="1228.8000000000002"/>
  <unicode hex="0047"/>
  <outline>
    <contour>
      <point x="614.4000015258789" y="391.5" type="line"/>
      <point x="919.1695404052734" y="391.5" type="line"/>
      <point x="864.0728419804813" y="278.7328395970189"/>
      <point x="748.2425294349737" y="200.99999999999994"/>
      <point x="614.4000000000001" y="201.0" type="curve" smooth="yes"/>
      <point x="427.3008082199999" y="201.0"/>
      <point x="275.4" y="352.90080822000004"/>
      <point x="275.4" y="540.0" type="curve" smooth="yes"/>
      <point x="275.4" y="727.09919178"/>
      <point x="427.30080821999996" y="879.0"/>
      <point x="614.4" y="879.0" type="curve" smooth="yes"/>
      <point x="719.4436605386207" y="879.0"/>
      <point x="813.3925437156535" y="831.1197998944084"/>
      <point x="875.5941673278809" y="755.9999977111817" type="curve"/>
      <point x="1125.7280197143555" y="756" type="line"/>
      <point x="1041.4106134091257" y="955.1448031341646"/>
      <point x="844.1088967967677" y="1095.0"/>
      <point x="614.3999999999999" y="1095.0" type="curve" smooth="yes"/>
      <point x="308.0871639" y="1095.0"/>
      <point x="59.4" y="846.3128361"/>
      <point x="59.4" y="540.0" type="curve" smooth="yes"/>
      <point x="59.4" y="233.6871639"/>
      <point x="308.0871638999999" y="-15.000000000000002"/>
      <point x="614.3999999999999" y="-15.000000000000002" type="curve" smooth="yes"/>
      <point x="920.7128360999998" y="-15.000000000000103"/>
      <point x="1169.3999999999999" y="233.68716389999983"/>
      <point x="1169.4" y="540.0" type="curve" smooth="yes"/>
      <point x="1169.4" y="562.8616585223235"/>
      <point x="1168.0147171939386" y="585.4023199668948"/>
      <point x="1165.323593902588" y="607.4999977111817" type="curve"/>
      <point x="614.4000015258789" y="607.5" type="line"/>
    </contour>
  </outline>
</glyph>
<glyph name="H" format="2">
  <advance width="1045.8"/>
  <unicode hex="0048"/>
  <anchor x="522.9" y="1188.0" name="above" identifier="above"/>
  <anchor x="522.9" y="-108.0" name="below" identifier="below"/>
  <anchor x="198.9" y="0" name="cedilla" identifier="cedilla"/>
  <anchor x="522.9" y="864.0" name="stroke" identifier="stroke"/>
  <outline>
    <contour>
      <point x="90.9000015258789" y="0" type="line"/>
      <point x="306.9000015258789" y="0" type="line"/>
      <point x="306.9000015258789" y="432" type="line"/>
      <point x="738.9000015258789" y="432" type="line"/>
      <point x="738.9000015258789" y="0" type="line"/>
      <point x="954.9000015258789" y="0" type="line"/>
      <point x="954.9000015258789" y="1080" type="line"/>
      <point x="738.9000015258789" y="1080" type="line"/>
      <point x="738.9000015258789" y="648" type="line"/>
      <point x="306.9000015258789" y="648" type="line"/>
      <point x="306.9000015258789" y="1080" type="line"/>
      <point x="90.9000015258789" y="1080" type="line"/>
    </contour>
  </outline>
</glyph>
<glyph name="I" format="2">
  <advance width="397.79999999999995"/>
  <unicode hex="0049"/>
  <anchor x="198.9" y="1188.0" name="above" identifier="above"/>
  <anchor x="198.9" y="-108.0" name="below" identifier="below"/>
  <anchor x="306.9" y="0" name="ogonek" identifier="ogonek"/>
  <anchor x="198.9" y="540.0" name="stroke" identifier="stroke"/>
  <outline>
    <contour>
      <point x="90.9" y="0.0" type="line"/>
      <point x="306.9" y="0.0" type="line"/>
      <point x="306.9" y="1080.0" type="line"/>
      <point x="90.9" y="1080.0" type="line"/>
    </contour>
  </outline>
</glyph>
<glyph name="J" format="2">
  <advance width="883.8"/>
  <unicode hex="004A"/>
  <outline>
    <contour>
      <point x="50.400001525878906" y="378" type="line"/>
      <point x="50.4" y="169.3761199999999"/>
      <point x="219.7761199999999" y="2.554905668677016e-14"/>
      <point x="428.4" y="0.0" type="curve" smooth="yes"/>
      <point x="585.1342768401566" y="0.0"/>
      <point x="806.3999994007365" y="102.30126472624772"/>
      <point x="806.4000000869446" y="418.0" type="curve"/>
      <point x="806.4000015258789" y="1080" type="line"/>
      <point x="590.4000015258789" y="1080" type="line"/>
      <point x="590.4000015258789" y="418.0" type="line"/>
      <point x="590.4000015258789" y="239.3009998782865"/>
      <point x="485.3392312314387" y="216.0"/>
      <point x="428.4" y="216.0" type="curve" smooth="yes"/>
      <point x="338.98976999999996" y="216.0"/>
      <point x="266.4" y="288.58976999999993"/>
      <point x="266.4" y="378.0" type="curve"/>
    </contour>
  </outline>
</glyph>
<glyph name="K" format="2">
  <advance width="988.1999999999588"/>
  <unicode hex="004B"/>
  <anchor x="495.1" y="1194.75" name="above" identifier="above"/>
  <anchor x="495.1" y="-108.0" name="below" identifier="below"/>
  <outline>
    <contour>
      <point x="89.0999984741211" y="0" type="line"/>
      <point x="305.0999984741211" y="0" type="line"/>
      <point x="305.0999984741211" y="437.17501068115234" type="line"/>
      <point x="712.0129928588867" y="0" type="line"/>
      <point x="1007.0999984741211" y="0" type="line"/>
      <point x="499.66294860839844" y="545.1750030517578" type="line"/>
      <point x="1003.7491989135742" y="1086.75" type="line"/>
      <point x="708.6621932983398" y="1086.75" type="line"/>
      <point x="305.0999984741211" y="653.1749954223633" type="line"/>
      <point x="305.0999984741211" y="1086.75" type="line"/>
      <point x="89.0999984741211" y="1086.75" type="line"/>
    </contour>
  </outline>
</glyph>
<glyph name="L" format="2">
  <advance width="866.7"/>
  <unicode hex="004C"/>
  <anchor x="197.10000000000002" y="1194.75" name="above" identifier="above"/>
  <anchor x="460.35" y="-108.0" name="below" identifier="below"/>
  <anchor x="413.1" y="1086.75" name="caron" identifier="caron"/>
  <anchor x="89.10000000000001" y="543.375" name="stroke" identifier="stroke"/>
  <anchor x="460.35" y="543.375" name="dotmiddle" identifier="dotmiddle"/>
  <outline>
    <contour>
      <point x="89.0999984741211" y="0" type="line"/>
      <point x="831.5999984741211" y="0" type="line"/>
      <point x="831.5999984741211" y="216" type="line"/>
      <point x="305.0999984741211" y="216" type="line"/>
      <point x="305.0999984741211" y="1086.75" type="line"/>
      <point x="89.0999984741211" y="1086.75" type="line"/>
    </contour>
  </outline>
</glyph>
<glyph name="M" format="2">
  <advance width="1228.9499999999998"/>
  <unicode hex="004D"/>
  <anchor x="614.475" y="1194.75" name="above" identifier="above"/>
  <anchor x="614.475" y="-108.0" name="below" identifier="below"/>
  <outline>
    <contour>
      <point x="89.0999984741211" y="0" type="line"/>
      <point x="305.0999984741211" y="0" type="line"/>
      <point x="305.0999984741211" y="660.3589096069336" type="line"/>
      <point x="513.6750030517578" y="248.625" type="line"/>
      <point x="715.2750015258789" y="248.625" type="line"/>
      <point x="923.8499984741211" y="660.3589019775391" type="line"/>
      <point x="923.8499984741211" y="0" type="line"/>
      <point x="1139.849998474121" y="0" type="line"/>
      <point x="1139.849998474121" y="1086.75" type="line"/>
      <point x="897.7159805297852" y="1086.75" type="line"/>
      <point x="614.4749984741211" y="527.6229934692383" type="line"/>
      <point x="331.23401641845703" y="1086.75" type="line"/>
      <point x="89.0999984741211" y="1086.75" type="line"/>
    </contour>
  </outline>
</glyph>
<glyph name="N" format="2">
  <advance width="1105.2"/>
  <unicode hex="004E"/>
  <anchor x="552.6" y="1194.75" name="above" identifier="above"/>
  <anchor x="552.6" y="-108.0" name="below" identifier="below"/>
  <anchor x="89.10000000000001" y="0" name="hookleft" identifier="hookleft"/>
  <outline>
    <contour>
      <point x="89.0999984741211" y="0" type="line"/>
      <point x="305.0999984741211" y="0" type="line"/>
      <point x="305.0999984741211" y="709.3140182495117" type="line"/>
      <point x="800.0999984741211" y="0" type="line"/>
      <point x="1016.0999984741211" y="0" type="line"/>
      <point x="1016.0999984741211" y="1086.75" type="line"/>
      <point x="800.0999984741211" y="1086.75" type="line"/>
      <point x="800.0999984741211" y="377.4359817504883" type="line"/>
      <point x="305.0999984741211" y="1086.75" type="line"/>
      <point x="89.0999984741211" y="1086.75" type="line"/>
    </contour>
  </outline>
</glyph>
<glyph name="O" format="2">
  <advance width="1237.2833333333333"/>
  <unicode hex="004F"/>
  <anchor x="618.6416666666668" y="1194.75" name="above" identifier="above"/>
  <anchor x="618.6416666666668" y="-108.0" name="below" identifier="below"/>
  <anchor x="618.6416666666668" y="0" name="ogonek" identifier="ogonek"/>
  <anchor x="618.6416666666668" y="543.375" name="stroke" identifier="stroke"/>
  <anchor x="618.6416666666668" y="1104.4166666666667" name="horn" identifier="horn"/>
  <outline>
    <contour>
      <point x="1179.68333" y="543.375" type="curve" smooth="yes"/>
      <point x="1179.68333" y="853.02232"/>
      <point x="928.28899" y="1104.41667"/>
      <point x="618.64167" y="1104.41667" type="curve" smooth="yes"/>
      <point x="308.99434" y="1104.41667"/>
      <point x="57.6" y="853.02232"/>
      <point x="57.6" y="543.375" type="curve" smooth="yes"/>
      <point x="57.6" y="233.72768"/>
      <point x="308.99434" y="-17.66667"/>
      <point x="618.64167" y="-17.66667" type="curve" smooth="yes"/>
      <point x="928.28899" y="-17.66667"/>
      <point x="1179.68333" y="233.72768"/>
    </contour>
    <contour>
      <point x="963.68333" y="543.375" type="curve" smooth="yes"/>
      <point x="963.68333" y="352.94132"/>
      <point x="809.07535" y="198.33333"/>
      <point x="618.64167" y="198.33333" type="curve" smooth="yes"/>
      <point x="428.20799" y="198.33333"/>
      <point x="273.6" y="352.94132"/>
      <point x="273.6" y="543.375" type="curve" smooth="yes"/>
      <point x="273.6" y="733.80868"/>
      <point x="428.20799" y="888.41667"/>
      <point x="618.64167" y="888.41667" type="curve" smooth="yes"/>
      <point x="809.07535" y="888.41667"/>
      <point x="963.68333" y="733.80868"/>
    </contour>
  </outline>
</glyph>
<glyph name="P" format="2">
  <advance width="978.3"/>
  <unicode hex="0050"/>
  <outline>
    <contour>
      <point x="90.9000015258789" y="0" type="line"/>
      <point x="306.9000015258789" y="0" type="line"/>
      <point x="306.9000015258789" y="347.14286041259766" type="line"/>
      <point x="547.9714279174805" y="347.14286041259766" type="line"/>
      <point x="750.2088609000001" y="347.14285714285717"/>
      <point x="914.4" y="511.33399624285715"/>
      <point x="914.4" y="713.5714285714287" type="curve" smooth="yes"/>
      <point x="914.4" y="915.8088609000001"/>
      <point x="750.2088609000001" y="1080.0"/>
      <point x="547.9714285714285" y="1080.0" type="curve"/>
      <point x="90.9000015258789" y="1080" type="line"/>
    </contour>
    <contour>
      <point x="547.9714279174805" y="864" type="line"/>
      <point x="630.99521658" y="864.0"/>
      <point x="698.4" y="796.59521658"/>
      <point x="698.4" y="713.5714285714287" type="curve" smooth="yes"/>
      <point x="698.4" y="630.5476405628573"/>
      <point x="630.99521658" y="563.1428571428572"/>
      <point x="547.9714285714285" y="563.1428571428572" type="curve"/>
      <point x="306.9000015258789" y="563.1428604125977" type="line"/>
      <point x="306.9000015258789" y="864" type="line"/>
    </contour>
  </outline>
</glyph>
<glyph name="Q" format="2">
  <advance width="1249.810748083007"/>
  <unicode hex="0051"/>
  <outline>
    <contour>
      <point x="626.84128" y="893.08024" type="curve"/>
      <point x="819.75853" y="893.08024"/>
      <point x="976.38287" y="736.4559"/>
      <point x="976.38287" y="543.53864" type="curve"/>
      <point x="976.38287" y="476.5681883315"/>
      <point x="957.5080167017094" y="413.9714077796225"/>
      <point x="924.7922897338867" y="360.7873001098633" type="curve"/>
      <point x="832.8018417358398" y="462.9530487060547" type="line"/>
      <point x="558.2963027954102" y="462.9530487060547" type="line"/>
      <point x="772.0550384521484" y="225.5499267578125" type="line"/>
      <point x="727.8195739821086" y="205.28803054292766"/>
      <point x="678.63859703875" y="193.99704999999994"/>
      <point x="626.84128" y="193.99704999999994" type="curve"/>
      <point x="433.92402" y="193.99705"/>
      <point x="277.29969" y="350.62139"/>
      <point x="277.29969" y="543.53864" type="curve"/>
      <point x="277.29969" y="736.4559"/>
      <point x="433.92402" y="893.08024"/>
    </contour>
    <contour>
      <point x="1249.6466369628906" y="0" type="line"/>
      <point x="1076.2004776000977" y="192.63147735595703" type="line"/>
      <point x="1155.1130015320357" y="288.63866562869333"/>
      <point x="1202.34563" y="410.58153207845"/>
      <point x="1202.34563" y="543.53864" type="curve"/>
      <point x="1202.34563" y="854.29864"/>
      <point x="944.31623" y="1104.8884"/>
      <point x="626.84128" y="1104.8884" type="curve"/>
      <point x="309.36632" y="1104.8884"/>
      <point x="51.33692" y="854.29864"/>
      <point x="51.33692" y="543.53864" type="curve"/>
      <point x="51.33692" y="232.77865"/>
      <point x="309.36632" y="-17.81111"/>
      <point x="626.84128" y="-17.81111" type="curve"/>
      <point x="734.07828608595" y="-17.81111"/>
      <point x="834.5327924636363" y="10.780180249546039"/>
      <point x="920.5518188476562" y="60.627540588378906" type="curve"/>
      <point x="975.1410980224609" y="0" type="line"/>
    </contour>
  </outline>
</glyph>
<glyph name="R" format="2">
  <advance width="989.0085474388327"/>
  <unicode hex="0052"/>
  <outline>
    <contour>
      <point x="90.9000015258789" y="0" type="line"/>
      <point x="306.9000015258789" y="0" type="line"/>
      <point x="306.9000015258789" y="347.14286041259766" type="line"/>
      <point x="488.2426300048828" y="347.14286041259766" type="line"/>
      <point x="706.0970687866211" y="0" type="line"/>
      <point x="961.1085510253906" y="0" type="line"/>
      <point x="717.2556838989258" y="388.5703659057617" type="line"/>
      <point x="834.3788296002664" y="449.7435217790667"/>
      <point x="914.4" y="572.3862412639356"/>
      <point x="914.4" y="713.5714285714287" type="curve" smooth="yes"/>
      <point x="914.4" y="915.8088609000001"/>
      <point x="750.2088609000001" y="1080.0"/>
      <point x="547.9714285714285" y="1080.0" type="curve"/>
      <point x="90.9000015258789" y="1080" type="line"/>
    </contour>
    <contour>
      <point x="547.9714279174805" y="864" type="line"/>
      <point x="630.99521658" y="864.0"/>
      <point x="698.4" y="796.59521658"/>
      <point x="698.4" y="713.5714285714287" type="curve" smooth="yes"/>
      <point x="698.4" y="630.5476405628573"/>
      <point x="630.99521658" y="563.1428571428572"/>
      <point x="547.9714285714285" y="563.1428571428572" type="curve"/>
      <point x="306.9000015258789" y="563.1428604125977" type="line"/>
      <point x="306.9000015258789" y="864" type="line"/>
    </contour>
  </outline>
</glyph>
<glyph name="S" format="2">
  <advance width="973.8"/>
  <unicode hex="0053"/>
  <outline>
    <contour>
      <point x="54.900001525878906" y="319.1999969482422" type="line"/>
      <point x="54.9" y="134.75000031600004"/>
      <point x="248.47271135999992" y="-14.99999999999995"/>
      <point x="486.8999999999999" y="-15.000000000000002" type="curve" smooth="yes"/>
      <point x="725.3272886399999" y="-15.000000000000053"/>
      <point x="918.9" y="134.75000031599987"/>
      <point x="918.9" y="319.19999999999993" type="curve"/>
      <point x="918.9" y="480.9303709729233"/>
      <point x="770.0205770229553" y="615.6231127071225"/>
      <point x="572.68521194458" y="646.7923645019531" type="curve"/>
      <point x="436.67454528808594" y="668.2753372192383" type="line"/>
      <point x="359.4660344910448" y="680.4704749962197"/>
      <point x="302.99999999999994" y="722.492060894096"/>
      <point x="302.99999771118166" y="771.5999977111816" type="curve"/>
      <point x="302.99999999999994" y="830.875673148"/>
      <point x="385.402827822" y="879.0"/>
      <point x="486.9" y="879.0" type="curve" smooth="yes"/>
      <point x="588.397172178" y="879.0"/>
      <point x="670.8000000000001" y="830.875673148"/>
      <point x="670.8000000000001" y="771.6" type="curve"/>
      <point x="891.9000015258789" y="771.5999984741211" type="line"/>
      <point x="891.9" y="950.089317468"/>
      <point x="710.4255831" y="1095.0"/>
      <point x="486.9" y="1095.0" type="curve" smooth="yes"/>
      <point x="263.3744169" y="1095.0"/>
      <point x="81.9" y="950.089317468"/>
      <point x="81.9" y="771.6" type="curve"/>
      <point x="81.9" y="614.295222643642"/>
      <point x="222.90809772669493" y="483.4233517562633"/>
      <point x="409.32090225219724" y="454.14354400634755" type="curve"/>
      <point x="546.0324096679688" y="432.67030334472656" type="line"/>
      <point x="633.7747602928051" y="418.88863848156774"/>
      <point x="697.8000000000001" y="372.93342453173193"/>
      <point x="697.8000022888184" y="319.2" type="curve"/>
      <point x="697.8000000000001" y="253.96364463599994"/>
      <point x="603.298877718" y="201.0"/>
      <point x="486.9" y="201.0" type="curve" smooth="yes"/>
      <point x="370.501122282" y="201.00000000000003"/>
      <point x="276.0" y="253.96364463599997"/>
      <point x="276.0" y="319.20000000000005" type="curve"/>
    </contour>
  </outline>
</glyph>
<glyph name="T" format="2">
  <advance width="961.2"/>
  <unicode hex="0054"/>
  <anchor x="480.6" y="1194.75" name="above" identifier="above"/>
  <anchor x="480.6" y="-108.0" name="below" identifier="below"/>
  <anchor x="480.6" y="0" name="cedilla" identifier="cedilla"/>
  <anchor x="480.6" y="543.375" name="stroke" identifier="stroke"/>
  <outline>
    <contour>
      <point x="372.5999984741211" y="0" type="line"/>
      <point x="588.5999984741211" y="0" type="line"/>
      <point x="588.5999984741211" y="870.75" type="line"/>
      <point x="912.5999984741211" y="870.75" type="line"/>
      <point x="912.5999984741211" y="1086.75" type="line"/>
      <point x="48.599998474121094" y="1086.75" type="line"/>
      <point x="48.599998474121094" y="870.75" type="line"/>
      <point x="372.5999984741211" y="870.75" type="line"/>
    </contour>
  </outline>
</glyph>
<glyph name="U" format="2">
  <advance width="1033.2"/>
  <unicode hex="0055"/>
  <anchor x="516.6" y="1194.75" name="above" identifier="above"/>
  <anchor x="516.6" y="-108.0" name="below" identifier="below"/>
  <anchor x="516.6" y="0" name="ogonek" identifier="ogonek"/>
  <anchor x="957.6" y="1086.75" name="horn" identifier="horn"/>
  <outline>
    <contour>
      <point x="75.5999984741211" y="443.3333282470703" type="line"/>
      <point x="75.59999847412111" y="144.48593260997092"/>
      <point x="301.26017157575757" y="-17.666669999999975"/>
      <point x="516.6" y="-17.66667" type="curve" smooth="yes"/>
      <point x="731.9398284242425" y="-17.66667"/>
      <point x="957.6000006413577" y="144.4859343629006"/>
      <point x="957.5999999539994" y="443.33333" type="curve"/>
      <point x="957.5999984741211" y="1086.75" type="line"/>
      <point x="741.5999984741211" y="1086.75" type="line"/>
      <point x="741.5999984741211" y="443.3333282470703" type="line"/>
      <point x="741.5999984741211" y="269.5365139437405"/>
      <point x="618.9327504526136" y="198.33333"/>
      <point x="516.6" y="198.33333" type="curve" smooth="yes"/>
      <point x="414.2672495473863" y="198.33333"/>
      <point x="291.60000035373747" y="269.5365156966702"/>
      <point x="291.5999999539994" y="443.33333" type="curve"/>
      <point x="291.5999984741211" y="1086.75" type="line"/>
      <point x="75.5999984741211" y="1086.75" type="line"/>
    </contour>
  </outline>
</glyph>
<glyph name="V" format="2">
  <advance width="1075.5634065478657"/>
  <unicode hex="0056"/>
  <anchor x="537.7817032739329" y="1194.4954413593039" name="above" identifier="above"/>
  <anchor x="537.7817032739329" y="-107.41815167840862" name="below" identifier="below"/>
  <outline>
    <contour>
      <point x="6.5793609619140625" y="1087.077293395996" type="line"/>
      <point x="419.7540969848633" y="0" type="line"/>
      <point x="655.8093109130859" y="0" type="line"/>
      <point x="1068.9840393066406" y="1087.077293395996" type="line"/>
      <point x="832.9288330078125" y="1087.077293395996" type="line"/>
      <point x="537.7817001342773" y="300.4288864135742" type="line"/>
      <point x="242.63458251953125" y="1087.077293395996" type="line"/>
    </contour>
  </outline>
</glyph>
<glyph name="W" format="2">
  <advance width="1495.8000000000486"/>
  <unicode hex="0057"/>
  <outline>
    <contour>
      <point x="327.24230194091797" y="0" type="line"/>
      <point x="551.8731002807617" y="0" type="line"/>
      <point x="747.9000015258789" y="686.6039886474609" type="line"/>
      <point x="943.9269027709961" y="0" type="line"/>
      <point x="1168.5577011108398" y="0" type="line"/>
      <point x="1476.900001525879" y="1080" type="line"/>
      <point x="1252.269187927246" y="1080" type="line"/>
      <point x="1056.242301940918" y="393.3960189819336" type="line"/>
      <point x="860.2154006958008" y="1080" type="line"/>
      <point x="635.584602355957" y="1080" type="line"/>
      <point x="439.55770111083984" y="393.3960189819336" type="line"/>
      <point x="243.5308074951172" y="1080" type="line"/>
      <point x="18.900001525878906" y="1080" type="line"/>
    </contour>
  </outline>
</glyph>
<glyph name="X" format="2">
  <advance width="1019.699999999987"/>
  <unicode hex="0058"/>
  <anchor x="509.85" y="1194.75" name="above" identifier="above"/>
  <outline>
    <contour>
      <point x="3.5999984741210938" y="0" type="line"/>
      <point x="266.0505599975586" y="0" type="line"/>
      <point x="509.8499984741211" y="353.24210357666016" type="line"/>
      <point x="753.6494369506836" y="0" type="line"/>
      <point x="1016.0999984741211" y="0" type="line"/>
      <point x="641.0752792358398" y="543.375" type="line"/>
      <point x="1016.0999984741211" y="1086.75" type="line"/>
      <point x="753.6494369506836" y="1086.75" type="line"/>
      <point x="509.8499984741211" y="733.5078964233398" type="line"/>
      <point x="266.0505599975586" y="1086.75" type="line"/>
      <point x="3.5999984741210938" y="1086.75" type="line"/>
      <point x="378.62471771240234" y="543.375" type="line"/>
    </contour>
  </outline>
</glyph>
<glyph name="Y" format="2">
  <advance width="1014.3"/>
  <unicode hex="0059"/>
  <outline>
    <contour>
      <point x="399.1500015258789" y="0" type="line"/>
      <point x="615.1500015258789" y="0" type="line"/>
      <point x="615.1500015258789" y="411.42857360839844" type="line"/>
      <point x="990.9000015258789" y="1080" type="line"/>
      <point x="743.1238403320312" y="1080" type="line"/>
      <point x="507.1500015258789" y="660.1320877075195" type="line"/>
      <point x="271.17616271972656" y="1080" type="line"/>
      <point x="23.400001525878906" y="1080" type="line"/>
      <point x="399.1500015258789" y="411.42857360839844" type="line"/>
    </contour>
  </outline>
</glyph>
<glyph name="Z" format="2">
  <advance width="937.8"/>
  <unicode hex="005A"/>
  <outline>
    <contour>
      <point x="63.900001525878906" y="0" type="line"/>
      <point x="873.9000015258789" y="0" type="line"/>
      <point x="873.9000015258789" y="216" type="line"/>
      <point x="343.1129608154297" y="216" type="line"/>
      <point x="873.9000015258789" y="864" type="line"/>
      <point x="873.9000015258789" y="1080" type="line"/>
      <point x="63.900001525878906" y="1080" type="line"/>
      <point x="63.900001525878906" y="864" type="line"/>
      <point x="594.6870422363281" y="864" type="line"/>
      <point x="63.900001525878906" y="216" type="line"/>
    </contour>
  </outline>
</glyph>
<glyph name="bracketleft" format="2">
  <advance width="559.8"/>
  <unicode hex="005B"/>
  <outline>
    <contour>
      <point x="144.9000015258789" y="-216" type="line"/>
      <point x="522.9000015258789" y="-216" type="line"/>
      <point x="522.9000015258789" y="0" type="line"/>
      <point x="360.9000015258789" y="0" type="line"/>
      <point x="360.9000015258789" y="1134" type="line"/>
      <point x="522.9000015258789" y="1134" type="line"/>
      <point x="522.9000015258789" y="1350" type="line"/>
      <point x="144.9000015258789" y="1350" type="line"/>
    </contour>
  </outline>
</glyph>
<glyph name="backslash" format="2">
  <advance width="882.1766077645453"/>
  <unicode hex="005C"/>
  <outline>
    <contour>
      <point x="791.2766077645454" y="-54.0" type="line"/>
      <point x="280.2623988547971" y="1350.0" type="line"/>
      <point x="50.4" y="1350.0" type="line"/>
      <point x="561.4142089097484" y="-54.0" type="line"/>
    </contour>
  </outline>
</glyph>
<glyph name="bracketright" format="2">
  <advance width="575.4256112722752"/>
  <unicode hex="005D"/>
  <outline>
    <contour>
      <point x="439.04931640625" y="-101.48076629638672" type="line"/>
      <point x="439.04931640625" y="1188.5580596923828" type="line"/>
      <point x="28.95813751220703" y="1188.5580596923828" type="line"/>
      <point x="28.95813751220703" y="985.5965194702148" type="line"/>
      <point x="218.39453125" y="985.5965194702148" type="line"/>
      <point x="218.39453125" y="101.48076629638672" type="line"/>
      <point x="28.95813751220703" y="101.48076629638672" type="line"/>
      <point x="28.95813751220703" y="-101.48076629638672" type="line"/>
    </contour>
  </outline>
</glyph>
<glyph name="asciicircum" format="2">
  <advance width="818.0307692307567"/>
  <unicode hex="005E"/>
  <outline>
    <contour>
      <point x="54.900001525878906" y="540" type="line"/>
      <point x="290.6646499633789" y="540" type="line"/>
      <point x="409.01538848876953" y="810.5353622436523" type="line"/>
      <point x="527.3661193847656" y="540" type="line"/>
      <point x="763.1307678222656" y="540" type="line"/>
      <point x="526.8977127075195" y="1080" type="line"/>
      <point x="291.133056640625" y="1080" type="line"/>
    </contour>
  </outline>
</glyph>
<glyph name="power" format="2">
  <advance width="841.0031377656741"/>
  <unicode hex="005E"/>
  <outline>
    <contour>
      <point x="46.861167907714844" y="530.9086227416992" type="line"/>
      <point x="271.1381301879883" y="530.9086227416992" type="line"/>
      <point x="420.50157165527344" y="849.2599334716797" type="line"/>
      <point x="569.8650131225586" y="530.9086227416992" type="line"/>
      <point x="794.1419677734375" y="530.9086227416992" type="line"/>
      <point x="517.9137115478516" y="1087.077293395996" type="line"/>
      <point x="323.0894317626953" y="1087.077293395996" type="line"/>
    </contour>
  </outline>
</glyph>
<glyph name="underscore" format="2">
  <advance width="810.0"/>
  <unicode hex="005F"/>
  <outline>
    <contour>
      <point x="0.0" y="-172.8" type="line"/>
      <point x="810.0" y="-172.8" type="line"/>
      <point x="810.0" y="0.0" type="line"/>
      <point x="0.0" y="0.0" type="line"/>
    </contour>
  </outline>
</glyph>
<glyph name="grave" format="2">
  <advance width="518.464638005692"/>
  <unicode hex="0060"/>
  <outline>
    <contour>
      <point x="427.5646380056921" y="900.0" type="line"/>
      <point x="264.62207788761435" y="1188.0" type="line"/>
      <point x="90.9" y="1188.0" type="line"/>
      <point x="253.8425601180778" y="900.0" type="line"/>
    </contour>
  </outline>
</glyph>
<glyph name="a" format="2">
  <advance width="1034.7001189237312"/>
  <unicode hex="0061"/>
  <anchor x="518.9820029761631" y="940.4193431413179" name="above" identifier="above"/>
  <anchor x="518.9820029761631" y="-107.41815167840862" name="below" identifier="below"/>
  <anchor x="957.4038072784763" y="0" name="ogonek" identifier="ogonek"/>
  <outline>
    <contour>
      <point x="505.96635" y="178.64063" type="curve" smooth="yes"/>
      <point x="374.68786" y="178.64063"/>
      <point x="268.10638" y="285.22211"/>
      <point x="268.10638" y="416.5006" type="curve"/>
      <point x="268.10638" y="547.77909"/>
      <point x="374.68786" y="654.36056"/>
      <point x="505.96635" y="654.36056" type="curve" smooth="yes"/>
      <point x="637.24484" y="654.36056"/>
      <point x="743.82632" y="547.77909"/>
      <point x="743.82632" y="416.5006" type="curve"/>
      <point x="743.82632" y="285.22211"/>
      <point x="637.24484" y="178.64063"/>
    </contour>
    <contour>
      <point x="756.6706314086914" y="0" type="line"/>
      <point x="957.40380859375" y="0" type="line"/>
      <point x="957.40380859375" y="833.0011901855469" type="line"/>
      <point x="756.6706314086914" y="833.0011901855469" type="line"/>
      <point x="756.6706314086914" y="731.1938400268555" type="line"/>
      <point x="687.5815592395962" y="805.3054238175788"/>
      <point x="590.76020767488" y="850.8123"/>
      <point x="474.84743" y="850.8123" type="curve" smooth="yes"/>
      <point x="235.14428" y="850.8123"/>
      <point x="45.96602" y="656.20375"/>
      <point x="45.96602" y="416.5006" type="curve"/>
      <point x="45.96602" y="176.79744"/>
      <point x="235.14428" y="-17.81111"/>
      <point x="474.84743" y="-17.81111" type="curve" smooth="yes"/>
      <point x="590.76020767488" y="-17.81111"/>
      <point x="687.5815592395962" y="27.69576618242123"/>
      <point x="756.6706314086914" y="101.80400848388672" type="curve"/>
    </contour>
  </outline>
</glyph>
<glyph name="b" format="2">
  <advance width="1034.7001189237312"/>
  <unicode hex="0062"/>
  <anchor x="559.8526847219101" y="940.4193431413179" name="above" identifier="above"/>
  <anchor x="507.1552407100428" y="-107.41815167840862" name="below" identifier="below"/>
  <outline>
    <contour>
      <point x="77.29631042480469" y="0" type="line"/>
      <point x="278.0294876098633" y="0" type="line"/>
      <point x="278.0294876098633" y="101.8073501586914" type="line"/>
      <point x="347.11855809338374" y="27.695766182421252"/>
      <point x="443.9399071608" y="-17.811109999999978"/>
      <point x="559.85268" y="-17.811109999999985" type="curve" smooth="yes"/>
      <point x="799.55584" y="-17.81111"/>
      <point x="988.7341" y="176.79744"/>
      <point x="988.7341" y="416.5006" type="curve"/>
      <point x="988.7341" y="656.20375"/>
      <point x="799.55584" y="850.8123"/>
      <point x="559.85268" y="850.8123" type="curve" smooth="yes"/>
      <point x="450.9536213298" y="850.8123"/>
      <point x="358.90549671714064" y="810.6459206413274"/>
      <point x="290.8738021850586" y="744.3217468261719" type="curve"/>
      <point x="290.8738021850586" y="1162.0182266235352" type="line"/>
      <point x="77.29631042480469" y="1162.0182266235352" type="line"/>
    </contour>
    <contour>
      <point x="528.73377" y="654.36056" type="curve" smooth="yes"/>
      <point x="660.01226" y="654.36056"/>
      <point x="766.59374" y="547.77909"/>
      <point x="766.59374" y="416.5006" type="curve"/>
      <point x="766.59374" y="285.22211"/>
      <point x="660.01226" y="178.64063"/>
      <point x="528.73377" y="178.64063" type="curve" smooth="yes"/>
      <point x="397.45528" y="178.64063"/>
      <point x="290.8738" y="285.22211"/>
      <point x="290.8738" y="416.5006" type="curve"/>
      <point x="290.8738" y="547.77909"/>
      <point x="397.45528" y="654.36056"/>
    </contour>
  </outline>
</glyph>
<glyph name="c" format="2">
  <advance width="956.3289093017578"/>
  <unicode hex="0063"/>
  <anchor x="481.41875" y="939.9375" name="above" identifier="above"/>
  <anchor x="481.41875" y="-108.0" name="below" identifier="below"/>
  <anchor x="485.8354166666667" y="0" name="cedilla" identifier="cedilla"/>
  <outline>
    <contour>
      <point x="485.83542" y="192.45333" type="curve" smooth="yes"/>
      <point x="362.4739" y="192.45333"/>
      <point x="262.32" y="292.60723"/>
      <point x="262.32" y="415.96875" type="curve" smooth="yes"/>
      <point x="262.32" y="539.33027"/>
      <point x="362.4739" y="639.48417"/>
      <point x="485.83542" y="639.48417" type="curve" smooth="yes"/>
      <point x="576.14406" y="639.48417"/>
      <point x="654.01531" y="585.80977"/>
      <point x="689.26095" y="508.63245" type="curve"/>
      <point x="909.52891" y="508.63245" type="line"/>
      <point x="867.0384" y="703.5054"/>
      <point x="693.36388" y="849.60417"/>
      <point x="485.83542" y="849.60417" type="curve" smooth="yes"/>
      <point x="246.50552" y="849.60417"/>
      <point x="52.2" y="655.29865"/>
      <point x="52.2" y="415.96875" type="curve" smooth="yes"/>
      <point x="52.2" y="176.63885"/>
      <point x="246.50552" y="-17.66667"/>
      <point x="485.83542" y="-17.66667" type="curve" smooth="yes"/>
      <point x="693.35646" y="-17.66667"/>
      <point x="867.02598" y="128.42165"/>
      <point x="909.52431" y="323.30505" type="curve"/>
      <point x="689.25699" y="323.30505" type="line"/>
      <point x="654.00935" y="246.12362"/>
      <point x="576.14061" y="192.45333"/>
    </contour>
  </outline>
</glyph>
<glyph name="d" format="2">
  <advance width="1003.1708333333335"/>
  <unicode hex="0064"/>
  <anchor x="485.8354166666667" y="939.9375" name="above" identifier="above"/>
  <anchor x="490.2520833333333" y="-108.0" name="below" identifier="below"/>
  <anchor x="814.4108333333334" y="989.71875" name="stroke" identifier="stroke"/>
  <anchor x="1027.4708333333333" y="1147.5" name="caron" identifier="caron"/>
  <outline>
    <contour>
      <point x="709.350830078125" y="0" type="line"/>
      <point x="919.470832824707" y="0" type="line"/>
      <point x="919.470832824707" y="1147.5" type="line"/>
      <point x="709.350830078125" y="1147.5" type="line"/>
      <point x="709.350830078125" y="787.5474319458008" type="line"/>
      <point x="644.0625727631248" y="826.9391779587002"/>
      <point x="567.5749573965" y="849.6041700000001"/>
      <point x="485.83542" y="849.60417" type="curve" smooth="yes"/>
      <point x="246.50552" y="849.60417"/>
      <point x="52.2" y="655.29865"/>
      <point x="52.2" y="415.96875" type="curve" smooth="yes"/>
      <point x="52.2" y="176.63885"/>
      <point x="246.50552" y="-17.66667"/>
      <point x="485.83542" y="-17.66667" type="curve" smooth="yes"/>
      <point x="567.5749573964999" y="-17.66667"/>
      <point x="644.0625727631246" y="4.998322041299858"/>
      <point x="709.350830078125" y="44.3856201171875" type="curve"/>
    </contour>
    <contour>
      <point x="709.35083" y="415.96875" type="curve" smooth="yes"/>
      <point x="709.35083" y="292.60723"/>
      <point x="609.19693" y="192.45333"/>
      <point x="485.83542" y="192.45333" type="curve" smooth="yes"/>
      <point x="362.4739" y="192.45333"/>
      <point x="262.32" y="292.60723"/>
      <point x="262.32" y="415.96875" type="curve" smooth="yes"/>
      <point x="262.32" y="539.33027"/>
      <point x="362.4739" y="639.48417"/>
      <point x="485.83542" y="639.48417" type="curve" smooth="yes"/>
      <point x="609.19693" y="639.48417"/>
      <point x="709.35083" y="539.33027"/>
    </contour>
  </outline>
</glyph>
<glyph name="e" format="2">
  <advance width="971.6708333333335"/>
  <unicode hex="0065"/>
  <anchor x="485.8354166666667" y="939.9375" name="above" identifier="above"/>
  <anchor x="485.8354166666667" y="-108.0" name="below" identifier="below"/>
  <anchor x="485.8354166666667" y="0" name="cedilla" identifier="cedilla"/>
  <anchor x="485.8354166666667" y="0" name="ogonek" identifier="ogonek"/>
  <outline>
    <contour>
      <point x="919.47083" y="415.96875" type="curve" smooth="yes"/>
      <point x="919.47083" y="655.29865"/>
      <point x="725.16532" y="849.60417"/>
      <point x="485.83542" y="849.60417" type="curve" smooth="yes"/>
      <point x="246.50552" y="849.60417"/>
      <point x="52.2" y="655.29865"/>
      <point x="52.2" y="415.96875" type="curve" smooth="yes"/>
      <point x="52.2" y="176.63885"/>
      <point x="246.50552" y="-17.66667"/>
      <point x="485.83542" y="-17.66667" type="curve" smooth="yes"/>
      <point x="669.57185" y="-17.66667"/>
      <point x="826.77174" y="96.85345"/>
      <point x="889.88904" y="258.36558" type="curve"/>
      <point x="644.2520523071289" y="258.3655776977539" type="line"/>
      <point x="603.7622" y="217.65663"/>
      <point x="547.71886" y="192.45333"/>
      <point x="485.83542" y="192.45333" type="curve" smooth="yes"/>
      <point x="393.91899817104" y="192.45333"/>
      <point x="314.8867746321384" y="248.05587378185606"/>
      <point x="280.5681457519531" y="327.4654312133789" type="curve"/>
      <point x="910.4089584350586" y="327.4654312133789" type="line"/>
      <point x="916.34886" y="356.01869"/>
      <point x="919.47083" y="385.63201"/>
    </contour>
    <contour>
      <point x="485.83542" y="639.4841700000001" type="curve" smooth="yes"/>
      <point x="577.75183437798" y="639.48417"/>
      <point x="656.7840560176119" y="583.881626218144"/>
      <point x="691.1026763916016" y="504.4720687866211" type="curve"/>
      <point x="280.5615234375" y="504.4720687866211" type="line"/>
      <point x="314.8765920070084" y="583.8744620382136"/>
      <point x="393.91307681807996" y="639.4841700000001"/>
    </contour>
  </outline>
</glyph>
<glyph name="f" format="2">
  <advance width="617.6379807692308"/>
  <unicode hex="0066"/>
  <anchor x="360.2467891483517" y="1255.5" name="above" identifier="above"/>
  <outline>
    <contour>
      <point x="151.71923065185547" y="0" type="line"/>
      <point x="361.8392333984375" y="0" type="line"/>
      <point x="361.8392333984375" y="621.817497253418" type="line"/>
      <point x="578.9379806518555" y="621.817497253418" type="line"/>
      <point x="578.9379806518555" y="831.9375" type="line"/>
      <point x="361.8392333984375" y="831.9375" type="line"/>
      <point x="361.8392333984375" y="878.6556672937851" type="line"/>
      <point x="361.8392333984375" y="937.217784965597"/>
      <point x="415.49754032929377" y="937.3799999738188"/>
      <point x="425.89642918382054" y="937.3799998007335" type="curve"/>
      <point x="578.9379806518555" y="937.379997253418" type="line"/>
      <point x="578.9379806518555" y="1147.5" type="line"/>
      <point x="433.9245910644531" y="1147.5" type="line"/>
      <point x="276.0079514684926" y="1147.5"/>
      <point x="151.71922796557072" y="1051.8213230799365"/>
      <point x="151.71923024433673" y="865.29464" type="curve"/>
      <point x="151.71923065185547" y="831.9375" type="line"/>
      <point x="34.19999694824219" y="831.9375" type="line"/>
      <point x="34.19999694824219" y="621.817497253418" type="line"/>
      <point x="151.71923065185547" y="621.817497253418" type="line"/>
    </contour>
  </outline>
</glyph>
<glyph name="g" format="2">
  <advance width="1034.7001189237312"/>
  <unicode hex="0067"/>
  <anchor x="518.9820029761631" y="940.4193431413179" name="above" identifier="above"/>
  <outline>
    <contour>
      <point x="505.96635" y="178.64063" type="curve" smooth="yes"/>
      <point x="374.68786" y="178.64063"/>
      <point x="268.10638" y="285.22211"/>
      <point x="268.10638" y="416.5006" type="curve"/>
      <point x="268.10638" y="547.77909"/>
      <point x="374.68786" y="654.36056"/>
      <point x="505.96635" y="654.36056" type="curve" smooth="yes"/>
      <point x="637.24484" y="654.36056"/>
      <point x="743.82632" y="547.77909"/>
      <point x="743.82632" y="416.5006" type="curve"/>
      <point x="743.82632" y="285.22211"/>
      <point x="637.24484" y="178.64063"/>
    </contour>
    <contour>
      <point x="507.79073" y="-396.68388" type="curve"/>
      <point x="714.3989030293579" y="-396.68388"/>
      <point x="957.4038105713978" y="-279.1768295895663"/>
      <point x="957.4038099644365" y="62.16252" type="curve"/>
      <point x="957.40380859375" y="833.0011901855469" type="line"/>
      <point x="756.6706314086914" y="833.0011901855469" type="line"/>
      <point x="756.6706314086914" y="731.1938400268555" type="line"/>
      <point x="687.5815592395962" y="805.3054238175788"/>
      <point x="590.76020767488" y="850.8123"/>
      <point x="474.84743" y="850.8123" type="curve" smooth="yes"/>
      <point x="235.1442799999999" y="850.8123"/>
      <point x="45.966020000000015" y="656.2037500000001"/>
      <point x="45.96602" y="416.5006" type="curve"/>
      <point x="45.966020000000015" y="179.1604299999999"/>
      <point x="237.5072699999999" y="-13.529669999999971"/>
      <point x="474.84743" y="-13.52967" type="curve" smooth="yes"/>
      <point x="583.17873985463" y="-13.52967"/>
      <point x="675.4852535489374" y="26.614722718985558"/>
      <point x="743.8263168334961" y="92.83597564697266" type="curve"/>
      <point x="743.8263168334961" y="62.16252136230469" type="line"/>
      <point x="743.8263168334961" y="-131.09875178621664"/>
      <point x="612.3299479788423" y="-200.23215"/>
      <point x="507.79073" y="-200.23215" type="curve"/>
      <point x="407.27556999999996" y="-200.23215"/>
      <point x="323.0267" y="-140.18435000000005"/>
      <point x="286.76953" y="-53.70908" type="curve"/>
      <point x="67.70172119140625" y="-53.709083557128906" type="line"/>
      <point x="109.58209000000002" y="-258.42981000000003"/>
      <point x="285.22735999999986" y="-396.68388"/>
    </contour>
  </outline>
</glyph>
<glyph name="h" format="2">
  <advance width="927.2200580190633"/>
  <unicode hex="0068"/>
  <anchor x="470.3236634894322" y="1269.4363862411935" name="above" identifier="above"/>
  <anchor x="470.3236634894322" y="-107.41815167840862" name="below" identifier="below"/>
  <anchor x="184.5273870700373" y="1269.4363862411935" name="stem" identifier="stem"/>
  <anchor x="184.5273870700373" y="0" name="cedilla" identifier="cedilla"/>
  <anchor x="184.5273870700373" y="997.5097130128471" name="stroke" identifier="stroke"/>
  <outline>
    <contour>
      <point x="77.29631042480469" y="0" type="line"/>
      <point x="291.75846099853516" y="0" type="line"/>
      <point x="291.75846099853516" y="454.9816436767578" type="line"/>
      <point x="291.75846099853516" y="602.6458862720294"/>
      <point x="393.333578072564" y="653.54684"/>
      <point x="470.32366" y="653.54684" type="curve" smooth="yes"/>
      <point x="547.3137469274359" y="653.54684"/>
      <point x="648.8888592985282" y="602.6458844336505"/>
      <point x="648.8888601098932" y="454.98164" type="curve"/>
      <point x="648.8888626098633" y="0" type="line"/>
      <point x="863.3510208129883" y="0" type="line"/>
      <point x="863.3510208129883" y="454.9816436767578" type="line"/>
      <point x="863.3510208129883" y="744.6458175246001"/>
      <point x="680.8733428457571" y="850.8123"/>
      <point x="520.30706" y="850.8123" type="curve" smooth="yes"/>
      <point x="419.95428318458994" y="850.8123"/>
      <point x="343.72127427002454" y="811.395395417479"/>
      <point x="291.75846099853516" y="747.2037734985352" type="curve"/>
      <point x="291.75846099853516" y="1162.0182266235352" type="line"/>
      <point x="77.29631042480469" y="1162.0182266235352" type="line"/>
    </contour>
  </outline>
</glyph>
<glyph name="i" format="2">
  <advance width="375.24740986324076"/>
  <unicode hex="0069"/>
  <anchor x="187.62370493162038" y="-107.41815167840862" name="below" identifier="below"/>
  <anchor x="187.62370493162038" y="444.28566633734926" name="stroke" identifier="stroke"/>
  <anchor x="297.9510982179859" y="0" name="ogonek" identifier="ogonek"/>
  <anchor x="187.62370493162038" y="1254.5055428926648" name="above" identifier="above"/>
  <outline>
    <contour>
      <point x="330.17654" y="1076.14665" type="curve" smooth="yes"/>
      <point x="330.17654" y="1154.82371"/>
      <point x="266.30076" y="1218.69949"/>
      <point x="187.6237" y="1218.69949" type="curve" smooth="yes"/>
      <point x="108.94665" y="1218.69949"/>
      <point x="45.07087" y="1154.82371"/>
      <point x="45.07087" y="1076.14665" type="curve" smooth="yes"/>
      <point x="45.07087" y="997.4696"/>
      <point x="108.94665" y="933.59381"/>
      <point x="187.6237" y="933.59381" type="curve" smooth="yes"/>
      <point x="266.30076" y="933.59381"/>
      <point x="330.17654" y="997.4696"/>
    </contour>
    <contour>
      <point x="77.29631" y="0.0" type="line"/>
      <point x="297.9511" y="0.0" type="line"/>
      <point x="297.9511" y="833.00119" type="line"/>
      <point x="77.29631" y="833.00119" type="line"/>
    </contour>
  </outline>
</glyph>
<glyph name="j" format="2">
  <advance width="392.4440971443263"/>
  <unicode hex="006A"/>
  <anchor x="207.91671007428894" y="1254.5055428926648" name="above" identifier="above"/>
  <outline>
    <contour>
      <point x="350.46955" y="1076.14665" type="curve" smooth="yes"/>
      <point x="350.46955" y="1154.82371"/>
      <point x="286.59376" y="1218.69949"/>
      <point x="207.91671" y="1218.69949" type="curve" smooth="yes"/>
      <point x="129.23966" y="1218.69949"/>
      <point x="65.36387" y="1154.82371"/>
      <point x="65.36387" y="1076.14665" type="curve" smooth="yes"/>
      <point x="65.36387" y="997.4696"/>
      <point x="129.23966" y="933.59381"/>
      <point x="207.91671" y="933.59381" type="curve" smooth="yes"/>
      <point x="286.59376" y="933.59381"/>
      <point x="350.46955" y="997.4696"/>
    </contour>
    <contour>
      <point x="-115.56082916259766" y="-355.55687713623047" type="line"/>
      <point x="-26.68805694580078" y="-355.55687713623047" type="line"/>
      <point x="216.2944110299837" y="-355.55687713623047"/>
      <point x="315.14779018442977" y="-214.17783054143203"/>
      <point x="315.1477899774066" y="-30.917720000000003" type="curve"/>
      <point x="315.14778900146484" y="833.0011901855469" type="line"/>
      <point x="100.68563079833984" y="833.0011901855469" type="line"/>
      <point x="100.68563079833984" y="-37.23149991060728" type="line"/>
      <point x="100.68563079833986" y="-157.2952181284927"/>
      <point x="-0.9174116311306122" y="-158.29142000090582"/>
      <point x="-26.68806" y="-158.29141999686058" type="curve"/>
      <point x="-115.56082916259766" y="-158.29141998291016" type="line"/>
    </contour>
  </outline>
</glyph>
<glyph name="k" format="2">
  <advance width="875.6999999999117"/>
  <unicode hex="006B"/>
  <anchor x="381.9857142857143" y="1255.5" name="above" identifier="above"/>
  <anchor x="381.9857142857143" y="-108.0" name="below" identifier="below"/>
  <anchor x="188.76" y="1255.5" name="stem" identifier="stem"/>
  <anchor x="466.3666666666666" y="-108.0" name="macronbelow" identifier="macronbelow"/>
  <outline>
    <contour>
      <point x="83.69999694824219" y="0" type="line"/>
      <point x="293.8199996948242" y="0" type="line"/>
      <point x="293.8199996948242" y="317.4609146118164" type="line"/>
      <point x="582.6354675292969" y="0" type="line"/>
      <point x="866.6999969482422" y="0" type="line"/>
      <point x="487.0371627807617" y="417.3187484741211" type="line"/>
      <point x="864.2436294555664" y="831.9375" type="line"/>
      <point x="580.1791000366211" y="831.9375" type="line"/>
      <point x="293.8199996948242" y="517.1765823364258" type="line"/>
      <point x="293.8199996948242" y="1147.5" type="line"/>
      <point x="83.69999694824219" y="1147.5" type="line"/>
    </contour>
  </outline>
</glyph>
<glyph name="l" format="2">
  <advance width="397.79999999999995"/>
  <unicode hex="006C"/>
  <anchor x="198.9" y="1242.0" name="above" identifier="above"/>
  <anchor x="198.9" y="-108.0" name="below" identifier="below"/>
  <anchor x="414.9" y="1134.0" name="caron" identifier="caron"/>
  <anchor x="198.9" y="567.0" name="stroke" identifier="stroke"/>
  <anchor x="397.80000000000007" y="567.0" name="dotmiddle" identifier="dotmiddle"/>
  <outline>
    <contour>
      <point x="90.9" y="0.0" type="line"/>
      <point x="306.9" y="0.0" type="line"/>
      <point x="306.9" y="1134.0" type="line"/>
      <point x="90.9" y="1134.0" type="line"/>
    </contour>
  </outline>
</glyph>
<glyph name="m" format="2">
  <advance width="1400.8308454206383"/>
  <unicode hex="006D"/>
  <anchor x="704.0327393286366" y="940.4193431413179" name="above" identifier="above"/>
  <anchor x="704.0327393286366" y="-107.41815167840862" name="below" identifier="below"/>
  <anchor x="1336.9618027351846" y="0" name="hookright" identifier="hookright"/>
  <outline>
    <contour>
      <point x="77.29631042480469" y="0" type="line"/>
      <point x="291.75846099853516" y="0" type="line"/>
      <point x="291.75846099853516" y="479.838838028943" type="line"/>
      <point x="291.75846099853516" y="605.9082499281948"/>
      <point x="373.51620708911196" y="653.54684"/>
      <point x="445.82822" y="653.54684" type="curve" smooth="yes"/>
      <point x="518.140237910888" y="653.54684"/>
      <point x="599.8979800561846" y="605.9082492787808"/>
      <point x="599.897979989633" y="479.83883186089537" type="curve"/>
      <point x="599.8979797363281" y="0" type="line"/>
      <point x="814.3601303100586" y="0" type="line"/>
      <point x="814.3601303100586" y="479.8388376188642" type="line"/>
      <point x="814.3601303100586" y="605.908249518116"/>
      <point x="896.117877089112" y="653.54684"/>
      <point x="968.42989" y="653.54684" type="curve" smooth="yes"/>
      <point x="1040.7419079108881" y="653.54684"/>
      <point x="1122.4996502028887" y="605.9082492787807"/>
      <point x="1122.4996499625638" y="479.8388318608953" type="curve"/>
      <point x="1122.4996490478516" y="0" type="line"/>
      <point x="1336.961799621582" y="0" type="line"/>
      <point x="1336.961799621582" y="479.4770812988281" type="line"/>
      <point x="1336.961799621582" y="741.1504622649111"/>
      <point x="1149.9621437119372" y="850.8123"/>
      <point x="980.89381" y="850.8123" type="curve" smooth="yes"/>
      <point x="882.85704943666" y="850.8123"/>
      <point x="794.9264524242893" y="810.5709872352585"/>
      <point x="731.9429779052734" y="745.7063140869141" type="curve"/>
      <point x="676.651157004915" y="811.0805576773449"/>
      <point x="595.6913628555001" y="850.8123000000002"/>
      <point x="495.68388" y="850.8123" type="curve" smooth="yes"/>
      <point x="392.4537031668899" y="850.8123"/>
      <point x="317.6496314003487" y="806.1945590382956"/>
      <point x="270.2626037597656" y="735.190544128418" type="curve"/>
      <point x="270.2626037597656" y="833.0011901855469" type="line"/>
      <point x="77.29631042480469" y="833.0011901855469" type="line"/>
    </contour>
  </outline>
</glyph>
<glyph name="n" format="2">
  <advance width="927.2200580190633"/>
  <unicode hex="006E"/>
  <anchor x="470.3236634894322" y="940.4193431413179" name="above" identifier="above"/>
  <anchor x="470.3236634894322" y="-107.41815167840862" name="below" identifier="below"/>
  <anchor x="77.29631164525486" y="0" name="hookleft" identifier="hookleft"/>
  <anchor x="863.3510153336096" y="0" name="hookright" identifier="hookright"/>
  <outline>
    <contour>
      <point x="77.29631042480469" y="0" type="line"/>
      <point x="291.75846099853516" y="0" type="line"/>
      <point x="291.75846099853516" y="454.9816436767578" type="line"/>
      <point x="291.75846099853516" y="602.6458862720294"/>
      <point x="393.333578072564" y="653.54684"/>
      <point x="470.32366" y="653.54684" type="curve" smooth="yes"/>
      <point x="547.3137469274359" y="653.54684"/>
      <point x="648.8888592985282" y="602.6458844336505"/>
      <point x="648.8888601098932" y="454.98164" type="curve"/>
      <point x="648.8888626098633" y="0" type="line"/>
      <point x="863.3510208129883" y="0" type="line"/>
      <point x="863.3510208129883" y="454.9816436767578" type="line"/>
      <point x="863.3510208129883" y="744.6458175246001"/>
      <point x="680.8733428457571" y="850.8123"/>
      <point x="520.30706" y="850.8123" type="curve" smooth="yes"/>
      <point x="411.30314239545993" y="850.8123"/>
      <point x="330.7568430719559" y="804.3064120063545"/>
      <point x="278.86094665527344" y="730.0533065795898" type="curve"/>
      <point x="278.86094665527344" y="833.0011901855469" type="line"/>
      <point x="77.29631042480469" y="833.0011901855469" type="line"/>
    </contour>
  </outline>
</glyph>
<glyph name="o" format="2">
  <advance width="971.6708333333335"/>
  <unicode hex="006F"/>
  <anchor x="485.8354166666667" y="939.9375" name="above" identifier="above"/>
  <anchor x="485.8354166666667" y="-108.0" name="below" identifier="below"/>
  <anchor x="485.8354166666667" y="0" name="ogonek" identifier="ogonek"/>
  <anchor x="485.8354166666667" y="415.96875" name="stroke" identifier="stroke"/>
  <anchor x="485.8354166666667" y="849.6041666666666" name="horn" identifier="horn"/>
  <outline>
    <contour>
      <point x="919.47083" y="415.96875" type="curve" smooth="yes"/>
      <point x="919.47083" y="655.29865"/>
      <point x="725.16532" y="849.60417"/>
      <point x="485.83542" y="849.60417" type="curve" smooth="yes"/>
      <point x="246.50552" y="849.60417"/>
      <point x="52.2" y="655.29865"/>
      <point x="52.2" y="415.96875" type="curve" smooth="yes"/>
      <point x="52.2" y="176.63885"/>
      <point x="246.50552" y="-17.66667"/>
      <point x="485.83542" y="-17.66667" type="curve" smooth="yes"/>
      <point x="725.16532" y="-17.66667"/>
      <point x="919.47083" y="176.63885"/>
    </contour>
    <contour>
      <point x="709.35083" y="415.96875" type="curve" smooth="yes"/>
      <point x="709.35083" y="292.60723"/>
      <point x="609.19693" y="192.45333"/>
      <point x="485.83542" y="192.45333" type="curve" smooth="yes"/>
      <point x="362.4739" y="192.45333"/>
      <point x="262.32" y="292.60723"/>
      <point x="262.32" y="415.96875" type="curve" smooth="yes"/>
      <point x="262.32" y="539.33027"/>
      <point x="362.4739" y="639.48417"/>
      <point x="485.83542" y="639.48417" type="curve" smooth="yes"/>
      <point x="609.19693" y="639.48417"/>
      <point x="709.35083" y="539.33027"/>
    </contour>
  </outline>
</glyph>
<glyph name="p" format="2">
  <advance width="1003.1708333333335"/>
  <unicode hex="0070"/>
  <anchor x="517.3354166666667" y="939.9375" name="above" identifier="above"/>
  <outline>
    <contour>
      <point x="83.69999694824219" y="-354.375" type="line"/>
      <point x="293.8199996948242" y="-354.375" type="line"/>
      <point x="293.8199996948242" y="44.39006805419922" type="line"/>
      <point x="359.1082660704138" y="4.998322041299836"/>
      <point x="435.5958826035" y="-17.66667000000002"/>
      <point x="517.33542" y="-17.666670000000025" type="curve" smooth="yes"/>
      <point x="756.66532" y="-17.66667"/>
      <point x="950.97083" y="176.63885"/>
      <point x="950.97083" y="415.96875" type="curve" smooth="yes"/>
      <point x="950.97083" y="655.29865"/>
      <point x="756.66532" y="849.60417"/>
      <point x="517.33542" y="849.60417" type="curve" smooth="yes"/>
      <point x="435.5958826035" y="849.60417"/>
      <point x="359.1082660704138" y="826.9391779587"/>
      <point x="293.8199996948242" y="787.551872253418" type="curve"/>
      <point x="293.8199996948242" y="831.9375" type="line"/>
      <point x="83.69999694824219" y="831.9375" type="line"/>
    </contour>
    <contour>
      <point x="740.85083" y="415.96875" type="curve" smooth="yes"/>
      <point x="740.85083" y="292.60723"/>
      <point x="640.69693" y="192.45333"/>
      <point x="517.33542" y="192.45333" type="curve" smooth="yes"/>
      <point x="393.9739" y="192.45333"/>
      <point x="293.82" y="292.60723"/>
      <point x="293.82" y="415.96875" type="curve" smooth="yes"/>
      <point x="293.82" y="539.33027"/>
      <point x="393.9739" y="639.48417"/>
      <point x="517.33542" y="639.48417" type="curve" smooth="yes"/>
      <point x="640.69693" y="639.48417"/>
      <point x="740.85083" y="539.33027"/>
    </contour>
  </outline>
</glyph>
<glyph name="r" format="2">
  <advance width="579.7824726105508"/>
  <unicode hex="0072"/>
  <anchor x="300.53864484044755" y="940.4193431413179" name="above" identifier="above"/>
  <anchor x="248.0251021253922" y="-107.41815167840862" name="below" identifier="below"/>
  <anchor x="187.2128408619975" y="-107.41815167840862" name="stembelow" identifier="stembelow"/>
  <outline>
    <contour>
      <point x="79.98177337646484" y="0" type="line"/>
      <point x="294.4439163208008" y="0" type="line"/>
      <point x="294.4439163208008" y="429.2044677734375" type="line"/>
      <point x="294.4439163208008" y="636.8072392063923"/>
      <point x="476.2908321162801" y="637.8890598792552"/>
      <point x="503.12851" y="637.8890603531746" type="curve"/>
      <point x="538.2922134399414" y="637.8890609741211" type="line"/>
      <point x="538.2922134399414" y="835.1545333862305" type="line"/>
      <point x="503.1285095214844" y="835.1545333862305" type="line"/>
      <point x="420.51226311719046" y="835.1545333862305"/>
      <point x="340.79002074011294" y="814.3117555868563"/>
      <point x="281.54640197753906" y="725.7849273681641" type="curve"/>
      <point x="281.54640197753906" y="833.0011901855469" type="line"/>
      <point x="79.98177337646484" y="833.0011901855469" type="line"/>
    </contour>
  </outline>
</glyph>
<glyph name="s" format="2">
  <advance width="837.0"/>
  <unicode hex="0073"/>
  <anchor x="418.5" y="939.9375" name="above" identifier="above"/>
  <anchor x="418.5" y="-108.0" name="below" identifier="below"/>
  <anchor x="418.5" y="0" name="cedilla" identifier="cedilla"/>
  <outline>
    <contour>
      <point x="49.5" y="267.43103790283203" type="line"/>
      <point x="49.50000000000001" y="99.15600999999987"/>
      <point x="218.6420799999999" y="-17.666669999999975"/>
      <point x="427.5" y="-17.66667" type="curve"/>
      <point x="626.3234300000001" y="-17.66667"/>
      <point x="787.5" y="93.63575999999992"/>
      <point x="787.5" y="253.93104" type="curve"/>
      <point x="787.5" y="437.0473966792909"/>
      <point x="606.3492892212302" y="496.20115386248517"/>
      <point x="475.1991969400111" y="513.1873494812513" type="curve"/>
      <point x="396.7752407736119" y="523.3446024230456" type="line"/>
      <point x="360.31310340125935" y="528.0670771641006"/>
      <point x="278.87" y="537.3310353856774"/>
      <point x="278.87" y="581.60646" type="curve"/>
      <point x="278.87" y="623.8830104849762"/>
      <point x="353.12539854119444" y="645.23417"/>
      <point x="418.5" y="645.23417" type="curve"/>
      <point x="502.19236000000006" y="645.23417"/>
      <point x="569.63" y="611.61253"/>
      <point x="569.63" y="568.10646" type="curve"/>
      <point x="774" y="568.1064605712891" type="line"/>
      <point x="774.0" y="732.1677400000001"/>
      <point x="614.8865400000001" y="849.60417"/>
      <point x="418.5" y="849.60417" type="curve"/>
      <point x="221.9993499999999" y="849.60417"/>
      <point x="63.00000000000001" y="739.80843"/>
      <point x="63.0" y="581.60646" type="curve"/>
      <point x="63.000000000000014" y="402.7131747034157"/>
      <point x="245.6785348281042" y="341.2842304903176"/>
      <point x="370.0364577777011" y="325.3660743843253" type="curve"/>
      <point x="448.61849903992584" y="315.30735701215906" type="line"/>
      <point x="486.75036876736306" y="310.42637282926364"/>
      <point x="571.63" y="301.08245119308"/>
      <point x="571.63" y="253.93104" type="curve"/>
      <point x="571.63" y="209.32530044820163"/>
      <point x="495.6683249625778" y="186.70333"/>
      <point x="427.5" y="186.70333" type="curve"/>
      <point x="337.7055" y="186.70333"/>
      <point x="265.37" y="221.84187999999997"/>
      <point x="265.37" y="267.43104" type="curve"/>
    </contour>
  </outline>
</glyph>
<glyph name="t" format="2">
  <advance width="665.0837837837836"/>
  <unicode hex="0074"/>
  <outline>
    <contour>
      <point x="170.68377685546875" y="317.57142639160156" type="line"/>
      <point x="170.68378" y="142.29899"/>
      <point x="312.98277" y="0.0"/>
      <point x="488.25521" y="0.0" type="curve"/>
      <point x="605.6837768554688" y="0" type="line"/>
      <point x="605.6837768554688" y="216" type="line"/>
      <point x="488.25521087646484" y="216" type="line"/>
      <point x="432.19642" y="216.0"/>
      <point x="386.68378" y="261.51263"/>
      <point x="386.68378" y="317.57143" type="curve"/>
      <point x="386.68377685546875" y="594" type="line"/>
      <point x="605.6837768554688" y="594" type="line"/>
      <point x="605.6837768554688" y="810" type="line"/>
      <point x="386.68377685546875" y="810" type="line"/>
      <point x="386.68377685546875" y="977.1428604125977" type="line"/>
      <point x="170.68377685546875" y="977.1428604125977" type="line"/>
      <point x="170.68377685546875" y="810" type="line"/>
      <point x="48.900001525878906" y="810" type="line"/>
      <point x="48.900001525878906" y="594" type="line"/>
      <point x="170.68377685546875" y="594" type="line"/>
    </contour>
  </outline>
</glyph>
<glyph name="u" format="2">
  <advance width="927.2200580190633"/>
  <unicode hex="0075"/>
  <anchor x="456.89639452963115" y="940.4193431413179" name="above" identifier="above"/>
  <anchor x="456.89639452963115" y="-107.41815167840862" name="below" identifier="below"/>
  <anchor x="849.9237463738085" y="0" name="ogonek" identifier="ogonek"/>
  <anchor x="849.9237463738085" y="833.0011914629092" name="horn" identifier="horn"/>
  <outline>
    <contour>
      <point x="63.869041442871094" y="378.01954650878906" type="line"/>
      <point x="63.86904144287111" y="88.35537266094673"/>
      <point x="246.34670715424292" y="-17.811109999999978"/>
      <point x="406.91299" y="-17.81111" type="curve" smooth="yes"/>
      <point x="518.20088178703" y="-17.81111"/>
      <point x="599.8261114747935" y="30.66408428456711"/>
      <point x="651.5834884643555" y="107.64982604980469" type="curve"/>
      <point x="651.5834884643555" y="0" type="line"/>
      <point x="849.9237518310547" y="0" type="line"/>
      <point x="849.9237518310547" y="833.0011901855469" type="line"/>
      <point x="635.4616012573242" y="833.0011901855469" type="line"/>
      <point x="635.4616012573242" y="378.01954650878906" type="line"/>
      <point x="635.4616012573242" y="230.3553039135175"/>
      <point x="533.886471927436" y="179.45435"/>
      <point x="456.89639" y="179.45435" type="curve" smooth="yes"/>
      <point x="379.9063030725641" y="179.45435"/>
      <point x="278.33118945798344" y="230.35530556634956"/>
      <point x="278.3311900849128" y="378.01955" type="curve"/>
      <point x="278.33119201660156" y="833.0011901855469" type="line"/>
      <point x="63.869041442871094" y="833.0011901855469" type="line"/>
    </contour>
  </outline>
</glyph>
<glyph name="v" format="2">
  <advance width="964.7999999999267"/>
  <unicode hex="0076"/>
  <anchor x="482.4" y="918.0" name="above" identifier="above"/>
  <anchor x="482.4" y="-108.0" name="below" identifier="below"/>
  <outline>
    <contour>
      <point x="369.29215240478516" y="0" type="line"/>
      <point x="595.5078506469727" y="0" type="line"/>
      <point x="927.9000015258789" y="810" type="line"/>
      <point x="701.6843032836914" y="810" type="line"/>
      <point x="482.4000015258789" y="275.6303253173828" type="line"/>
      <point x="263.1156997680664" y="810" type="line"/>
      <point x="36.900001525878906" y="810" type="line"/>
    </contour>
  </outline>
</glyph>
<glyph name="w" format="2">
  <advance width="1396.7999999999422"/>
  <unicode hex="0077"/>
  <outline>
    <contour>
      <point x="317.5390319824219" y="0" type="line"/>
      <point x="544.98291015625" y="0" type="line"/>
      <point x="698.4000015258789" y="465.1803970336914" type="line"/>
      <point x="851.8170852661133" y="0" type="line"/>
      <point x="1079.260971069336" y="0" type="line"/>
      <point x="1346.400001525879" y="810" type="line"/>
      <point x="1118.9561157226562" y="810" type="line"/>
      <point x="965.5390319824219" y="344.8196029663086" type="line"/>
      <point x="812.121940612793" y="810" type="line"/>
      <point x="584.6780548095703" y="810" type="line"/>
      <point x="431.26097106933594" y="344.81959533691406" type="line"/>
      <point x="277.84388732910156" y="810" type="line"/>
      <point x="50.400001525878906" y="810" type="line"/>
    </contour>
  </outline>
</glyph>
<glyph name="x" format="2">
  <advance width="979.8474927476169"/>
  <unicode hex="0078"/>
  <anchor x="489.9237463738085" y="940.4193431413179" name="above" identifier="above"/>
  <outline>
    <contour>
      <point x="37.014503479003906" y="0" type="line"/>
      <point x="298.84790802001953" y="0" type="line"/>
      <point x="489.92374420166016" y="265.44058990478516" type="line"/>
      <point x="680.9995803833008" y="0" type="line"/>
      <point x="942.8329925537109" y="0" type="line"/>
      <point x="626.089241027832" y="421.33939361572266" type="line"/>
      <point x="929.2754135131836" y="833.0011901855469" type="line"/>
      <point x="672.9354629516602" y="833.0011901855469" type="line"/>
      <point x="489.92374420166016" y="577.8548049926758" type="line"/>
      <point x="306.9120330810547" y="833.0011901855469" type="line"/>
      <point x="50.57208251953125" y="833.0011901855469" type="line"/>
      <point x="353.7582473754883" y="421.33939361572266" type="line"/>
    </contour>
  </outline>
</glyph>
<glyph name="y" format="2">
  <advance width="949.0575528387899"/>
  <unicode hex="0079"/>
  <anchor x="474.52877641939494" y="940.4193431413179" name="above" identifier="above"/>
  <anchor x="744.1579791567996" y="-107.41815167840862" name="below" identifier="below"/>
  <outline>
    <contour>
      <point x="216.50315856933594" y="-355.55687713623047" type="line"/>
      <point x="452.08241271972656" y="-355.55687713623047" type="line"/>
      <point x="925.4703216552734" y="833.0011901855469" type="line"/>
      <point x="695.0500793457031" y="833.0011901855469" type="line"/>
      <point x="474.5287780761719" y="252.95053100585938" type="line"/>
      <point x="254.0074691772461" y="833.0011901855469" type="line"/>
      <point x="23.587242126464844" y="833.0011901855469" type="line"/>
      <point x="363.5228576660156" y="-20.491714477539062" type="line"/>
    </contour>
  </outline>
</glyph>
<glyph name="z" format="2">
  <advance width="818.0787401574804"/>
  <unicode hex="007A"/>
  <anchor x="409.0393700787402" y="940.4193431413179" name="above" identifier="above"/>
  <anchor x="409.0393700787402" y="-107.41815167840862" name="below" identifier="below"/>
  <anchor x="409.0393700787402" y="425.4061512870102" name="stroke" identifier="stroke"/>
  <outline>
    <contour>
      <point x="63.869041442871094" y="0" type="line"/>
      <point x="754.2097015380859" y="0" type="line"/>
      <point x="754.2097015380859" y="185.40213775634766" type="line"/>
      <point x="335.7610855102539" y="185.40213775634766" type="line"/>
      <point x="745.2581787109375" y="655.6802978515625" type="line"/>
      <point x="745.2581787109375" y="833.0011901855469" type="line"/>
      <point x="63.869041442871094" y="833.0011901855469" type="line"/>
      <point x="63.869041442871094" y="647.5990524291992" type="line"/>
      <point x="467.73670959472656" y="647.5990524291992" type="line"/>
      <point x="63.869041442871094" y="183.785888671875" type="line"/>
    </contour>
  </outline>
</glyph>
<glyph name="braceleft" format="2">
  <advance width="618.3"/>
  <unicode hex="007B"/>
  <outline>
    <contour>
      <point x="216.9000015258789" y="72" type="line"/>
      <point x="216.9" y="-86.95153"/>
      <point x="345.94847" y="-216.0"/>
      <point x="504.9" y="-216.0" type="curve"/>
      <point x="594.9000015258789" y="-216" type="line"/>
      <point x="594.9000015258789" y="0" type="line"/>
      <point x="504.9000015258789" y="0" type="line"/>
      <point x="465.16212" y="0.0"/>
      <point x="432.9" y="32.26212"/>
      <point x="432.9" y="72.0" type="curve"/>
      <point x="432.9000015258789" y="387" type="line"/>
      <point x="432.9" y="455.09070271222004"/>
      <point x="409.21905292735653" y="517.694065813439"/>
      <point x="369.6509017944336" y="566.9977722167969" type="curve"/>
      <point x="409.2190529273565" y="616.305934186561"/>
      <point x="432.8999999999999" y="678.90929728778"/>
      <point x="432.8999999999999" y="747.0" type="curve"/>
      <point x="432.9000015258789" y="1062" type="line"/>
      <point x="432.9" y="1101.73788"/>
      <point x="465.16212" y="1134.0"/>
      <point x="504.9" y="1134.0" type="curve"/>
      <point x="594.9000015258789" y="1134" type="line"/>
      <point x="594.9000015258789" y="1350" type="line"/>
      <point x="504.9000015258789" y="1350" type="line"/>
      <point x="345.94847" y="1350.0"/>
      <point x="216.9" y="1220.95153"/>
      <point x="216.9" y="1062.0" type="curve"/>
      <point x="216.9000015258789" y="747" type="line"/>
      <point x="216.9" y="707.26212"/>
      <point x="184.63788" y="675.0"/>
      <point x="144.9" y="675.0" type="curve"/>
      <point x="54.900001525878906" y="675" type="line"/>
      <point x="54.900001525878906" y="459" type="line"/>
      <point x="144.9000015258789" y="459" type="line"/>
      <point x="184.63788" y="459.0"/>
      <point x="216.9" y="426.73788"/>
      <point x="216.9" y="387.0" type="curve"/>
    </contour>
  </outline>
</glyph>
<glyph name="bar" format="2">
  <advance width="487.79999999999995"/>
  <unicode hex="007C"/>
  <outline>
    <contour>
      <point x="135.9" y="-216.0" type="line"/>
      <point x="351.9" y="-216.0" type="line"/>
      <point x="351.9" y="1350.0" type="line"/>
      <point x="135.9" y="1350.0" type="line"/>
    </contour>
  </outline>
</glyph>
<glyph name="braceright" format="2">
  <advance width="614.7"/>
  <unicode hex="007D"/>
  <outline>
    <contour>
      <point x="91.5999984741211" y="-108.0" type="line"/>
      <point x="252.05334777302528" y="-108.0"/>
      <point x="399.6000013545913" y="-9.755476783195917"/>
      <point x="399.5999998572277" y="200.0" type="curve"/>
      <point x="399.5999985396347" y="384.5726398664502" type="line"/>
      <point x="399.5999979626528" y="465.3981108468015"/>
      <point x="473.0105622168996" y="465.75"/>
      <point x="488.26717232018166" y="465.75" type="curve"/>
      <point x="561.5999984741211" y="465.75" type="line"/>
      <point x="561.5999984741211" y="681.75" type="line"/>
      <point x="480.7773582552731" y="681.75" type="line"/>
      <point x="399.9518872749218" y="681.75"/>
      <point x="399.59999998993055" y="755.1605621776425"/>
      <point x="399.59999988101947" y="770.4171722809247" type="curve"/>
      <point x="399.5999986168934" y="947.5" type="line"/>
      <point x="399.59999747147873" y="1107.9533492989042"/>
      <point x="301.3554767831959" y="1255.5"/>
      <point x="91.6" y="1255.5" type="curve"/>
      <point x="21.599998474121094" y="1255.5" type="line"/>
      <point x="21.599998474121094" y="1039.5" type="line"/>
      <point x="102.42263798817355" y="1039.5" type="line"/>
      <point x="183.24810896852486" y="1039.5"/>
      <point x="183.59999998993052" y="966.0894366286601"/>
      <point x="183.59999988101947" y="950.832826525378" type="curve"/>
      <point x="183.5999986168934" y="773.75" type="line"/>
      <point x="183.59999812893236" y="705.3948570410685"/>
      <point x="195.44062018549934" y="637.8095171528828"/>
      <point x="246.8490982055664" y="573.7522277832031" type="curve"/>
      <point x="195.44065121743748" y="509.6891882393729"/>
      <point x="183.60000034521275" y="442.1085068443922"/>
      <point x="183.59999985722771" y="373.75000000000006" type="curve"/>
      <point x="183.59999853963473" y="189.17735985267296" type="line"/>
      <point x="183.59999796265285" y="108.35188887232165"/>
      <point x="110.18943681822213" y="108.0"/>
      <point x="94.93282671494003" y="108.0" type="curve"/>
      <point x="21.599998474121094" y="108" type="line"/>
      <point x="21.599998474121094" y="-108" type="line"/>
    </contour>
  </outline>
</glyph>
<glyph name="tilde" format="2">
  <advance width="1043.3616722655765"/>
  <unicode hex="007E"/>
  <outline>
    <contour>
      <point x="489.64116185033134" y="388.79045868637877" type="line"/>
      <point x="530.7455294964847" y="365.05884093828513"/>
      <point x="582.639040103622" y="339.0"/>
      <point x="655.46167" y="339.0" type="curve"/>
      <point x="819.3804300000002" y="339.0"/>
      <point x="952.46167" y="472.08123999999987"/>
      <point x="952.46167" y="636.0" type="curve"/>
      <point x="736.461669921875" y="636" type="line"/>
      <point x="736.46167" y="591.29488"/>
      <point x="700.16679" y="555.0"/>
      <point x="655.46167" y="555.0" type="curve"/>
      <point x="634.42793871168" y="555.0"/>
      <point x="619.134287437924" y="563.4428781522884"/>
      <point x="606.190591079514" y="570.9159248739941" type="curve"/>
      <point x="553.7205095176259" y="601.2095411754094" type="line"/>
      <point x="512.616142060843" y="624.9411592515021"/>
      <point x="460.72262989637795" y="651.0"/>
      <point x="387.9" y="651.0" type="curve"/>
      <point x="223.98123999999987" y="651.0"/>
      <point x="90.90000000000002" y="517.9187600000001"/>
      <point x="90.9" y="354.0" type="curve"/>
      <point x="306.9000015258789" y="354" type="line"/>
      <point x="306.9" y="398.70511999999997"/>
      <point x="343.19488" y="435.0"/>
      <point x="387.9" y="435.0" type="curve"/>
      <point x="408.93373128832" y="435.0"/>
      <point x="424.2273825428528" y="426.5571218144154"/>
      <point x="437.1710789608952" y="419.08407519599604" type="curve"/>
    </contour>
  </outline>
</glyph>
<glyph name="inv_exclamation" format="2">
  <advance width="459.00000000000006"/>
  <unicode hex="00A1"/>
  <outline>
    <contour>
      <point x="89.1" y="709.20417" type="curve" smooth="yes"/>
      <point x="89.1" y="631.7153"/>
      <point x="152.01113" y="568.80417"/>
      <point x="229.5" y="568.80417" type="curve" smooth="yes"/>
      <point x="306.98887" y="568.80417"/>
      <point x="369.9" y="631.7153"/>
      <point x="369.9" y="709.20417" type="curve" smooth="yes"/>
      <point x="369.9" y="786.69304"/>
      <point x="306.98887" y="849.60417"/>
      <point x="229.5" y="849.60417" type="curve" smooth="yes"/>
      <point x="152.01113" y="849.60417"/>
      <point x="89.1" y="786.69304"/>
    </contour>
    <contour>
      <point x="337.5" y="496.80417" type="line"/>
      <point x="121.5" y="496.80417" type="line"/>
      <point x="121.5" y="-254.8125" type="line"/>
      <point x="337.5" y="-254.8125" type="line"/>
    </contour>
  </outline>
</glyph>
<glyph name="invertedexclam" format="2">
  <advance width="462.6"/>
  <unicode hex="00A1"/>
  <outline>
    <contour>
      <point x="90.9" y="684.6" type="curve" smooth="yes"/>
      <point x="90.9" y="607.11113"/>
      <point x="153.81113" y="544.2"/>
      <point x="231.3" y="544.2" type="curve" smooth="yes"/>
      <point x="308.78887" y="544.2"/>
      <point x="371.7" y="607.11113"/>
      <point x="371.7" y="684.6" type="curve" smooth="yes"/>
      <point x="371.7" y="762.08887"/>
      <point x="308.78887" y="825.0"/>
      <point x="231.3" y="825.0" type="curve" smooth="yes"/>
      <point x="153.81113" y="825.0"/>
      <point x="90.9" y="762.08887"/>
    </contour>
    <contour>
      <point x="339.3" y="472.2" type="line"/>
      <point x="123.3" y="472.2" type="line"/>
      <point x="123.3" y="-270.0" type="line"/>
      <point x="339.3" y="-270.0" type="line"/>
    </contour>
  </outline>
</glyph>
<glyph name="cent" format="2">
  <advance width="943.4516830444336"/>
  <unicode hex="00A2"/>
  <anchor x="479.4" y="1026.0" name="above" identifier="above"/>
  <anchor x="479.4" y="0" name="below" identifier="below"/>
  <anchor x="479.4" y="108.0" name="cedilla" identifier="cedilla"/>
  <outline>
    <contour>
      <point x="402" y="0" type="line"/>
      <point x="556.8000030517578" y="0" type="line"/>
      <point x="556.8000030517578" y="100.13394165039062" type="line"/>
      <point x="721.966090770741" y="130.9517556227453"/>
      <point x="853.2506517888999" y="258.57653762342"/>
      <point x="889.4509399999998" y="421.82308" type="curve"/>
      <point x="669.3825912475586" y="421.82308197021484" type="line"/>
      <point x="646.47126980891" y="374.20992597088"/>
      <point x="606.1984451309968" y="336.5176653279749"/>
      <point x="556.8000030517578" y="316.9767074584961" type="curve"/>
      <point x="556.8000030517578" y="709.0100860595703" type="line"/>
      <point x="606.2038654737296" y="689.4818543919391"/>
      <point x="646.4800940412301" y="651.78692296208"/>
      <point x="669.39013" y="604.17692" type="curve"/>
      <point x="889.4516830444336" y="604.1769180297852" type="line"/>
      <point x="853.2524335413001" y="767.42204732957"/>
      <point x="721.9674220594545" y="895.047871164266"/>
      <point x="556.8000030517578" y="925.8678512573242" type="curve"/>
      <point x="556.8000030517578" y="1026" type="line"/>
      <point x="402" y="1026" type="line"/>
      <point x="402" y="925.8645553588867" type="line"/>
      <point x="207.11385596121502" y="889.5026238665101"/>
      <point x="59.39999999999998" y="718.3654058143301"/>
      <point x="59.39999999999995" y="513.0000000000001" type="curve" smooth="yes"/>
      <point x="59.4" y="307.63459418567004"/>
      <point x="207.11385596121505" y="136.49737613348995"/>
      <point x="402" y="100.13516998291016" type="curve"/>
    </contour>
    <contour>
      <point x="268.68" y="513.0" type="curve" smooth="yes"/>
      <point x="268.68" y="601.97856071193"/>
      <point x="323.9489217040898" y="678.1502369199056"/>
      <point x="402" y="709.0141906738281" type="curve"/>
      <point x="402" y="316.98792266845703" type="line"/>
      <point x="323.9489217040898" y="347.8497630800943"/>
      <point x="268.68" y="424.02143928807"/>
    </contour>
  </outline>
</glyph>
<glyph name="pound" format="2">
  <advance width="978.3"/>
  <unicode hex="00A3"/>
  <outline>
    <contour>
      <point x="77.4000015258789" y="0" type="line"/>
      <point x="887.4000015258789" y="0" type="line"/>
      <point x="887.4000015258789" y="216" type="line"/>
      <point x="401.4000015258789" y="216" type="line"/>
      <point x="401.4000015258789" y="416.0999984741211" type="line"/>
      <point x="725.4000015258789" y="416.0999984741211" type="line"/>
      <point x="725.4000015258789" y="588.9000015258789" type="line"/>
      <point x="401.4000015258789" y="588.9000015258789" type="line"/>
      <point x="401.4000015258789" y="744" type="line"/>
      <point x="401.4" y="818.50853"/>
      <point x="461.89147" y="879.0"/>
      <point x="536.4" y="879.0" type="curve" smooth="yes"/>
      <point x="610.90853" y="879.0"/>
      <point x="671.4" y="818.50853"/>
      <point x="671.4" y="744.0" type="curve"/>
      <point x="887.4000015258789" y="744" type="line"/>
      <point x="887.4" y="937.72217"/>
      <point x="730.12217" y="1095.0"/>
      <point x="536.4" y="1095.0" type="curve" smooth="yes"/>
      <point x="342.67783" y="1095.0"/>
      <point x="185.4" y="937.72217"/>
      <point x="185.4" y="744.0" type="curve"/>
      <point x="185.4000015258789" y="588.9000015258789" type="line"/>
      <point x="77.4000015258789" y="588.9000015258789" type="line"/>
      <point x="77.4000015258789" y="416.0999984741211" type="line"/>
      <point x="185.4000015258789" y="416.0999984741211" type="line"/>
      <point x="185.4000015258789" y="216" type="line"/>
      <point x="77.4000015258789" y="216" type="line"/>
    </contour>
  </outline>
</glyph>
<glyph name="currency" format="2">
  <advance width="1104.7616869699866"/>
  <unicode hex="00A4"/>
  <outline>
    <contour>
      <point x="903.3808399999999" y="540.0" type="curve" smooth="yes"/>
      <point x="903.38084" y="597.54168359944"/>
      <point x="889.504531077765" y="651.8679556404863"/>
      <point x="864.9184265136719" y="699.8025283813477" type="curve"/>
      <point x="1067.861686706543" y="902.7457809448242" type="line"/>
      <point x="915.1266174316406" y="1055.480842590332" type="line"/>
      <point x="712.1851425170898" y="852.5393600463867" type="line"/>
      <point x="664.2429471019927" y="877.1251850847706"/>
      <point x="609.91942701488" y="891.0"/>
      <point x="552.38084" y="890.9999999999999" type="curve" smooth="yes"/>
      <point x="494.84303084396004" y="891.0"/>
      <point x="440.52020025548353" y="877.1255587945097"/>
      <point x="392.5783233642578" y="852.5375900268555" type="curve"/>
      <point x="189.63506317138672" y="1055.480842590332" type="line"/>
      <point x="36.900001525878906" y="902.7457809448242" type="line"/>
      <point x="239.84148406982422" y="699.8042984008789" type="line"/>
      <point x="215.25649578054416" y="651.8653950802134"/>
      <point x="201.38084000000003" y="597.5403275442501"/>
      <point x="201.38084000000003" y="540.0" type="curve" smooth="yes"/>
      <point x="201.38084" y="482.45831640055997"/>
      <point x="215.25714980451514" y="428.13204435951366"/>
      <point x="239.84325408935547" y="380.19747161865234" type="curve"/>
      <point x="36.900001525878906" y="177.25421905517578" type="line"/>
      <point x="189.63506317138672" y="24.51915740966797" type="line"/>
      <point x="392.57655334472656" y="227.46063995361328" type="line"/>
      <point x="440.51873707395714" y="202.87481491522945"/>
      <point x="494.84225595528005" y="189.00000000000003"/>
      <point x="552.38084" y="189.00000000000003" type="curve" smooth="yes"/>
      <point x="609.91865212616" y="189.0"/>
      <point x="664.241483920434" y="202.87444120549026"/>
      <point x="712.1833724975586" y="227.46240997314453" type="curve"/>
      <point x="915.1266174316406" y="24.51915740966797" type="line"/>
      <point x="1067.861686706543" y="177.25421905517578" type="line"/>
      <point x="864.9201965332031" y="380.1957015991211" type="line"/>
      <point x="889.5051851016943" y="428.13460491978674"/>
      <point x="903.3808399999999" y="482.45967245575"/>
    </contour>
    <contour>
      <point x="687.38084" y="540.0" type="curve" smooth="yes"/>
      <point x="687.38084" y="465.49147"/>
      <point x="626.88937" y="405.0"/>
      <point x="552.38084" y="405.0" type="curve" smooth="yes"/>
      <point x="477.87232" y="405.0"/>
      <point x="417.38084" y="465.49147"/>
      <point x="417.38084" y="540.0" type="curve" smooth="yes"/>
      <point x="417.38084" y="614.50853"/>
      <point x="477.87232" y="675.0"/>
      <point x="552.38084" y="675.0" type="curve" smooth="yes"/>
      <point x="626.88937" y="675.0"/>
      <point x="687.38084" y="614.50853"/>
    </contour>
  </outline>
</glyph>
<glyph name="yen" format="2">
  <advance width="1010.7"/>
  <unicode hex="00A5"/>
  <anchor x="505.35" y="1194.75" name="above" identifier="above"/>
  <anchor x="505.35" y="-108.0" name="below" identifier="below"/>
  <outline>
    <contour>
      <point x="100.3499984741211" y="189.9000015258789" type="line"/>
      <point x="397.3499984741211" y="189.9000015258789" type="line"/>
      <point x="397.3499984741211" y="0" type="line"/>
      <point x="613.3499984741211" y="0" type="line"/>
      <point x="613.3499984741211" y="189.9000015258789" type="line"/>
      <point x="910.3499984741211" y="189.9000015258789" type="line"/>
      <point x="910.3499984741211" y="344.6999969482422" type="line"/>
      <point x="613.3499984741211" y="344.6999969482422" type="line"/>
      <point x="613.3499984741211" y="400.5" type="line"/>
      <point x="621.0959014892578" y="414" type="line"/>
      <point x="910.3499984741211" y="414" type="line"/>
      <point x="910.3499984741211" y="568.8000030517578" type="line"/>
      <point x="709.9155731201172" y="568.8000030517578" type="line"/>
      <point x="1007.0999984741211" y="1086.75" type="line"/>
      <point x="758.0703964233398" y="1086.75" type="line"/>
      <point x="505.3499984741211" y="646.2944412231445" type="line"/>
      <point x="252.62960052490234" y="1086.75" type="line"/>
      <point x="3.5999984741210938" y="1086.75" type="line"/>
      <point x="300.784423828125" y="568.8000030517578" type="line"/>
      <point x="100.3499984741211" y="568.8000030517578" type="line"/>
      <point x="100.3499984741211" y="414" type="line"/>
      <point x="389.6040954589844" y="414" type="line"/>
      <point x="397.3499984741211" y="400.5" type="line"/>
      <point x="397.3499984741211" y="344.6999969482422" type="line"/>
      <point x="100.3499984741211" y="344.6999969482422" type="line"/>
    </contour>
  </outline>
</glyph>
<glyph name="brokenbar" format="2">
  <advance width="484.20000000000005"/>
  <unicode hex="00A6"/>
  <outline>
    <contour>
      <point x="134.1" y="654.75" type="line"/>
      <point x="350.1" y="654.75" type="line"/>
      <point x="350.1" y="1255.5" type="line"/>
      <point x="134.1" y="1255.5" type="line"/>
    </contour>
    <contour>
      <point x="134.1" y="-108.0" type="line"/>
      <point x="350.1" y="-108.0" type="line"/>
      <point x="350.1" y="492.75" type="line"/>
      <point x="134.1" y="492.75" type="line"/>
    </contour>
  </outline>
</glyph>
<glyph name="section" format="2">
  <advance width="802.8"/>
  <unicode hex="00A7"/>
  <outline>
    <contour>
      <point x="451.43890380859375" y="546.4492034912109" type="line"/>
      <point x="457.36082458496094" y="544.3224182128906" type="line"/>
      <point x="457.9895553588867" y="544.0659255981445" type="line"/>
      <point x="462.7957763671875" y="542.0715255737305" type="line"/>
      <point x="464.6294479370117" y="541.2240371704102" type="line"/>
      <point x="468.0070266723633" y="539.618766784668" type="line"/>
      <point x="470.2080764770508" y="538.4721908569336" type="line"/>
      <point x="472.9818572998047" y="536.9708023071289" type="line"/>
      <point x="475.2821502685547" y="535.6244125366211" type="line"/>
      <point x="477.7075881958008" y="534.1337966918945" type="line"/>
      <point x="479.98435974121094" y="532.6383972167969" type="line"/>
      <point x="482.1708068847656" y="531.1138458251953" type="line"/>
      <point x="484.35604095458984" y="529.5025482177734" type="line"/>
      <point x="486.3592529296875" y="527.9154052734375" type="line"/>
      <point x="488.4077682495117" y="526.2160186767578" type="line"/>
      <point x="490.2633743286133" y="524.5388870239258" type="line"/>
      <point x="492.1385040283203" y="522.7816467285156" type="line"/>
      <point x="493.8816604614258" y="520.972412109375" type="line"/>
      <point x="495.54129791259766" y="519.2043533325195" type="line"/>
      <point x="497.26182556152344" y="517.1328811645508" type="line"/>
      <point x="498.60589599609375" y="515.4903030395508" type="line"/>
      <point x="501.2626037597656" y="511.72513580322266" type="line"/>
      <point x="502.0500259399414" y="510.4027404785156" type="line"/>
      <point x="503.6162872314453" y="507.73365020751953" type="line"/>
      <point x="504.42603302001953" y="506.08331298828125" type="line"/>
      <point x="505.586669921875" y="503.6284637451172" type="line"/>
      <point x="506.27674102783203" y="501.8544692993164" type="line"/>
      <point x="507.15943145751953" y="499.4185256958008" type="line"/>
      <point x="507.69488525390625" y="497.57003021240234" type="line"/>
      <point x="508.32039642333984" y="495.11219787597656" type="line"/>
      <point x="508.6852264404297" y="493.21183013916016" type="line"/>
      <point x="509.0552673339844" y="490.7167053222656" type="line"/>
      <point x="509.2489700317383" y="488.6842803955078" type="line"/>
      <point x="509.4000015258789" y="485.5199966430664" type="line"/>
      <point x="509.4" y="447.66031"/>
      <point x="461.15877" y="416.76"/>
      <point x="401.4" y="416.76" type="curve" smooth="yes"/>
      <point x="383.56493533472997" y="416.76"/>
      <point x="366.75577250298096" y="419.5123832941207"/>
      <point x="351.9486999511719" y="424.3919143676758" type="curve"/>
      <point x="347.98663715126" y="425.6873915688"/>
      <point x="344.1276452960506" y="427.1538158555385"/>
      <point x="340.4344024658203" y="428.7696533203125" type="curve"/>
      <point x="338.283203125" y="429.7638931274414" type="line"/>
      <point x="335.20709228515625" y="431.20550537109375" type="line"/>
      <point x="332.59937286376953" y="432.56392669677734" type="line"/>
      <point x="330.2139892578125" y="433.8375015258789" type="line"/>
      <point x="327.57452392578125" y="435.3824157714844" type="line"/>
      <point x="325.46844482421875" y="436.65921783447266" type="line"/>
      <point x="322.9220428466797" y="438.33172607421875" type="line"/>
      <point x="320.9845657348633" y="439.66412353515625" type="line"/>
      <point x="318.58606719970703" y="441.4326629638672" type="line"/>
      <point x="316.77638244628906" y="442.8461608886719" type="line"/>
      <point x="314.5564422607422" y="444.68775939941406" type="line"/>
      <point x="312.8575210571289" y="446.2003936767578" type="line"/>
      <point x="310.83658599853516" y="448.0942687988281" type="line"/>
      <point x="309.2405014038086" y="449.7243881225586" type="line"/>
      <point x="307.43590545654297" y="451.64686584472656" type="line"/>
      <point x="305.9324493408203" y="453.42527770996094" type="line"/>
      <point x="304.36643981933594" y="455.3390808105469" type="line"/>
      <point x="302.91937255859375" y="457.34950256347656" type="line"/>
      <point x="301.6416702270508" y="459.1636657714844" type="line"/>
      <point x="299.9581985473633" y="461.96697998046875" type="line"/>
      <point x="299.6188313562694" y="462.4837598459008"/>
      <point x="299.29178521022703" y="463.07723085997657"/>
      <point x="298.9772644042969" y="463.7271194458008" type="curve"/>
      <point x="297.3228988647461" y="467.12986755371094" type="line"/>
      <point x="296.72411346435547" y="468.66918182373047" type="line"/>
      <point x="295.7254943847656" y="471.3282699584961" type="line"/>
      <point x="295.22257232666016" y="473.0644836425781" type="line"/>
      <point x="294.53855895996094" y="475.62073516845703" type="line"/>
      <point x="294.18514251708984" y="477.4616241455078" type="line"/>
      <point x="293.77565002441406" y="479.9988555908203" type="line"/>
      <point x="293.593505859375" y="481.91004180908203" type="line"/>
      <point x="293.40672302246094" y="485.2351379394531" type="line"/>
      <point x="293.4000015258789" y="485.5199966430664" type="line"/>
      <point x="293.4" y="523.37969"/>
      <point x="341.64123" y="554.28"/>
      <point x="401.4" y="554.28" type="curve" smooth="yes"/>
      <point x="419.17518637773" y="554.28"/>
      <point x="435.9313479506292" y="551.5460670275977"/>
      <point x="450.70198822021484" y="546.6943283081055" type="curve"/>
    </contour>
    <contour>
      <point x="84.5999984741211" y="132" type="line"/>
      <point x="84.6" y="-9.10807"/>
      <point x="226.33195" y="-123.96"/>
      <point x="401.4" y="-123.96" type="curve" smooth="yes"/>
      <point x="576.46805" y="-123.96"/>
      <point x="718.2" y="-9.10807"/>
      <point x="718.2" y="132.0" type="curve"/>
      <point x="718.2" y="194.66404047969002"/>
      <point x="690.2584511985773" y="252.17957006191068"/>
      <point x="643.8515396118164" y="296.7179183959961" type="curve"/>
      <point x="694.5897508716954" y="346.9898398474182"/>
      <point x="725.3999999999999" y="413.13782249760004"/>
      <point x="725.3999999999999" y="485.52" type="curve"/>
      <point x="725.4" y="487.29048687695996"/>
      <point x="725.3815660949545" y="489.05724380823006"/>
      <point x="725.344856262207" y="490.7911148071289" type="curve"/>
      <point x="725.4" y="488.0267941731"/>
      <point x="725.3630549292119" y="490.52614055494996"/>
      <point x="725.2896194458008" y="492.5899963378906" type="curve"/>
      <point x="725.2596112834129" y="494.03440779519536"/>
      <point x="725.2235113011757" y="495.0509795940913"/>
      <point x="725.1813430786133" y="496.03819274902344" type="curve"/>
      <point x="725.1479986558431" y="496.87088196821145"/>
      <point x="725.1108663526794" y="497.672991505533"/>
      <point x="725.069953918457" y="498.2139434814453" type="curve"/>
      <point x="725.0219990684466" y="499.41159350447754"/>
      <point x="724.9688462673208" y="500.34971599950114"/>
      <point x="724.9105377197266" y="501.2590103149414" type="curve"/>
      <point x="724.8583113232135" y="502.1280462888584"/>
      <point x="724.8019372237362" y="502.9663673096731"/>
      <point x="724.7414245605469" y="503.61766052246094" type="curve"/>
      <point x="724.6768173412653" y="504.69514436241826"/>
      <point x="724.6075113200991" y="505.587989792263"/>
      <point x="724.5335083007812" y="506.45328521728516" type="curve"/>
      <point x="724.4617169164819" y="507.3485030407325"/>
      <point x="724.3855307757791" y="508.2126705050287"/>
      <point x="724.3049697875977" y="508.93104553222656" type="curve"/>
      <point x="724.2247721318384" y="509.9308119331519"/>
      <point x="724.1402449173203" y="510.7884827080231"/>
      <point x="724.0514144897461" y="511.6191635131836" type="curve"/>
      <point x="723.9593915595091" y="512.5363651639177"/>
      <point x="723.8627470519572" y="513.4223591572995"/>
      <point x="723.7614898681641" y="514.1892242431641" type="curve"/>
      <point x="723.6667973790942" y="515.129685644583"/>
      <point x="723.5680713728301" y="515.9558771255032"/>
      <point x="723.4653167724609" y="516.7563323974609" type="curve"/>
      <point x="723.3523137755946" y="517.6939887146034"/>
      <point x="723.2344295647436" y="518.600564689814"/>
      <point x="723.111686706543" y="519.4065475463867" type="curve"/>
      <point x="723.003693672606" y="520.2966979946809"/>
      <point x="722.8919715841329" y="521.0920198092172"/>
      <point x="722.7765197753906" y="521.8625335693359" type="curve"/>
      <point x="722.6415367941545" y="522.8214195776238"/>
      <point x="722.5014591021692" y="523.7488710317853"/>
      <point x="722.3563003540039" y="524.5890426635742" type="curve"/>
      <point x="722.236358741323" y="525.4331894514148"/>
      <point x="722.1129651410923" y="526.1971971353381"/>
      <point x="721.9861145019531" y="526.9374313354492" type="curve"/>
      <point x="721.8282955514859" y="527.917156257146"/>
      <point x="721.6651677409088" y="528.8650478421192"/>
      <point x="721.4967269897461" y="529.73583984375" type="curve"/>
      <point x="721.3661191428296" y="530.5371491237695"/>
      <point x="721.2322919970995" y="531.2700236850332"/>
      <point x="721.0952987670898" y="531.9800033569336" type="curve"/>
      <point x="720.9135955787717" y="532.9812402831207"/>
      <point x="720.726276155674" y="533.9506434513697"/>
      <point x="720.5333786010742" y="534.8509902954102" type="curve"/>
      <point x="720.3936613220919" y="535.6101828832674"/>
      <point x="720.2510447518405" y="536.3100252079721"/>
      <point x="720.1054992675781" y="536.9882049560547" type="curve"/>
      <point x="719.898614705473" y="538.0125321845403"/>
      <point x="719.6858873271832" y="539.0044789720392"/>
      <point x="719.4673080444336" y="539.9337539672852" type="curve"/>
      <point x="719.320149856025" y="540.6508722124495"/>
      <point x="719.170330386338" y="541.3165776630439"/>
      <point x="719.0179061889648" y="541.9614486694336" type="curve"/>
      <point x="718.7845301901177" y="543.0100200059431"/>
      <point x="718.5449951444007" y="544.0259634240068"/>
      <point x="718.2993087768555" y="544.9844818115234" type="curve"/>
      <point x="718.1465732306362" y="545.6586992798526"/>
      <point x="717.9914548033847" y="546.2881698385914"/>
      <point x="717.8339920043945" y="546.8979568481445" type="curve"/>
      <point x="717.5725918254176" y="547.9724707515121"/>
      <point x="717.3046917123157" y="549.0140423016098"/>
      <point x="717.0303115844727" y="550.0025405883789" type="curve"/>
      <point x="716.8739757667754" y="550.6328478851808"/>
      <point x="716.7155841076354" y="551.2240466083225"/>
      <point x="716.5551147460938" y="551.7967147827148" type="curve"/>
      <point x="716.2641114355455" y="552.8985520481538"/>
      <point x="715.9662441476394" y="553.9670981159433"/>
      <point x="715.6615600585938" y="554.9861373901367" type="curve"/>
      <point x="715.5037374350806" y="555.5713382570794"/>
      <point x="715.3440505154746" y="556.1228748063446"/>
      <point x="715.1825942993164" y="556.6569213867188" type="curve"/>
      <point x="714.8603745556948" y="557.7871777089673"/>
      <point x="714.5308444879745" y="558.8839899178496"/>
      <point x="714.1941070556641" y="559.9343872070312" type="curve"/>
      <point x="714.0369213085012" y="560.4735257060904"/>
      <point x="713.8782241412237" y="560.9833401900021"/>
      <point x="713.7179794311523" y="561.4770355224609" type="curve"/>
      <point x="713.3625463188197" y="562.6377263264715"/>
      <point x="712.9994187637211" y="563.7644885607715"/>
      <point x="712.6285858154297" y="564.8476867675781" type="curve"/>
      <point x="712.4747204550924" y="565.3383335840781"/>
      <point x="712.3195161764714" y="565.8041498360292"/>
      <point x="712.1629867553711" y="566.2552261352539" type="curve"/>
      <point x="711.7721230629065" y="567.4485727970338"/>
      <point x="711.3730799148121" y="568.6076826054984"/>
      <point x="710.9659271240234" y="569.7252502441406" type="curve"/>
      <point x="710.8181451541367" y="570.1652665176808"/>
      <point x="710.6692745818136" y="570.5843175097287"/>
      <point x="710.5192565917969" y="570.9901657104492" type="curve"/>
      <point x="710.0908197436999" y="572.217676946134"/>
      <point x="709.6536354988423" y="573.4107815582731"/>
      <point x="709.2078247070312" y="574.5642318725586" type="curve"/>
      <point x="709.0687159465148" y="574.9524094503292"/>
      <point x="708.9288119882095" y="575.3230136096092"/>
      <point x="708.7881011962891" y="575.6815490722656" type="curve"/>
      <point x="708.3196876603357" y="576.9450277694725"/>
      <point x="707.8418883658658" y="578.1740269809765"/>
      <point x="707.3548202514648" y="579.3651657104492" type="curve"/>
      <point x="707.2277544080442" y="579.6985859311101"/>
      <point x="707.1000595967665" y="580.0178738765528"/>
      <point x="706.9717864990234" y="580.3265838623047" type="curve"/>
      <point x="706.4604797561151" y="581.6287446092931"/>
      <point x="705.9391492061435" y="582.8962175564021"/>
      <point x="705.4078598022461" y="584.1273193359375" type="curve"/>
      <point x="705.2964361407053" y="584.40305537675"/>
      <point x="705.1845422027632" y="584.6678473156758"/>
      <point x="705.0722122192383" y="584.9238357543945" type="curve"/>
      <point x="704.5149827302316" y="586.2670983810285"/>
      <point x="703.9470852486896" y="587.5754114868241"/>
      <point x="703.3686294555664" y="588.8482513427734" type="curve"/>
      <point x="703.2763633422741" y="589.064115350496"/>
      <point x="703.1837468947697" y="589.2720428542518"/>
      <point x="703.090934753418" y="589.4727630615234" type="curve"/>
      <point x="702.484572055515" y="590.8594785094042"/>
      <point x="701.8667625587066" y="592.2112123847974"/>
      <point x="701.2375640869141" y="593.5285034179688" type="curve"/>
      <point x="701.1688209643654" y="593.6809212397857"/>
      <point x="701.0999397941787" y="593.8279432832182"/>
      <point x="701.0309066772461" y="593.9699172973633" type="curve"/>
      <point x="700.3716331081365" y="595.4031545380998"/>
      <point x="699.6998894561381" y="596.8018389693175"/>
      <point x="699.0158767700195" y="598.1668014526367" type="curve"/>
      <point x="698.9753677742935" y="598.2520967464891"/>
      <point x="698.9348565977317" y="598.3344640980293"/>
      <point x="698.8942718505859" y="598.4139785766602" type="curve"/>
      <point x="698.1779033508313" y="599.8970597276381"/>
      <point x="697.4480829957603" y="601.3458656572062"/>
      <point x="696.7050018310547" y="602.7614822387695" type="curve"/>
      <point x="696.6978159662299" y="602.7758920582615"/>
      <point x="696.6906768056111" y="602.7897432758292"/>
      <point x="696.6835174560547" y="602.803108215332" type="curve"/>
      <point x="665.2029819469208" y="663.9101884553764"/>
      <point x="609.9074120038966" y="713.5381694420014"/>
      <point x="541.1954650878906" y="742.4466781616211" type="curve"/>
      <point x="541.1179629560984" y="742.4804418856414"/>
      <point x="541.0403384602384" y="742.5131227145655"/>
      <point x="540.9625930786133" y="742.5447845458984" type="curve"/>
      <point x="539.4608102111727" y="743.1876904346832"/>
      <point x="537.9525021487651" y="743.8086530901741"/>
      <point x="536.4378204345703" y="744.4075698852539" type="curve"/>
      <point x="536.153953499107" y="744.5257845383647"/>
      <point x="535.870001337304" y="744.6400507773751"/>
      <point x="535.5856552124023" y="744.7503890991211" type="curve"/>
      <point x="534.2700928426582" y="745.2887139488023"/>
      <point x="532.9498101887142" y="745.8078058188385"/>
      <point x="531.6248168945312" y="746.3080215454102" type="curve"/>
      <point x="531.118810463358" y="746.5092285770497"/>
      <point x="530.6122548442125" y="746.7037245684319"/>
      <point x="530.1050720214844" y="746.8908996582031" type="curve"/>
      <point x="528.9926260012363" y="747.3254162416586"/>
      <point x="527.877053508372" y="747.7435073960456"/>
      <point x="526.7583236694336" y="748.1461868286133" type="curve"/>
      <point x="526.011480163283" y="748.4293681977961"/>
      <point x="525.2631370236273" y="748.7029797468944"/>
      <point x="524.5131683349609" y="748.9657592773438" type="curve"/>
      <point x="523.6242149810406" y="749.2966945018617"/>
      <point x="522.7331076061631" y="749.6143772135028"/>
      <point x="521.8401107788086" y="749.9203872680664" type="curve"/>
      <point x="520.828700952379" y="750.2854758729144"/>
      <point x="519.8146615411446" y="750.6377317511294"/>
      <point x="518.7982025146484" y="750.9752197265625" type="curve"/>
      <point x="518.1111952587199" y="751.2179965885798"/>
      <point x="517.4231215300141" y="751.4506231606946"/>
      <point x="516.733772277832" y="751.6758651733398" type="curve"/>
      <point x="515.7698225540773" y="752.0080751274087"/>
      <point x="514.8036083236547" y="752.3273502091608"/>
      <point x="513.835334777832" y="752.6332473754883" type="curve"/>
      <point x="513.2339630126953" y="752.8318862915039" type="line"/>
      <point x="344.90943145751953" y="807.1905517578125" type="line"/>
      <point x="322.32758" y="814.48313"/>
      <point x="307.8" y="826.07926"/>
      <point x="307.8" y="839.04" type="curve"/>
      <point x="307.8" y="860.99966"/>
      <point x="349.51821" y="879.0"/>
      <point x="401.4" y="879.0" type="curve" smooth="yes"/>
      <point x="453.28179" y="879.0"/>
      <point x="495.0" y="860.99966"/>
      <point x="495.0" y="839.04" type="curve"/>
      <point x="711" y="839.0400009155273" type="line"/>
      <point x="711.0" y="980.05073"/>
      <point x="572.53876" y="1095.0"/>
      <point x="401.4" y="1095.0" type="curve" smooth="yes"/>
      <point x="230.26124" y="1095.0"/>
      <point x="91.8" y="980.05073"/>
      <point x="91.8" y="839.04" type="curve"/>
      <point x="91.8" y="777.6753293957"/>
      <point x="118.01162853877206" y="721.215947619405"/>
      <point x="161.73406982421875" y="677.0555572509766" type="curve"/>
      <point x="109.34020061031197" y="626.4522039310614"/>
      <point x="77.39999999999993" y="559.2175174823999"/>
      <point x="77.39999999999995" y="485.52" type="curve"/>
      <point x="77.4" y="483.7499842896"/>
      <point x="77.41842409499375" y="481.9836965399084"/>
      <point x="77.45510864257812" y="480.2498474121094" type="curve"/>
      <point x="77.4" y="483.01613744988"/>
      <point x="77.43686005701994" y="480.51970877807133"/>
      <point x="77.5101318359375" y="478.4579086303711" type="curve"/>
      <point x="77.54016188956743" y="477.012140895942"/>
      <point x="77.57630592288913" y="475.99369346945946"/>
      <point x="77.61853790283203" y="475.0042190551758" type="curve"/>
      <point x="77.65175121634995" y="474.17515011858063"/>
      <point x="77.68872368247668" y="473.37601190986203"/>
      <point x="77.72944641113281" y="472.8377380371094" type="curve"/>
      <point x="77.7775059688657" y="471.6372522413613"/>
      <point x="77.83078956515988" y="470.6963304784918"/>
      <point x="77.88927459716797" y="469.7835235595703" type="curve"/>
      <point x="77.9411753673095" y="468.92037743751354"/>
      <point x="77.99717973642306" y="468.0870510117268"/>
      <point x="78.0572738647461" y="467.44042205810547" type="curve"/>
      <point x="78.1221586281164" y="466.3581372014252"/>
      <point x="78.19179793311464" y="465.460495612227"/>
      <point x="78.26616668701172" y="464.59024810791016" type="curve"/>
      <point x="78.33738471386447" y="463.7026183741477"/>
      <point x="78.41294456031034" y="462.84503099878617"/>
      <point x="78.4928207397461" y="462.1328659057617" type="curve"/>
      <point x="78.5735529408007" y="461.12624460690665"/>
      <point x="78.65871546912346" y="460.2616480570407"/>
      <point x="78.74825286865234" y="459.42371368408203" type="curve"/>
      <point x="78.83933423838519" y="458.5163967084011"/>
      <point x="78.93495187415758" y="457.6392983590808"/>
      <point x="79.03508758544922" y="456.88111877441406" type="curve"/>
      <point x="79.13070615768868" y="455.9312572739645"/>
      <point x="79.23043743508299" y="455.09618596737846"/>
      <point x="79.33426666259766" y="454.28680419921875" type="curve"/>
      <point x="79.44593934235972" y="453.36066694273654"/>
      <point x="79.56236329375972" y="452.4648026733552"/>
      <point x="79.6834945678711" y="451.6696014404297" type="curve"/>
      <point x="79.79289287643086" y="450.7676294359919"/>
      <point x="79.90613611351235" y="449.96104054063477"/>
      <point x="80.02322387695312" y="449.1791687011719" type="curve"/>
      <point x="80.15612271739779" y="448.2354932861868"/>
      <point x="80.29395923571191" y="447.32232851401267"/>
      <point x="80.43669891357422" y="446.49639892578125" type="curve"/>
      <point x="80.55880744860242" y="445.6367482908092"/>
      <point x="80.68454971063693" y="444.857752457424"/>
      <point x="80.8138656616211" y="444.10264587402344" type="curve"/>
      <point x="80.96891776299255" y="443.140593344674"/>
      <point x="81.12913131917456" y="442.2091009382274"/>
      <point x="81.29446411132812" y="441.3545684814453" type="curve"/>
      <point x="81.42797827377385" y="440.53517239746634"/>
      <point x="81.56480926204469" y="439.78543975110887"/>
      <point x="81.70494079589844" y="439.0587692260742" type="curve"/>
      <point x="81.88318520319885" y="438.0771225238393"/>
      <point x="82.06681171686736" y="437.1263104706995"/>
      <point x="82.25578308105469" y="436.2444305419922" type="curve"/>
      <point x="82.39920911356029" y="435.4647858354269"/>
      <point x="82.5456821733794" y="434.74564337977426"/>
      <point x="82.69525909423828" y="434.0483169555664" type="curve"/>
      <point x="82.89761357686734" y="433.0469293154799"/>
      <point x="83.10560407129202" y="432.0765431966656"/>
      <point x="83.31922149658203" y="431.1684112548828" type="curve"/>
      <point x="83.47121842838986" y="430.4274458387896"/>
      <point x="83.6260785745223" y="429.73899222099993"/>
      <point x="83.78375244140625" y="429.0716094970703" type="curve"/>
      <point x="84.01137631912157" y="428.0493874509999"/>
      <point x="84.24488054743932" y="427.05850182517116"/>
      <point x="84.48420715332031" y="426.12487030029297" type="curve"/>
      <point x="84.64319489492885" y="425.4227696398591"/>
      <point x="84.80471324114943" y="424.76700384876915"/>
      <point x="84.96881103515625" y="424.1312255859375" type="curve"/>
      <point x="85.22299537928657" y="423.0869104128128"/>
      <point x="85.48334466516901" y="422.0741748896517"/>
      <point x="85.74980926513672" y="421.11424255371094" type="curve"/>
      <point x="85.91406427406649" y="420.45172071024655"/>
      <point x="86.08059358112244" y="419.8298523313697"/>
      <point x="86.2493896484375" y="419.22718048095703" type="curve"/>
      <point x="86.53141086039665" y="418.15991444742025"/>
      <point x="86.81993495543732" y="417.1243729278098"/>
      <point x="87.1148910522461" y="416.1378860473633" type="curve"/>
      <point x="87.28253556434035" y="415.5159867231325"/>
      <point x="87.45223009991747" y="414.92961759557124"/>
      <point x="87.62395477294922" y="414.3613586425781" type="curve"/>
      <point x="87.93552143048" y="413.2690481090841"/>
      <point x="88.2538632921009" y="412.2089912675381"/>
      <point x="88.57894134521484" y="411.1949691772461" type="curve"/>
      <point x="88.74778951922728" y="410.6154935176129"/>
      <point x="88.91844156899299" y="410.0670394033658"/>
      <point x="89.09095001220703" y="409.5353469848633" type="curve"/>
      <point x="89.43369783209332" y="408.41666058896453"/>
      <point x="89.7836466761349" y="407.3303261956531"/>
      <point x="90.14069366455078" y="406.28736114501953" type="curve"/>
      <point x="90.30859707785314" y="405.7516246425541"/>
      <point x="90.47809594345736" y="405.24270839278637"/>
      <point x="90.64910125732422" y="404.7497329711914" type="curve"/>
      <point x="91.02484658891453" y="403.6031399970582"/>
      <point x="91.40819626359192" y="402.48917049225446"/>
      <point x="91.79902648925781" y="401.4163284301758" type="curve"/>
      <point x="91.96368888743186" y="400.92574615026587"/>
      <point x="92.12962342614662" y="400.4584986156767"/>
      <point x="92.29682922363281" y="400.00598907470703" type="curve"/>
      <point x="92.70753761064041" y="398.8298836747813"/>
      <point x="93.12629967144508" y="397.68664775773595"/>
      <point x="93.55309295654297" y="396.582275390625" type="curve"/>
      <point x="93.71180542818291" y="396.13906258984"/>
      <point x="93.8716371624066" y="395.7155379466758"/>
      <point x="94.03254699707031" y="395.3053894042969" type="curve"/>
      <point x="94.48033809673642" y="394.0981534444412"/>
      <point x="94.936678966978" y="392.9239796047314"/>
      <point x="95.40142059326172" y="391.7873001098633" type="curve"/>
      <point x="95.55165730085324" y="391.3927624617567"/>
      <point x="95.70272391533055" y="391.01493580529774"/>
      <point x="95.85472106933594" y="390.6489944458008" type="curve"/>
      <point x="96.34200210141945" y="389.4086382631294"/>
      <point x="96.83834209952882" y="388.20160204509796"/>
      <point x="97.3436279296875" y="387.0305709838867" type="curve"/>
      <point x="97.4821619693524" y="386.68746085042426"/>
      <point x="97.62138701253957" y="386.3579220643885"/>
      <point x="97.76123809814453" y="386.03910064697266" type="curve"/>
      <point x="98.29063181684332" y="384.76354788937823"/>
      <point x="98.82970724551475" y="383.5213728901623"/>
      <point x="99.37837982177734" y="382.31383514404297" type="curve"/>
      <point x="99.50188225849158" y="382.0246020932587"/>
      <point x="99.62590881504273" y="381.7461158887546"/>
      <point x="99.75035095214844" y="381.4768981933594" type="curve"/>
      <point x="100.32481015392773" y="380.1637382074604"/>
      <point x="100.90956046929668" y="378.88413951089666"/>
      <point x="101.50454711914062" y="377.63819122314453" type="curve"/>
      <point x="101.60939548873873" y="377.4054663379277"/>
      <point x="101.71463420779507" y="377.18082321138183"/>
      <point x="101.8201904296875" y="376.9636688232422" type="curve"/>
      <point x="102.44275320666148" y="375.61080051344663"/>
      <point x="103.07642440428937" y="374.29127554741143"/>
      <point x="103.7210464477539" y="373.0045852661133" type="curve"/>
      <point x="103.80330853990122" y="372.83117455955886"/>
      <point x="103.88579877994967" y="372.6634543117988"/>
      <point x="103.96847534179688" y="372.5014343261719" type="curve"/>
      <point x="104.64266723534075" y="371.1061788637948"/>
      <point x="105.32872463782792" y="369.74423373152064"/>
      <point x="106.02655792236328" y="368.41442108154297" type="curve"/>
      <point x="106.08199422795207" y="368.30323141449463"/>
      <point x="106.13758626974574" y="368.1953819104426"/>
      <point x="106.19318389892578" y="368.09141540527344" type="curve"/>
      <point x="106.92281179305176" y="366.6510660282141"/>
      <point x="107.66522315942721" y="365.24369770031507"/>
      <point x="108.42021942138672" y="363.8681182861328" type="curve"/>
      <point x="108.44398566343386" y="363.8227067013357"/>
      <point x="108.46770001318178" y="363.77873963226403"/>
      <point x="108.49142456054688" y="363.73634338378906" type="curve"/>
      <point x="141.1216675980603" y="303.2397882135941"/>
      <point x="197.28119565317033" y="254.4345816077923"/>
      <point x="266.588623046875" y="226.5392074584961" type="curve"/>
      <point x="266.7097882734262" y="226.4886589970777"/>
      <point x="266.83106350618044" y="226.43984845105572"/>
      <point x="266.9523620605469" y="226.39263153076172" type="curve"/>
      <point x="268.43563997382097" y="225.78544181316957"/>
      <point x="269.9250582313747" y="225.19965258215285"/>
      <point x="271.4202117919922" y="224.6356201171875" type="curve"/>
      <point x="271.72678970104823" y="224.51351348489086"/>
      <point x="272.03368407766857" y="224.39562004094324"/>
      <point x="272.3405990600586" y="224.28199768066406" type="curve"/>
      <point x="273.6582492636222" y="223.76710793722532"/>
      <point x="274.9802952705829" y="223.2712868802498"/>
      <point x="276.30677795410156" y="222.79437255859375" type="curve"/>
      <point x="276.81085245442046" y="222.60296734264801"/>
      <point x="277.3156763954119" y="222.41821813738926"/>
      <point x="277.8212203979492" y="222.2405242919922" type="curve"/>
      <point x="278.95948577407114" y="221.81659727413862"/>
      <point x="280.1009418302326" y="221.4091858468664"/>
      <point x="281.2455062866211" y="221.01761627197266" type="curve"/>
      <point x="281.96293599014797" y="220.75831159749924"/>
      <point x="282.6817741384806" y="220.50822214799376"/>
      <point x="283.40196990966797" y="220.2683563232422" type="curve"/>
      <point x="284.34414803660235" y="219.93449205142974"/>
      <point x="285.2883987884446" y="219.6144639422631"/>
      <point x="286.23485565185547" y="219.30690002441406" type="curve"/>
      <point x="287.1844924192457" y="218.98077108920057"/>
      <point x="288.1363723385382" y="218.66669938201113"/>
      <point x="289.0901412963867" y="218.36636352539062" type="curve"/>
      <point x="290.0906787495199" y="218.03291840970803"/>
      <point x="291.09371424141" y="217.71228763104997"/>
      <point x="292.09905000000003" y="217.39590999999993" type="curve"/>
      <point x="292.3805160522461" y="217.30733489990234" type="line"/>
      <point x="292.58727430382606" y="217.2393910997216"/>
      <point x="292.79392358697316" y="217.1746393147502"/>
      <point x="293.00060272216797" y="217.11219787597656" type="curve"/>
      <point x="464.0919723510742" y="163.2699966430664" type="line"/>
      <point x="487.34794" y="155.95138"/>
      <point x="502.2" y="144.62517"/>
      <point x="502.2" y="132.0" type="curve"/>
      <point x="502.2" y="110.04745"/>
      <point x="457.29071" y="92.04"/>
      <point x="401.4" y="92.04" type="curve" smooth="yes"/>
      <point x="345.50929" y="92.04"/>
      <point x="300.6" y="110.04745"/>
      <point x="300.6" y="132.0" type="curve"/>
    </contour>
  </outline>
</glyph>
<glyph name="diaeresis" format="2">
  <advance width="799.2245607128057"/>
  <unicode hex="00A8"/>
  <anchor x="399.61228035640283" y="1482.5467247350662" name="above" identifier="above"/>
  <outline>
    <contour>
      <point x="353.05432" y="1311.54713" type="curve" smooth="yes"/>
      <point x="353.05432" y="1386.16248"/>
      <point x="292.47612" y="1446.74067"/>
      <point x="217.86077" y="1446.74067" type="curve" smooth="yes"/>
      <point x="143.24542" y="1446.74067"/>
      <point x="82.66722" y="1386.16248"/>
      <point x="82.66722" y="1311.54713" type="curve" smooth="yes"/>
      <point x="82.66722" y="1236.93178"/>
      <point x="143.24542" y="1176.35358"/>
      <point x="217.86077" y="1176.35358" type="curve" smooth="yes"/>
      <point x="292.47612" y="1176.35358"/>
      <point x="353.05432" y="1236.93178"/>
    </contour>
    <contour>
      <point x="716.55734" y="1311.54713" type="curve" smooth="yes"/>
      <point x="716.55734" y="1386.16248"/>
      <point x="655.97914" y="1446.74067"/>
      <point x="581.36379" y="1446.74067" type="curve" smooth="yes"/>
      <point x="506.74844" y="1446.74067"/>
      <point x="446.17024" y="1386.16248"/>
      <point x="446.17024" y="1311.54713" type="curve" smooth="yes"/>
      <point x="446.17024" y="1236.93178"/>
      <point x="506.74844" y="1176.35358"/>
      <point x="581.36379" y="1176.35358" type="curve" smooth="yes"/>
      <point x="655.97914" y="1176.35358"/>
      <point x="716.55734" y="1236.93178"/>
    </contour>
  </outline>
</glyph>
<glyph name="copyright" format="2">
  <advance width="1210.9499999999998"/>
  <unicode hex="00A9"/>
  <anchor x="605.475" y="890.5781250000001" name="above" identifier="above"/>
  <anchor x="605.475" y="196.1718750000001" name="below" identifier="below"/>
  <anchor x="605.475" y="250.1718750000001" name="cedilla" identifier="cedilla"/>
  <outline>
    <contour>
      <point x="1148.85" y="543.375" type="curve" smooth="yes"/>
      <point x="1148.85" y="843.27182"/>
      <point x="905.37182" y="1086.75"/>
      <point x="605.475" y="1086.75" type="curve" smooth="yes"/>
      <point x="305.57818" y="1086.75"/>
      <point x="62.1" y="843.27182"/>
      <point x="62.1" y="543.375" type="curve" smooth="yes"/>
      <point x="62.1" y="243.47818"/>
      <point x="305.57818" y="0.0"/>
      <point x="605.475" y="0.0" type="curve" smooth="yes"/>
      <point x="905.37182" y="0.0"/>
      <point x="1148.85" y="243.47818"/>
    </contour>
    <contour>
      <point x="1030.05" y="543.375" type="curve" smooth="yes"/>
      <point x="1030.05" y="309.04568"/>
      <point x="839.80432" y="118.8"/>
      <point x="605.475" y="118.8" type="curve" smooth="yes"/>
      <point x="371.14568" y="118.8"/>
      <point x="180.9" y="309.04568"/>
      <point x="180.9" y="543.375" type="curve" smooth="yes"/>
      <point x="180.9" y="777.70432"/>
      <point x="371.14568" y="967.95"/>
      <point x="605.475" y="967.95" type="curve" smooth="yes"/>
      <point x="839.80432" y="967.95"/>
      <point x="1030.05" y="777.70432"/>
    </contour>
    <contour>
      <point x="605.475" y="388.10104" type="curve" smooth="yes"/>
      <point x="519.77697" y="388.10104"/>
      <point x="450.20104" y="457.67697"/>
      <point x="450.20104" y="543.375" type="curve" smooth="yes"/>
      <point x="450.20104" y="629.07303"/>
      <point x="519.77697" y="698.64896"/>
      <point x="605.475" y="698.64896" type="curve" smooth="yes"/>
      <point x="668.76797" y="698.64896"/>
      <point x="723.26684" y="660.69752"/>
      <point x="747.43728" y="606.31786" type="curve"/>
      <point x="902.70601" y="606.31786" type="line"/>
      <point x="873.68424" y="743.8192"/>
      <point x="751.55138" y="847.14896"/>
      <point x="605.475" y="847.14896" type="curve" smooth="yes"/>
      <point x="437.81759" y="847.14896"/>
      <point x="301.70104" y="711.03241"/>
      <point x="301.70104" y="543.375" type="curve" smooth="yes"/>
      <point x="301.70104" y="375.71759"/>
      <point x="437.81759" y="239.60104"/>
      <point x="605.475" y="239.60104" type="curve" smooth="yes"/>
      <point x="751.55255" y="239.60104"/>
      <point x="873.6862" y="342.93246"/>
      <point x="902.70674" y="480.43213" type="curve"/>
      <point x="747.43808" y="480.43213" type="line"/>
      <point x="723.26817" y="426.0534"/>
      <point x="668.76874" y="388.10104"/>
    </contour>
  </outline>
</glyph>
<glyph name="ordinal_a" format="2">
  <advance width="631.9731566666668"/>
  <unicode hex="00AA"/>
  <anchor x="548.1223833333333" y="1014.0525000000001" name="above" identifier="above"/>
  <anchor x="548.1223833333333" y="-108.0" name="below" identifier="below"/>
  <anchor x="1016.8963133333335" y="0" name="ogonek" identifier="ogonek"/>
  <outline>
    <contour>
      <point x="401.63661193847656" y="640.891960144043" type="line"/>
      <point x="542.873161315918" y="640.891960144043" type="line"/>
      <point x="542.873161315918" y="1093.918212890625" type="line"/>
      <point x="401.63661193847656" y="1093.918212890625" type="line"/>
      <point x="401.63661193847656" y="1084.2328262329102" type="line"/>
      <point x="372.3430063885905" y="1097.2099871875905"/>
      <point x="339.93725769425" y="1104.41667"/>
      <point x="305.86158" y="1104.41667" type="curve" smooth="yes"/>
      <point x="175.05133" y="1104.41667"/>
      <point x="68.85" y="998.21534"/>
      <point x="68.85" y="867.40509" type="curve" smooth="yes"/>
      <point x="68.85" y="736.59484"/>
      <point x="175.05133" y="630.39351"/>
      <point x="305.86158" y="630.39351" type="curve" smooth="yes"/>
      <point x="339.93725769425" y="630.39351"/>
      <point x="372.3430063885904" y="637.6001928124095"/>
      <point x="401.63661193847656" y="650.5842514038086" type="curve"/>
    </contour>
    <contour>
      <point x="401.63661" y="867.40509" type="curve" smooth="yes"/>
      <point x="401.63661" y="814.54541"/>
      <point x="358.72126" y="771.63005"/>
      <point x="305.86158" y="771.63005" type="curve" smooth="yes"/>
      <point x="253.0019" y="771.63005"/>
      <point x="210.08654" y="814.54541"/>
      <point x="210.08654" y="867.40509" type="curve" smooth="yes"/>
      <point x="210.08654" y="920.26477"/>
      <point x="253.0019" y="963.18012"/>
      <point x="305.86158" y="963.18012" type="curve" smooth="yes"/>
      <point x="358.72126" y="963.18012"/>
      <point x="401.63661" y="920.26477"/>
    </contour>
    <contour>
      <point x="68.85" y="410.27922" type="line"/>
      <point x="542.87316" y="410.27922" type="line"/>
      <point x="542.87316" y="543.99351" type="line"/>
      <point x="68.85" y="543.99351" type="line"/>
    </contour>
  </outline>
</glyph>
<glyph name="ordinalfeminine" format="2">
  <advance width="622.26"/>
  <unicode hex="00AA"/>
  <outline>
    <contour>
      <point x="384.4800033569336" y="643.0800018310547" type="line"/>
      <point x="531.3600006103516" y="643.0800018310547" type="line"/>
      <point x="531.3600006103516" y="1086.9599990844727" type="line"/>
      <point x="384.4800033569336" y="1086.9599990844727" type="line"/>
      <point x="384.4800033569336" y="1079.4885940551758" type="line"/>
      <point x="358.70105530170906" y="1089.5101600604064"/>
      <point x="330.6765794302" y="1095.0"/>
      <point x="301.38000000000005" y="1095.0" type="curve" smooth="yes"/>
      <point x="174.45058" y="1095.0"/>
      <point x="71.4" y="991.94942"/>
      <point x="71.4" y="865.02" type="curve" smooth="yes"/>
      <point x="71.4" y="738.09058"/>
      <point x="174.45058" y="635.04"/>
      <point x="301.38" y="635.04" type="curve" smooth="yes"/>
      <point x="330.6765794302" y="635.04"/>
      <point x="358.70105530170906" y="640.5298399395936"/>
      <point x="384.4800033569336" y="650.5493240356445" type="curve"/>
    </contour>
    <contour>
      <point x="384.48" y="865.02" type="curve" smooth="yes"/>
      <point x="384.48" y="819.15586"/>
      <point x="347.24414" y="781.92"/>
      <point x="301.38" y="781.92" type="curve" smooth="yes"/>
      <point x="255.51586" y="781.92"/>
      <point x="218.28" y="819.15586"/>
      <point x="218.28" y="865.02" type="curve" smooth="yes"/>
      <point x="218.28" y="910.88414"/>
      <point x="255.51586" y="948.12"/>
      <point x="301.38" y="948.12" type="curve" smooth="yes"/>
      <point x="347.24414" y="948.12"/>
      <point x="384.48" y="910.88414"/>
    </contour>
    <contour>
      <point x="71.4" y="414.92571" type="line"/>
      <point x="531.36" y="414.92571" type="line"/>
      <point x="531.36" y="548.64" type="line"/>
      <point x="71.4" y="548.64" type="line"/>
    </contour>
  </outline>
</glyph>
<glyph name="angledblleft" format="2">
  <advance width="1045.799999999995"/>
  <unicode hex="00AB"/>
  <outline>
    <contour>
      <point x="954.9000015258789" y="225" type="line"/>
      <point x="761.5653839111328" y="495" type="line"/>
      <point x="954.9000015258789" y="765" type="line"/>
      <point x="689.234619140625" y="765" type="line"/>
      <point x="495.9000015258789" y="495" type="line"/>
      <point x="689.234619140625" y="225" type="line"/>
    </contour>
    <contour>
      <point x="549.9000015258789" y="225" type="line"/>
      <point x="356.5653839111328" y="495" type="line"/>
      <point x="549.9000015258789" y="765" type="line"/>
      <point x="284.234619140625" y="765" type="line"/>
      <point x="90.9000015258789" y="495" type="line"/>
      <point x="284.234619140625" y="225" type="line"/>
    </contour>
  </outline>
</glyph>
<glyph name="angleleft_dbl" format="2">
  <advance width="977.4554496477414"/>
  <unicode hex="00AB"/>
  <outline>
    <contour>
      <point x="433.2880172729492" y="495.24243927001953" type="line"/>
      <point x="659.0854034423828" y="184.79045867919922" type="line"/>
      <point x="894.7882308959961" y="184.79045867919922" type="line"/>
      <point x="668.990852355957" y="495.24243927001953" type="line"/>
      <point x="894.7882308959961" y="805.6944198608398" type="line"/>
      <point x="659.0854034423828" y="805.6944198608398" type="line"/>
    </contour>
    <contour>
      <point x="82.66722106933594" y="495.24243927001953" type="line"/>
      <point x="304.3158187866211" y="189.2662124633789" type="line"/>
      <point x="539.6916732788086" y="189.2662124633789" type="line"/>
      <point x="318.0430679321289" y="495.24243927001953" type="line"/>
      <point x="539.6916732788086" y="801.2186584472656" type="line"/>
      <point x="304.3158187866211" y="801.2186584472656" type="line"/>
    </contour>
  </outline>
</glyph>
<glyph name="logicalnot" format="2">
  <advance width="991.8"/>
  <unicode hex="00AC"/>
  <outline>
    <contour>
      <point x="90.9000015258789" y="387" type="line"/>
      <point x="684.9000015258789" y="387" type="line"/>
      <point x="684.9000015258789" y="0" type="line"/>
      <point x="900.9000015258789" y="0" type="line"/>
      <point x="900.9000015258789" y="603" type="line"/>
      <point x="90.9000015258789" y="603" type="line"/>
    </contour>
  </outline>
</glyph>
<glyph name="registered" format="2">
  <advance width="1207.8000000000002"/>
  <unicode hex="00AE"/>
  <anchor x="616.1790365966584" y="884.2500000000001" name="above" identifier="above"/>
  <anchor x="608.1165365966583" y="195.7500000000001" name="below" identifier="below"/>
  <outline>
    <contour>
      <point x="1143.9" y="540.0" type="curve" smooth="yes"/>
      <point x="1143.9" y="838.03411"/>
      <point x="901.93411" y="1080.0"/>
      <point x="603.9" y="1080.0" type="curve" smooth="yes"/>
      <point x="305.86589" y="1080.0"/>
      <point x="63.9" y="838.03411"/>
      <point x="63.9" y="540.0" type="curve" smooth="yes"/>
      <point x="63.9" y="241.96589"/>
      <point x="305.86589" y="0.0"/>
      <point x="603.9" y="0.0" type="curve" smooth="yes"/>
      <point x="901.93411" y="0.0"/>
      <point x="1143.9" y="241.96589"/>
    </contour>
    <contour>
      <point x="1025.1" y="540.0" type="curve" smooth="yes"/>
      <point x="1025.1" y="307.53339"/>
      <point x="836.36661" y="118.8"/>
      <point x="603.9" y="118.8" type="curve" smooth="yes"/>
      <point x="371.43339" y="118.8"/>
      <point x="182.7" y="307.53339"/>
      <point x="182.7" y="540.0" type="curve" smooth="yes"/>
      <point x="182.7" y="772.46661"/>
      <point x="371.43339" y="961.2"/>
      <point x="603.9" y="961.2" type="curve" smooth="yes"/>
      <point x="836.36661" y="961.2"/>
      <point x="1025.1" y="772.46661"/>
    </contour>
    <contour>
      <point x="398.11653900146484" y="249.75" type="line"/>
      <point x="546.6165390014648" y="249.75" type="line"/>
      <point x="546.6165390014648" y="423.32142639160156" type="line"/>
      <point x="604.1593017578125" y="423.32142639160156" type="line"/>
      <point x="704.9579772949219" y="249.75" type="line"/>
      <point x="876.682731628418" y="249.75" type="line"/>
      <point x="757.0554351806641" y="455.7436065673828" type="line"/>
      <point x="813.180973193089" y="491.96793928498823"/>
      <point x="850.36654" y="555.0685146364999"/>
      <point x="850.36654" y="626.7857099999999" type="curve" smooth="yes"/>
      <point x="850.36654" y="706.3382100186388"/>
      <point x="796.9566677652224" y="830.25"/>
      <point x="626.90225" y="830.25" type="curve"/>
      <point x="398.11653900146484" y="830.25" type="line"/>
    </contour>
    <contour>
      <point x="639.8963178472957" y="681.75" type="line"/>
      <point x="687.8261496611253" y="681.75"/>
      <point x="701.86654" y="647.6932258578017"/>
      <point x="701.86654" y="626.78571" type="curve" smooth="yes"/>
      <point x="701.86654" y="605.8781828451232"/>
      <point x="687.8261344734445" y="571.8214314724897"/>
      <point x="639.89631565003" y="571.8214297479182" type="curve"/>
      <point x="546.6165390014648" y="571.8214263916016" type="line"/>
      <point x="546.6165390014648" y="681.75" type="line"/>
    </contour>
  </outline>
</glyph>
<glyph name="macron" format="2">
  <advance width="775.8"/>
  <unicode hex="00AF"/>
  <outline>
    <contour>
      <point x="90.9" y="1222.11429" type="line"/>
      <point x="684.9" y="1222.11429" type="line"/>
      <point x="684.9" y="1373.31429" type="line"/>
      <point x="90.9" y="1373.31429" type="line"/>
    </contour>
  </outline>
</glyph>
<glyph name="degree" format="2">
  <advance width="685.8995322953051"/>
  <unicode hex="00B0"/>
  <outline>
    <contour>
      <point x="630.08685" y="817.75132" type="curve" smooth="yes"/>
      <point x="630.08685" y="976.22659"/>
      <point x="501.42504" y="1104.8884"/>
      <point x="342.94977" y="1104.8884" type="curve" smooth="yes"/>
      <point x="184.4745" y="1104.8884"/>
      <point x="55.81268" y="976.22659"/>
      <point x="55.81268" y="817.75132" type="curve" smooth="yes"/>
      <point x="55.81268" y="659.27605"/>
      <point x="184.4745" y="530.61423"/>
      <point x="342.94977" y="530.61423" type="curve" smooth="yes"/>
      <point x="501.42504" y="530.61423"/>
      <point x="630.08685" y="659.27605"/>
    </contour>
    <contour>
      <point x="443.39982" y="817.75132" type="curve" smooth="yes"/>
      <point x="443.39982" y="762.31142"/>
      <point x="398.38966" y="717.30126"/>
      <point x="342.94977" y="717.30126" type="curve" smooth="yes"/>
      <point x="287.50987" y="717.30126"/>
      <point x="242.49971" y="762.31142"/>
      <point x="242.49971" y="817.75132" type="curve" smooth="yes"/>
      <point x="242.49971" y="873.19121"/>
      <point x="287.50987" y="918.20137"/>
      <point x="342.94977" y="918.20137" type="curve" smooth="yes"/>
      <point x="398.38966" y="918.20137"/>
      <point x="443.39982" y="873.19121"/>
    </contour>
  </outline>
</glyph>
<glyph name="plusminus" format="2">
  <advance width="910.8"/>
  <unicode hex="00B1"/>
  <outline>
    <contour>
      <point x="347.4000015258789" y="247.5" type="line"/>
      <point x="563.4000015258789" y="247.5" type="line"/>
      <point x="563.4000015258789" y="504" type="line"/>
      <point x="819.9000015258789" y="504" type="line"/>
      <point x="819.9000015258789" y="720" type="line"/>
      <point x="563.4000015258789" y="720" type="line"/>
      <point x="563.4000015258789" y="976.5" type="line"/>
      <point x="347.4000015258789" y="976.5" type="line"/>
      <point x="347.4000015258789" y="720" type="line"/>
      <point x="90.9000015258789" y="720" type="line"/>
      <point x="90.9000015258789" y="504" type="line"/>
      <point x="347.4000015258789" y="504" type="line"/>
    </contour>
    <contour>
      <point x="90.9" y="13.5" type="line"/>
      <point x="819.9" y="13.5" type="line"/>
      <point x="819.9" y="229.5" type="line"/>
      <point x="90.9" y="229.5" type="line"/>
    </contour>
  </outline>
</glyph>
<glyph name="sup_two" format="2">
  <advance width="664.6114285714286"/>
  <unicode hex="00B2"/>
  <outline>
    <contour>
      <point x="104.51142883300781" y="376.4000015258789" type="line"/>
      <point x="579.2828598022461" y="376.4000015258789" type="line"/>
      <point x="579.2828598022461" y="541.6399993896484" type="line"/>
      <point x="360.43567657470703" y="541.6399993896484" type="line"/>
      <point x="476.9899622965628" y="640.1888858200219" type="line"/>
      <point x="506.57292232429603" y="665.2018465189067"/>
      <point x="579.28286" y="729.627561091116"/>
      <point x="579.28286" y="840.63643" type="curve"/>
      <point x="579.28286" y="976.1780800000001"/>
      <point x="469.24023000000005" y="1086.22071"/>
      <point x="333.69857" y="1086.22071" type="curve" smooth="yes"/>
      <point x="198.15692" y="1086.22071"/>
      <point x="88.11429" y="976.17808"/>
      <point x="88.11429" y="840.63643" type="curve"/>
      <point x="253.35428619384766" y="840.6364288330078" type="line"/>
      <point x="253.35429" y="884.97965"/>
      <point x="289.35535" y="920.98071"/>
      <point x="333.69857" y="920.98071" type="curve" smooth="yes"/>
      <point x="378.04179" y="920.98071"/>
      <point x="414.04286" y="884.9796500000001"/>
      <point x="414.04286" y="840.63643" type="curve"/>
      <point x="414.04286" y="803.822175894346"/>
      <point x="389.66724651732386" y="782.7447245430287"/>
      <point x="377.887948450604" y="772.7851016044558" type="curve"/>
      <point x="104.51142883300781" y="541.6399993896484" type="line"/>
    </contour>
  </outline>
</glyph>
<glyph name="sup_three" format="2">
  <advance width="670.1828571428572"/>
  <unicode hex="00B3"/>
  <outline>
    <contour>
      <point x="82.54286193847656" y="592.530517578125" type="line"/>
      <point x="82.54286" y="467.87825"/>
      <point x="196.3302" y="366.67643"/>
      <point x="336.48429" y="366.67643" type="curve" smooth="yes"/>
      <point x="476.63837" y="366.67643"/>
      <point x="590.42571" y="467.87825"/>
      <point x="590.42571" y="592.53052" type="curve"/>
      <point x="590.42571" y="648.3192622243"/>
      <point x="567.6334824681068" y="699.4107548575582"/>
      <point x="529.8862075805664" y="738.8224334716797" type="curve"/>
      <point x="560.8788101357114" y="775.1777656227897"/>
      <point x="579.2828600000001" y="820.5285477730001"/>
      <point x="579.28286" y="869.68266" type="curve"/>
      <point x="579.28286" y="989.19327"/>
      <point x="470.48846" y="1086.22071"/>
      <point x="336.48429" y="1086.22071" type="curve" smooth="yes"/>
      <point x="202.48011" y="1086.22071"/>
      <point x="93.68571" y="989.19327"/>
      <point x="93.68571" y="869.68266" type="curve"/>
      <point x="258.9257125854492" y="869.6826629638672" type="line"/>
      <point x="258.92571" y="897.99483"/>
      <point x="293.67855" y="920.98071"/>
      <point x="336.48429" y="920.98071" type="curve" smooth="yes"/>
      <point x="379.29003" y="920.98071"/>
      <point x="414.04286" y="897.99483"/>
      <point x="414.04286" y="869.68266" type="curve"/>
      <point x="414.04286" y="841.3705"/>
      <point x="379.29003" y="818.38461"/>
      <point x="336.48429" y="818.38461" type="curve"/>
      <point x="253.86428833007812" y="818.3846130371094" type="line"/>
      <point x="253.86428833007812" y="653.1446075439453" type="line"/>
      <point x="336.48429107666016" y="653.1446075439453" type="line"/>
      <point x="385.43994" y="653.14461"/>
      <point x="425.18571" y="625.98435"/>
      <point x="425.18571" y="592.53052" type="curve"/>
      <point x="425.18571" y="559.07669"/>
      <point x="385.43994" y="531.91643"/>
      <point x="336.48429" y="531.91643" type="curve" smooth="yes"/>
      <point x="287.52863" y="531.91643"/>
      <point x="247.78286" y="559.07669"/>
      <point x="247.78286" y="592.53052" type="curve"/>
    </contour>
  </outline>
</glyph>
<glyph name="acute" format="2">
  <advance width="514.8646380056921"/>
  <unicode hex="00B4"/>
  <outline>
    <contour>
      <point x="89.1" y="1194.75" type="line"/>
      <point x="262.82208" y="1194.75" type="line"/>
      <point x="425.76464" y="1482.75" type="line"/>
      <point x="252.04256" y="1482.75" type="line"/>
    </contour>
  </outline>
</glyph>
<glyph name="micron" format="2">
  <advance width="919.1302325581396"/>
  <unicode hex="00B5"/>
  <outline>
    <contour>
      <point x="89.0999984741211" y="-204.28571319580078" type="line"/>
      <point x="299.2200012207031" y="-204.28571319580078" type="line"/>
      <point x="299.2200012207031" y="18.7930908203125" type="line"/>
      <point x="347.75100410018587" y="-4.573145107741222"/>
      <point x="402.1410489204999" y="-17.666670000000074"/>
      <point x="459.5651199999999" y="-17.66667000000007" type="curve" smooth="yes"/>
      <point x="516.989188271" y="-17.66667"/>
      <point x="571.3792310715812" y="-4.57314510774115"/>
      <point x="619.9102325439453" y="18.795242309570312" type="curve"/>
      <point x="619.9102325439453" y="0" type="line"/>
      <point x="830.0302276611328" y="0" type="line"/>
      <point x="830.0302276611328" y="831.9375" type="line"/>
      <point x="619.9102325439453" y="831.9375" type="line"/>
      <point x="619.9102325439453" y="372.79844665527344" type="line"/>
      <point x="619.9102325439453" y="241.06997217549466"/>
      <point x="533.4678614327115" y="192.45333"/>
      <point x="459.56512" y="192.45333" type="curve" smooth="yes"/>
      <point x="385.66237356728845" y="192.45333"/>
      <point x="299.2199997153493" y="241.06997384785797"/>
      <point x="299.22000005095407" y="372.79845" type="curve"/>
      <point x="299.2200012207031" y="831.9375" type="line"/>
      <point x="89.0999984741211" y="831.9375" type="line"/>
    </contour>
  </outline>
</glyph>
<glyph name="pilcrow" format="2">
  <advance width="950.5453135899295"/>
  <unicode hex="00B6"/>
  <outline>
    <contour>
      <point x="403.1127166748047" y="-204.28571319580078" type="line"/>
      <point x="602.3553695678711" y="-204.28571319580078" type="line"/>
      <point x="602.3553695678711" y="892.2529983520508" type="line"/>
      <point x="681.4643630981445" y="892.2529983520508" type="line"/>
      <point x="681.4643630981445" y="-204.28571319580078" type="line"/>
      <point x="881.3053588867188" y="-204.28571319580078" type="line"/>
      <point x="881.3053588867188" y="1087.077293395996" type="line"/>
      <point x="423.1127166748047" y="1087.077293395996" type="line"/>
      <point x="183.96051648759286" y="1087.077293395996"/>
      <point x="64.76419000000001" y="910.741541815926"/>
      <point x="64.76419" y="748.72876" type="curve" smooth="yes"/>
      <point x="64.76419000000001" y="561.9891299999999"/>
      <point x="216.37308999999993" y="410.38023"/>
      <point x="403.11272" y="410.38023" type="curve"/>
    </contour>
  </outline>
</glyph>
<glyph name="interpunct" format="2">
  <advance width="454.0704517198508"/>
  <unicode hex="00B7"/>
  <outline>
    <contour>
      <point x="384.8305" y="486.33688" type="curve" smooth="yes"/>
      <point x="384.8305" y="573.42646"/>
      <point x="314.12481" y="644.13216"/>
      <point x="227.03523" y="644.13216" type="curve" smooth="yes"/>
      <point x="139.94564" y="644.13216"/>
      <point x="69.23995" y="573.42646"/>
      <point x="69.23995" y="486.33688" type="curve" smooth="yes"/>
      <point x="69.23995" y="399.2473"/>
      <point x="139.94564" y="328.54161"/>
      <point x="227.03523" y="328.54161" type="curve" smooth="yes"/>
      <point x="314.12481" y="328.54161"/>
      <point x="384.8305" y="399.2473"/>
    </contour>
  </outline>
</glyph>
<glyph name="cedilla" format="2">
  <advance width="502.49212427726764"/>
  <unicode hex="00B8"/>
  <outline>
    <contour>
      <point x="141.31658172607422" y="-151.92349243164062" type="line"/>
      <point x="215.2211303913831" y="-151.92349243164062" type="line"/>
      <point x="241.14251367075926" y="-151.92349243164062"/>
      <point x="251.93941" y="-169.25845610036436"/>
      <point x="251.93941" y="-184.49065" type="curve" smooth="yes"/>
      <point x="251.93941" y="-199.7228349825334"/>
      <point x="241.14252597411695" y="-217.0577999533447"/>
      <point x="215.2211269331886" y="-217.05780000889615" type="curve"/>
      <point x="82.66722106933594" y="-217.05780029296875" type="line"/>
      <point x="82.66722106933594" y="-376.7751998901367" type="line"/>
      <point x="199.37225341796875" y="-376.7751998901367" type="line"/>
      <point x="360.6581218678118" y="-376.7751998901367"/>
      <point x="419.82491" y="-279.05185887225775"/>
      <point x="419.82491" y="-189.73033" type="curve" smooth="yes"/>
      <point x="419.82491" y="-106.77938292561996"/>
      <point x="369.33008441888666" y="-43.066641573265684"/>
      <point x="297.42791748046875" y="-16.390342712402344" type="curve"/>
      <point x="297.42791748046875" y="110.327392578125" type="line"/>
      <point x="141.31658172607422" y="110.327392578125" type="line"/>
    </contour>
  </outline>
</glyph>
<glyph name="sup_one" format="2">
  <advance width="581.3719179839361"/>
  <unicode hex="00B9"/>
  <outline>
    <contour>
      <point x="241.39804077148438" y="359.3948974609375" type="line"/>
      <point x="426.66634368896484" y="359.3948974609375" type="line"/>
      <point x="426.66634368896484" y="1084.0620193481445" type="line"/>
      <point x="241.39804077148438" y="1084.0620193481445" type="line"/>
      <point x="102.0621566772461" y="1021.5297317504883" type="line"/>
      <point x="102.0621566772461" y="829.9038925170898" type="line"/>
      <point x="241.39804077148438" y="892.4361801147461" type="line"/>
    </contour>
  </outline>
</glyph>
